<svg xmlns="http://www.w3.org/2000/svg">
<defs>
<font id="UTMSwissCondensed-Bold" horiz-adv-x="1024" >
  <font-face 
    font-family="UTM Swiss Condensed"
    font-weight="700"
    font-stretch="normal"
    units-per-em="2048"
    panose-1="2 0 5 0 0 0 0 0 0 0"
    ascent="1638"
    descent="-410"
    x-height="1157"
    cap-height="1540"
    bbox="-61 -483 6029 2341"
    underline-thickness="150"
    underline-position="-142"
    unicode-range="U+0020-U+2026"
  />
<missing-glyph horiz-adv-x="6492" 
d="M4507 1700h9c24 -6 36 -21 36 -45c0 -6.66699 -10.666 -23 -32 -49h-27c0 14 9 29.667 27 47l3 9c-3.33398 6.66699 -6.66699 10.667 -10 12h-9c-4.66602 0 -7.66602 -5.66699 -9 -17h-29c4 28.667 17.666 43 41 43zM3232 1675l28 -26.999
c0 -8.66699 -13 -17.334 -39 -26.001h-18l-56 11l-11 -11l-27 22c7.33301 16.667 21.333 25 42 25h10l40 -9h2c6 0 15.667 5 29 15zM1747 1644h136v-51h-89v-65h85v-51h-85v-111l-5 -5h-47v278zM2405 1644h42l5 -5v-67h28v-44h-28v-162l-5 -5h-48v167h-24v44h24v67z
M2851 1644h40l4 -5v-81h3c14.667 14.667 31.667 22 51 22h3c36.667 0 62.667 -20.667 78 -62l3 -33v-124h-50v99c0 46.667 -13.333 70 -40 70h-7c-27.333 0 -41 -25 -41 -75v-94h-49v278zM3405 1644l47 0.000976562l5 -5v-190c6 -30 20.333 -45 43 -45
c28 4.66699 42 21.667 42 51v184l4 5h48v-186c0 -48.667 -21 -81 -63 -97c-10 -4 -21.333 -6 -34 -6c-30 0 -56.333 15.667 -79 47c-8.66699 13.333 -13 29.666 -13 48.999v193zM3630 1644h152v-51h-54v-232h-51v232h-52v46zM3808 1644h68
c4.66699 -2.66699 31 -74.667 79 -216h2l76 216h70v-283h-52v209h-1l-71 -209h-42c-2.66699 0 -21.334 52.333 -56 157l-18 52h-2v-209h-53v283zM4897 1644h50v-283h-43l-4 5v9l2 2l-2 12c-18.666 -22.667 -43.666 -34 -75 -34c-42.666 0 -74.666 26 -96 78l-5 34v2
c0 54 29.334 90 88 108l22 3c22.666 0 43 -9.33301 61 -28h2v92zM3268 1599h34l4 -5v-42h-42v-191h-47v21c-14.667 -18 -33.334 -27 -56 -27c-57.333 8 -86 35.667 -86 83v134h50v-89c0 -45.333 8 -70 24 -74l18 -5h5c16.667 0 29.334 10.667 38 32l2 22v114h52v22z

<glyph glyph-name=".notdef" horiz-adv-x="6492" 
d="M4507 1700h9c24 -6 36 -21 36 -45c0 -6.66699 -10.666 -23 -32 -49h-27c0 14 9 29.667 27 47l3 9c-3.33398 6.66699 -6.66699 10.667 -10 12h-9c-4.66602 0 -7.66602 -5.66699 -9 -17h-29c4 28.667 17.666 43 41 43zM3232 1675l28 -26.999
c0 -8.66699 -13 -17.334 -39 -26.001h-18l-56 11l-11 -11l-27 22c7.33301 16.667 21.333 25 42 25h10l40 -9h2c6 0 15.667 5 29 15zM1747 1644h136v-51h-89v-65h85v-51h-85v-111l-5 -5h-47v278zM2405 1644h42l5 -5v-67h28v-44h-28v-162l-5 -5h-48v167h-24v44h24v67z
M2851 1644h40l4 -5v-81h3c14.667 14.667 31.667 22 51 22h3c36.667 0 62.667 -20.667 78 -62l3 -33v-124h-50v99c0 46.667 -13.333 70 -40 70h-7c-27.333 0 -41 -25 -41 -75v-94h-49v278zM3405 1644l47 0.000976562l5 -5v-190c6 -30 20.333 -45 43 -45
c28 4.66699 42 21.667 42 51v184l4 5h48v-186c0 -48.667 -21 -81 -63 -97c-10 -4 -21.333 -6 -34 -6c-30 0 -56.333 15.667 -79 47c-8.66699 13.333 -13 29.666 -13 48.999v193zM3630 1644h152v-51h-54v-232h-51v232h-52v46zM3808 1644h68
c4.66699 -2.66699 31 -74.667 79 -216h2l76 216h70v-283h-52v209h-1l-71 -209h-42c-2.66699 0 -21.334 52.333 -56 157l-18 52h-2v-209h-53v283zM4897 1644h50v-283h-43l-4 5v9l2 2l-2 12c-18.666 -22.667 -43.666 -34 -75 -34c-42.666 0 -74.666 26 -96 78l-5 34v2
c0 54 29.334 90 88 108l22 3c22.666 0 43 -9.33301 61 -28h2v92zM3268 1599h34l4 -5v-42h-42v-191h-47v21c-14.667 -18 -33.334 -27 -56 -27c-57.333 8 -86 35.667 -86 83v134h50v-89c0 -45.333 8 -70 24 -74l18 -5h5c16.667 0 29.334 10.667 38 32l2 22v114h52v22z
M4626 1599v-47h-29v-191h-45v22h-3c-9.33398 -18.667 -27.334 -28 -54 -28c-43.334 0 -71 22.333 -83 67l-2 25v125h49v-103c0 -28.667 6.33398 -48 19 -58l20 -7h9c26.666 0 40 20 40 60v108h25c2.66602 0 4 8.33301 4 25l3 2h47zM2025 1580
c43.333 0 76.333 -22.332 99 -66.999c5.33301 -10 9.33301 -25.333 12 -46c0 -50.667 -28.667 -87.334 -86 -110.001l-32 -2c-39.333 0 -71.333 21 -96 63c-8 12 -12 27 -12 45v8c0 54 32.333 90.333 97 109h18zM2267 1580h3c47.333 0 74 -29.333 80 -88v-131h-49v103
c0 44 -13.333 66 -40 66h-5c-28 0 -42 -22 -42 -66v-103h-50v211h44v-18c18.667 17.333 38.334 26 59 26zM2703 1580l6 0.000976562c46 0 79.667 -25.667 101 -77h-58c-10 18 -23.333 27 -40 27h-16c-34 -8.66699 -51 -26.334 -51 -53.001l-3 -13c8 -40 27.333 -60 58 -60h9
c14.667 0 29.667 8 45 24h39l2 3h2l2 -3l2 3l3 -3l2 3l2 -7c-20.667 -46 -55.667 -69 -105 -69c-48.667 0 -84 27 -106 81l-4 31v2c0 48.667 24.667 83 74 103c10 5.33301 22 8 36 8zM4305 1580l2 -0.00292969c31.334 0 53.667 -17.333 67 -52v-12h-49
c0 9.33301 -5.33398 14 -16 14h-4c-8.66602 0 -14.666 -4 -18 -12v-11c0 -5.33301 21.666 -15.333 65 -30c19.334 -10.667 29 -27.667 29 -51c0 -33.333 -19.666 -56.333 -59 -69l-22 -2c-48 6.66699 -72 30.334 -72 71.001h52c0 -11.333 8.33398 -18.666 25 -21.999h4
c12 0 19.666 6.66699 23 20c0 12.667 -21.666 25.667 -65 39c-21.334 14.667 -32 31.334 -32 50.001c0 38 23.334 60.333 70 67zM5321 1580c35.334 0 60 -18.332 74 -54.999c4 -10.667 6 -29.334 6 -56.001v-108h-49v97c0 48 -12.666 72 -38 72h-11
c-20.666 0 -33.333 -15.667 -38 -47v-122h-49v5h-3l3 2v204h45v-18c15.334 17.333 35.334 26 60 26zM5541 1580l4 0.000976562c26 0 48 -11.667 66 -35v16l-2 2l2 9h45v-179c0 -56 -27 -93.667 -81 -113l-32 -4h-7c-44 0 -77 23 -99 69h57
c15.334 -12.667 29.334 -19.334 42 -20.001h14c13.334 0 27 6.33301 41 19c8.66602 7.33301 15.333 22.333 20 45h-2c-21.334 -22.667 -44.667 -34 -70 -34c-36.666 0 -67.666 20 -93 60c-6 10.667 -10.334 28.667 -13 54c0 50.667 28 86.667 84 108zM4985 1572h50v-117
c4 -34 17 -51 39 -51h6c29.334 0 44 27 44 81v87h49v-211h-45l-3 9h3l-3 3v4l3 2v3h-4c0 -13.333 -18 -22.333 -54 -27h-3c-37.334 0 -64.334 21.333 -81 64l-1 73v80zM1960 1464c6.66699 -40 26.667 -60.001 60 -60.001h7c38 8.66699 57 27.334 57 56.001v13
c-8.66699 38 -27.667 57 -57 57h-4c-37.333 0 -58.333 -22 -63 -66zM4773 1467c8.66602 -42 28.333 -63 59 -63h4c37.334 0 58.667 21.667 64 65c0 28.667 -16.666 49 -50 61h-20c-24 0 -42 -16.333 -54 -49zM5485 1467c4.66602 -42 25.333 -63 62 -63h5
c38 7.33301 57 28.333 57 63s-19 55.667 -57 63h-13c-36 -9.33301 -54 -27.333 -54 -54v-9zM5058 1334h50v-49h-50v49zM2308 1146c28 -6 42 -19.999 42 -41.999v-3c0 -10 -10.333 -27.333 -31 -52h-27c0 14 9.66699 30.333 29 49v6c0 7.33301 -2 11.666 -6 12.999h-12
c-6 -2.66699 -9 -8 -9 -16h-27v5c0 18 10.333 30.333 31 37zM4504 1092c58.666 0 103 -28.333 133 -85h-58c-24 24 -49.666 36 -77 36c-34.666 0 -62.333 -19.667 -83 -59c-6 -12 -9 -25.333 -9 -40c0 -45.333 25.666 -77 77 -95l17 -1c22.666 0 46.666 11 72 33h58
c-28 -55.333 -72 -83 -132 -83c-59.334 0 -104.334 32 -135 96c-6 18 -9 36 -9 54c0 56 28.666 99.667 86 131c18 8.66699 38 13 60 13zM4805 1092c36.666 0 69.666 -13.333 99 -40c30 -30 45 -63 45 -99v-18c0 -51.333 -29.334 -93.333 -88 -126
c-20.666 -7.33301 -41 -11 -61 -11c-56 0 -99.666 29 -131 87c-8.66602 18.667 -13 36 -13 52v16c0 56 31.666 99.333 95 130c18 6 36 9 54 9zM3463 1090h2l45 -9h3c6.66699 0 15 3 25 9l17 -31c-11.333 -10.667 -22.333 -16 -33 -16h-3l-51 9l-20 -7l-19 31
c11.333 9.33301 22.666 14 34 14zM1985 1088l18 0.000976562c75.333 0 116.666 -7.66699 124 -23c15.333 -14.667 23 -32.667 23 -54c-6 -32.667 -15.333 -49 -28 -49v-5c30 -12.667 45 -31.334 45 -56.001v-16c0 -36 -22 -61.333 -66 -76l-51 -4h-65v283zM3739 1088h52
v-187c3.33301 -35.333 17.666 -53 43 -53c18 0 32 11 42 33l3 26v176l4 5h42l5 -5v-148c0 -67.333 -12.667 -105.333 -38 -114c-15.333 -15.333 -35.666 -23 -61 -23c-35.333 0 -64.666 21.667 -88 65l-4 47v178zM3984 1088l56 0.000976562c2.66699 0 41.667 -68 117 -204h4
v204h48l4 -5v-278h-56c-18.666 27.333 -58.666 95.666 -120 204.999h-2v-205h-51v283zM4267 1088h51v-283h-51v283zM4992 1088h8c98.666 0 154 -11.667 166 -35c15.334 -6.66699 30.334 -28 45 -64l5 -32v-9l2 -2c0 -54 -26.334 -96.667 -79 -128
c-22 -8.66699 -53.334 -13 -94 -13h-53v283zM5262 1088h147v-52h-99v-65h96v-49h-96v-64l4 -4h95v-49h-151v278zM4709 951.005v-9c0 -44 25.334 -75 76 -93l18 -1c43.334 0 74 24.667 92 74l2 17v14c0 34.667 -18.666 61.667 -56 81c-8 4 -20.666 7 -38 9
c-42 0 -72.666 -24 -92 -72zM2036 1036v-58h9c34.667 0 52 8 52 24l2 12c-6 14.667 -15 22 -27 22h-36zM5043 1036v-178l2 -2v-2c66 0 105 22 117 66l2 13v24c0 20 -10.334 39.667 -31 59c-16 13.333 -41 20 -75 20h-15zM2296 1023h5c24 0 46.667 -11.333 68 -34v27h47v-211
h-47v27c-23.333 -22.667 -49 -34 -77 -34c-47.333 0 -79.666 27.667 -97 83l-4 31c0 51.333 27 87.333 81 108zM2557 1023h3c47.333 0 74 -29.333 80 -88v-130h-49v110c0 38.667 -13.333 58 -40 58h-10c-22 0 -34.667 -17.667 -38 -53v-115h-49v211h45v-18
c17.333 16.667 36.666 25 58 25zM2777 1023l4 0.000976562c28.667 0 51.334 -11.333 68 -34v27h45v-189c0 -54.667 -33 -90.667 -99 -108h-16c-46.667 0 -81 23.667 -103 71h56c16.667 -14.667 30.667 -22 42 -22h14c33.333 0 53.666 22.333 61 67
c-20.667 -24.667 -44.667 -37 -72 -37c-39.333 0 -71.666 23.333 -97 70l-7 38v14c0 45.333 27 78.666 81 99.999zM3129 1023.01h2c27.333 0 46.666 -10.667 58 -32h3c20 21.333 41.667 32 65 32h4c36.667 0 62 -16 76 -48c5.33301 -14 8 -26.667 8 -38v-132h-50v119
c0 25.333 -7.33301 41 -22 47l-12 2h-14c-20.667 0 -32.334 -18.667 -35 -56v-112h-49v117c0 34 -13.667 51 -41 51h-8c-20 0 -31.333 -16.333 -34 -49v-119h-52v211h47v-18h3c4 14 21 22.333 51 25zM3483 1023.01c30 0 54 -12 72 -36v29h45v-211h-45v27
c-22.667 -22.667 -47.334 -34 -74 -34c-48 0 -81 26.333 -99 79l-4 35c0 52 27 88 81 108zM2243 901.006c0 -28 19.333 -45.667 58 -53h4c28.667 0 48.334 13.333 59 40l2 13v19c-7.33301 35.333 -25.333 53 -54 53h-14c-25.333 0 -43.666 -16.333 -55 -49v-23z
M2723 910.006c0 -27.333 13.333 -46.667 40 -58l18 -4h5c30 0 50 16.333 60 49v20c-6.66699 37.333 -25.334 56 -56 56h-11c-31.333 0 -50 -21 -56 -63zM3429 912.005v-11c9.33301 -35.333 27.333 -53 54 -53h14c37.333 6.66699 56 25 56 55v9c0 26.667 -12 45.667 -36 57
l-17 4h-10c-40.667 -4.66699 -61 -25 -61 -61zM2036 929.005v-71c0 -2.66699 2.33301 -4 7 -4c49.333 0 74 13 74 39c0 19.333 -15 31.333 -45 36h-36zM4138 587.005l23 -24l-49 -48c-11.334 7.33301 -19.667 15 -25 23zM2759 564.005l81 -46c0 -8.66699 -7 -20.667 -21 -36
l-83 46c12 24 19.667 36 23 36zM4027 535.005h36l53 -52h-52l-20 23l-22 -23h-52c34.667 34.667 53.667 52 57 52zM4574 535.005h38l54 -52h-51l-23 23h-2c0 -3.33301 -6 -11 -18 -23h-52zM1895 528.005l50.001 -0.000976562c4.66699 -2 19.667 -41 45 -117l33 -95
c5.33301 4.66699 15.666 33.334 30.999 86.001l47 126h52v-1l-108 -281h-42zM2409 528.004h49v-46h-49v46zM2596 528.004h44l5 -4v-278h-49v282zM3517 528.004h43l4 -4v-67h30v-45h-30v-166h-51v166h-25v45h25v67zM3620 528.004h50v-84h1c15.333 13.333 33 20 53 20h2
c36.667 0 62.667 -20.333 78 -61l3 -33v-124h-50v99c0 46.667 -12.333 70 -37 70h-10c-26.667 0 -40 -25 -40 -75v-94h-50v282zM3849 528.004h49v-46h-49v46zM4197 528.004h43l5 -4v-67h28v-45h-28v-166h-52v166h-25v45h25v67zM4394 528.004h50v-282h-50v282zM5086 528.004
h49v-282h-49v282zM5429 528.004h49v-46h-49v46zM2788 464.004l5 0.000976562c52.667 0 87.667 -29.333 105 -88l2 -20v-9c0 -48 -27 -82.333 -81 -103l-33 -5c-48.667 0 -84 28 -106 84l-4 27c0 55.333 29.667 92.666 89 111.999zM3033 464.005h4
c33.333 0 58 -17.333 74 -52c4.66699 -14 7 -37 7 -69v-97h-52v126c-4.66699 28.667 -16.667 43 -36 43h-9c-24 0 -37.333 -16.667 -40 -50v-119h-51v211h46v-18c16.667 16.667 35.667 25 57 25zM3257 464.005h3.99902c29.333 0 49.666 -11.333 61 -34h2v27h47v-177
c0 -58.667 -28.333 -97.667 -85 -117l-26 -2h-5c-46.667 0 -80.667 23 -102 69h50l35 -17l15 -2h13c32 0 51.333 20.667 58 62c-20.667 -22.667 -43.667 -34 -69 -34c-39.333 0 -70.666 22 -93.999 66c-6.66699 13.333 -10.667 30.333 -12 51c0 48.667 27.667 84 83 106z
M4042 464.005h2c52.666 0 88 -30 106 -90l2 -22l-2 -23h-164c9.33301 -25.333 23.333 -38 42 -38l14 -2c18.667 0 34.334 6 47 18h55v-2c-22.666 -44 -57.333 -66 -104 -66c-48.667 0 -84 28 -106 84l-1 24v7c0 28 10.333 53.333 31 76c21.333 22.667 47.333 34 78 34z
M4581 464.005l4 0.000976562c26 0 48.334 -11.333 67 -34h3v27h45v-211h-45v27h-3c-21.334 -22.667 -45.667 -34 -73 -34c-45.334 0 -77.667 25.667 -97 77l-4 31v12c0 49.333 26.666 83.666 80 102.999zM4850 464.006h7c56 0 90.334 -36.667 103 -110l-2 -2v-12
c0 -37.333 -21 -68 -63 -92c-13.334 -6 -28.334 -9 -45 -9c-21.334 0 -41.667 9 -61 27v-85l-4 -4h-48v280h48v-24c19.334 20.667 41 31 65 31zM5272 464.006c28 0 51.666 -11.333 71 -34v27h48v-211h-48v27c-22 -22.667 -46.334 -34 -73 -34
c-58.666 0 -93.333 37.667 -104 113c0 48.667 23.334 83.667 70 105c10 4.66699 22 7 36 7zM2182 457.006h48v-117c2 -34 15.333 -51 40 -51h5c28 0 42 24.667 42 74v94h49v-211h-45v20h-4c0 -12.667 -18 -21.667 -54 -27h-2c-35.333 0 -61.666 19.667 -79 59
c-2.66699 20 -4 48.333 -4 85v70zM2409 457.006h49v-211h-49v211zM3849 457.006h49v-211h-49v211zM5429 457.006h49v-211h-49v211zM2727 359.006v-14c8.66699 -37.333 27.667 -56 57 -56h4c38 0 59 21.667 63 65c-8 40.667 -26.667 61 -56 61h-11
c-38 -9.33301 -57 -28 -57 -56zM3201 345.006c9.33301 -37.333 28 -56 56 -56h11c30.667 0 49.334 21 56 63v2c-8 40.667 -26.667 61 -56 61h-13c-25.333 0 -43.333 -16.667 -54 -50v-20zM3984 374.006h116v2c-10 26 -28.667 39 -56 39h-7c-22 0 -39.667 -13.667 -53 -41z
M4527 347.006c8 -38.667 27.334 -58 58 -58h5c33.334 0 54 18 62 54v9c-6 42 -24 63 -54 63h-15c-36 -8.66699 -54 -26.667 -54 -54zM4785 350.006c7.33398 -40.667 26.667 -61.001 58 -61.001h2c32.666 0 54 17 64 51v19c0 24.667 -16 43.334 -48 56.001h-20
c-30 0 -48.666 -21 -56 -63v-2zM5218 345.005c6.66602 -37.333 27.666 -56 63 -56c27.334 0 46.667 13.333 58 40l3 14v13c0 31.333 -16.666 51 -50 59h-18c-26.666 0 -45.333 -17.333 -56 -52v-18zM4568 215.005h49v-45h-49v45zM5258 215.005h49v-45h-49v45zM3915 53.0049
h4c22 0 35.667 -14.333 41 -43v-1c0 -9.33301 -7.66699 -21.333 -23 -36l-9 -14h-27c0 14 9 29.667 27 47l2 3v1c-2 11.333 -5 17 -9 17h-9c-4.66699 0 -7.66699 -5.66699 -9 -17h-29c4 28.667 17.667 43 41 43zM2779 38.0049l50 -52l-25 -16l-50 45zM1637 6.00488
l4 -0.000976562c47.333 -27.333 74.333 -44.666 81 -51.999l-20 -31c-55.333 28 -83 44.667 -83 50zM4639 6.00391l83 -49l-18 -34c-6 0 -35 15.667 -87 47c10 20.667 17.334 32.667 22 36zM5680 4.00391l19 -36l-88 -45l-19 34l88 49v-2zM2452 -15.9961h49v-16l5 -5h13v-31
h-13l-5 -4v-240h-45v27c-20.667 -23.333 -46.334 -35 -77 -35c-45.333 0 -78 30 -98 90l-2 23c0 58.667 32 96 96 112h14c20.667 0 41.667 -9 63 -27v50l-5 4h-42v31h47v21zM2716 -22.9961h38l54 -52h-51l-22 23l-21 -23h-52zM3827 -22.9961h31c8 0 28.333 -17.333 61 -52
h-52l-22 23c-12 -12 -18 -19.667 -18 -23h-56v3zM1347 -29.9961h153v-52h-54v-230h-47l-4 5v210l2 2v2l-2 2l2 3l-2 2l2 2l-2 2h-52v47zM1969 -29.9961h45v-63l2 -2l-2 -2v-3l2 -1l-2 -3v-2l2 -2v-2l-2 -3l2 -2h2c11.333 13.333 28 20 50 20h2c34 0 58.667 -16.667 74 -50
c4 -9.33301 6 -21.333 6 -36v-131h-49v109c0 38.667 -12.667 58 -38 58h-9c-26.667 0 -40 -24.333 -40 -73v-94h-50v277zM2541 -29.9961h45l5 -5v-42h-50v47zM3201 -29.9961h50v-170l67 99h60l-76 -102l87 -108v-1h-67c-6.66699 12 -30.334 45 -71 99v-99h-50v282z
M3472 -29.9961v-85.001c15.333 13.333 32.333 20 51 20c36.667 0 62.334 -15.667 77 -47c6 -11.333 9 -33.666 9 -66.999v-103h-51v114c0 35.333 -13 53 -39 53h-10c-20.667 0 -33 -15.333 -37 -46v-121h-49v271l-2 2v2l2 2l-2 3l2 2h49zM3652 -29.9971h49v-47h-49v47z
M4312 -29.9971l49 0.000976562v-92c17.334 18 39 27 65 27h3c48 0 81.334 -27 100 -81l5 -31c0 -42.667 -20.334 -77.334 -61 -104.001c-19.334 -6 -35 -9 -47 -9c-26 0 -49 11.667 -69 35v-27h-45v282zM5391 -29.9961h49v-85h2c14.666 13.333 32 20 52 20h2
c38.666 0 65 -21 79 -63l2 -36v-118h-50v95c0 47.333 -10.334 71 -31 71l-9 1h-11c-24 0 -36 -22.667 -36 -68v-99h-49v282zM1615 -94.9961h2v-50h-5c-26.667 0 -40 -16.333 -40 -49v-118h-50v211h45v-18c11.333 16 27.333 24 48 24zM1839 -94.9961
c46 0 73.667 -24.667 83 -74v-143h-49v117c-3.33301 33.333 -16.333 50 -39 50h-6c-28.667 0 -43 -24 -43 -72v-95h-50v211h48v-18c16 16 34.667 24 56 24zM2739 -94.9961c46 0 79.667 -27.001 101 -81.001l5 -33c-2 -14 -4.66699 -21 -8 -21h-161
c10.667 -26.667 30.334 -40 59 -40c16 0 31.333 6 46 18h55c-21.333 -45.333 -56 -68 -104 -68c-52 0 -88 30 -108 90v32c0 46.667 28.333 80.334 85 101.001zM3843 -94.9971h4c48.667 0 83 -27.667 103 -83l2 -22v-18l-2 -12h-163c11.333 -26.667 28.333 -40 51 -40h11
c13.333 0 26.666 6 40 18h57c-22 -45.333 -55.667 -68 -101 -68c-53.333 0 -90 29.333 -110 88l-2 25c0 53.333 29 90 87 110zM4089 -94.9971h4c34.666 0 59.666 -17 75 -51c4 -14 6 -37.667 6 -71v-95h-51v118c0 28 -11.334 44.333 -34 49h-11
c-24 0 -37.667 -16.333 -41 -49v-118h-51v211h47v-18c16 16 34.667 24 56 24zM4656 -94.9971h6c26 0 48.334 -11.333 67 -34h2v28h45v-211h-45v27h-2c-22 -23.333 -46.666 -35 -74 -35c-45.334 0 -77.667 25.667 -97 77l-4 32v11c0 46.667 24.666 80 74 100
c6.66602 3.33301 16 5 28 5zM4918 -94.9971h4c39.334 0 65.334 -22.333 78 -67l3 -72v-78h-52v118c0 28 -12 44.333 -36 49h-9c-24 0 -37.334 -14.667 -40 -44v-123h-52v211h47v-18c16.666 16 35.666 24 57 24zM5254 -94.9971h2c46.666 0 79.666 -26.333 99 -79l4 -35
c0 -50.667 -26.666 -86.667 -80 -108l-25 -3c-26 0 -47.666 10 -65 30v-92h-50v281h45v-26c19.334 21.333 42.667 32 70 32zM5810 -94.9971h5c22 0 42 -10.667 60 -32c17.334 21.333 39.334 32 66 32h6c36 0 61.334 -18.667 76 -56l6 -44v-117h-50v105
c0 41.333 -12.666 62 -38 62h-7c-22 0 -34.666 -14 -38 -42v-120l-5 -5h-47v121c0 24 -9.66602 39.333 -29 46h-16c-25.334 0 -38 -22 -38 -66v-101h-49v211h45v-18c14 16 31.666 24 53 24zM1643 -100.997h47l5 -5v-201l-5 -5h-47v211zM2541 -100.997h50v-211h-50v211z
M2878 -100.997h49v-117c2.66699 -34.667 16.334 -52 41 -52h4c28.667 0 43 23.333 43 70v99h49v-211h-44v20h-5c-8 -18.667 -27 -28 -57 -28c-33.333 0 -58.666 18 -76 54c-2.66699 7.33301 -4 17.333 -4 30v135zM3652 -100.997h49v-211h-49v211zM5620 -100.997h49v-211h-49
v211zM2330 -206.997c0 -30.667 16.333 -51.668 49 -63.001h12c34.667 0 55.667 19 63 57v9c0 30.667 -17.333 50.334 -52 59.001h-16c-24.667 0 -43.334 -16.333 -56 -49v-13zM2676 -184.998h117c-12 26.667 -29.333 40 -52 40h-6c-27.333 0 -47 -12.333 -59 -37v-3z
M3787 -184.998h116c-13.333 26.667 -30.333 40 -51 40h-7c-29.333 0 -48.666 -13.333 -58 -40zM4358 -197.998v-8.99902c6 -42 25.334 -63 58 -63h5c40.666 4.66699 61 25 61 61v5c0 25.333 -12 43.666 -36 54.999l-17 4h-14c-38 -7.33301 -57 -25 -57 -53zM4603 -210.997
c8.66602 -39.333 28.333 -59 59 -59h11c26 0 44.666 17.333 56 52v11c-5.33398 41.333 -23.334 62 -54 62h-16c-29.334 0 -48 -20.667 -56 -62v-4zM5187 -197.997v-18.998c0 -26.667 18.666 -44.334 56 -53.001h9c31.334 0 50.667 22 58 66
c-8.66602 39.333 -27.333 59 -56 59h-14c-35.334 -8.66699 -53 -26.334 -53 -53.001z" />
    <glyph glyph-name="space" unicode=" " horiz-adv-x="512" 
 />
    <glyph glyph-name="space" unicode="&#xa0;" horiz-adv-x="512" 
 />
    <glyph glyph-name="exclam" unicode="!" horiz-adv-x="598" 
d="M211 403l-51 639v498h276v-498l-53 -639h-172zM166 0v279h262v-279h-262z" />
    <glyph glyph-name="quotedbl" unicode="&#x22;" horiz-adv-x="678" 
d="M406 1438h192v-559h-192v559zM80 1438h192v-559h-192v559z" />
    <glyph glyph-name="numbersign" unicode="#" horiz-adv-x="1575" 
d="M709 848l-88 -244h251l86 244h-249zM709 1464h221l-146 -415h242l148 415h221l-148 -415h283l-74 -201h-280l-84 -242h290l-71 -200h-291l-148 -416h-221l148 416h-244l-149 -416h-220l146 416h-287l76 200h282l86 242h-299l74 201h297z" />
    <glyph glyph-name="dollar" unicode="$" 
d="M455 973l-1 356c-18 0 -34.5 -4.16699 -49.5 -12.5s-28.167 -20.166 -39.5 -35.499c-20.667 -28.667 -31 -67.334 -31 -116.001c0 -37.333 9.83301 -71.833 29.5 -103.5s50.167 -61.167 91.5 -88.5zM446 -201l-0.00195312 199.001c-60 0 -113.167 10.667 -159.5 32
s-86.166 51.666 -119.499 90.999c-62 74 -93 181.667 -93 323v39h243l-1 -24l-1 -23c0 -70 11.167 -124.167 33.5 -162.5s57.833 -61.833 106.5 -70.5v454c-130.667 72 -224.167 144.833 -280.5 218.5s-84.5 160.167 -84.5 259.5c0 115.333 31.333 207.333 94 276
c32.667 35.333 70.834 62.666 114.501 81.999s92.834 29 147.501 29v137h113v-139c112.667 0 200 -32 262 -96c60 -62 90 -153 90 -273v-29h-237v21c0 55.333 -11 99.833 -33 133.5s-52 50.5 -90 50.5v-409c150.667 -77.333 254.167 -152 310.5 -224
s84.5 -161.333 84.5 -268c0 -131.333 -33.333 -233.666 -100 -306.999c-34.667 -38 -75.834 -67.667 -123.501 -89s-102.167 -32 -163.5 -32v-199h-113zM550.998 203.001c44 8 77.833 27.5 101.5 58.5s35.5 72.167 35.5 123.5c0 49.333 -10 90.333 -30 123
s-55.667 66 -107 100v-405z" />
    <glyph glyph-name="percent" unicode="%" horiz-adv-x="1579" 
d="M1055 356c0 -89.333 8 -150.165 24 -182.498s46 -48.5 90 -48.5c43.333 0 74 15 92 45c16.667 31.333 25 92.666 25 183.999c0 85.333 -9 144.666 -27 177.999s-49.333 50 -94 50c-39.333 0 -67.5 -16.167 -84.5 -48.5s-25.5 -91.5 -25.5 -177.5zM852 360.001
c0 134 24.501 230.332 73.501 288.999s128.833 88 239.5 88c114 0 196.5 -29.167 247.5 -87.5s76.5 -154.166 76.5 -287.499c0 -135.333 -25.833 -234.333 -77.5 -297s-133.834 -94 -246.501 -94c-111.333 0 -191.333 30 -240 90s-73 159.667 -73 299zM291.001 1169
c0 -90 8.16699 -150.667 24.5 -182s46.5 -47 90.5 -47c43.333 0 73.5 15.333 90.5 46s25.5 91.667 25.5 183c0 84.667 -8.83301 143.5 -26.5 176.5s-49.167 49.5 -94.5 49.5c-39.333 0 -67.5 -16.167 -84.5 -48.5s-25.5 -91.5 -25.5 -177.5zM90.001 1176
c0 132.667 24.167 228.166 72.5 286.499s128.5 87.5 240.5 87.5c115.333 0 197.833 -28.667 247.5 -86s74.5 -152.666 74.5 -285.999c0 -138 -25.667 -238.167 -77 -300.5s-133 -93.5 -245 -93.5c-110.667 0 -190.5 30.167 -239.5 90.5s-73.5 160.833 -73.5 301.5z
M360.001 -29.001l705 1579h149l-706 -1579h-148z" />
    <glyph glyph-name="ampersand" unicode="&#x26;" horiz-adv-x="1348" 
d="M623 1055c35.333 28.667 62.501 58.333 81.501 89s28.5 63 28.5 97c0 36.667 -8.16699 64.667 -24.5 84s-40.833 29 -73.5 29s-58.334 -9.33301 -77.001 -28c-17.333 -18.667 -26 -45 -26 -79c0 -8 2 -18 6 -30l7.5 -17.5c3 -7 6.16699 -13.5 9.5 -19.5zM782.001 284.999
l-252 417c-46 -31.333 -81 -68.333 -105 -111s-36 -89.334 -36 -140.001c0 -69.333 20 -128.333 60 -177s88.333 -73 145 -73c32 0 62.833 6.33301 92.5 19s61.5 34.334 95.5 65.001zM942.001 -0.000976562l-50.998 97.998c-41.333 -41.333 -89.333 -72.5 -144 -93.5
s-117.334 -31.5 -188.001 -31.5c-135.333 0 -242.166 41.167 -320.499 123.5s-117.5 194.833 -117.5 337.5c0 92 21.333 173 64 243s119 146.667 229 230c-43.333 66.667 -74.333 125.334 -93 176.001s-28 99.334 -28 146.001c0 92.667 30.167 167.667 90.5 225
s140.166 86 239.499 86c106.667 0 189.167 -25.167 247.5 -75.5s87.5 -122.833 87.5 -217.5c0 -79.333 -18.333 -151.166 -55 -215.499s-91.334 -120.833 -164.001 -169.5l185 -317c12 33.333 21 70 27 110c2.66699 17.333 5 38.166 7 62.499s3 47.833 3 70.5v25h235
c0 -104.667 -11.667 -200 -35 -286c-20.667 -82 -52.667 -154.667 -96 -218l182 -309h-305z" />
    <glyph glyph-name="quotesingle" unicode="'" horiz-adv-x="352" 
d="M80 1438h192v-559h-192v559z" />
    <glyph glyph-name="parenleft" unicode="(" horiz-adv-x="674" 
d="M446 -389c-104 150 -180.832 308.332 -230.499 474.999s-74.5 350.334 -74.5 551.001c0 172 25.5 338.167 76.5 498.5s125.167 307.5 222.5 441.5h166c-64 -110 -112.667 -249.667 -146 -419s-50 -360 -50 -572c0 -106.667 4 -205.5 12 -296.5s20.667 -177.167 38 -258.5
c33.333 -158.667 84.666 -298.667 153.999 -420h-168z" />
    <glyph glyph-name="parenright" unicode=")" horiz-adv-x="674" 
d="M233 -389l-167.002 0.00195312c68.667 120 119.834 260.167 153.501 420.5s50.5 345.166 50.5 554.499c0 108.667 -4 210.167 -12 304.5s-20.667 184.166 -38 269.499c-32 168.667 -80.667 307.667 -146 417h166c96 -133.333 169.833 -280.833 221.5 -442.5
s77.5 -327.5 77.5 -497.5c0 -204 -24.667 -388.5 -74 -553.5s-126.666 -322.5 -231.999 -472.5z" />
    <glyph glyph-name="asterisk" unicode="*" 
d="M512 1008l-145 -201l-150 108l143 201l-233 76l57 178l236 -78v248h184v-248l236 78l57 -178l-233 -76l143 -201l-150 -108z" />
    <glyph glyph-name="plus" unicode="+" horiz-adv-x="1706" 
d="M752 1221h202v-510h498v-199h-498v-512h-202v512h-498v199h498v510z" />
    <glyph glyph-name="comma" unicode="," horiz-adv-x="512" 
d="M127 -301v104c42 4 75.667 22.5 101 55.5s38 74.833 38 125.5v16h-139v276h258v-278c0 -84.667 -23 -153.667 -69 -207s-109 -84 -189 -92z" />
    <glyph glyph-name="hyphen" unicode="-" horiz-adv-x="672" 
d="M92 459v239h488v-239h-488z" />
    <glyph glyph-name="hyphen" unicode="&#xad;" horiz-adv-x="672" 
d="M92 459v239h488v-239h-488z" />
    <glyph glyph-name="period" unicode="." horiz-adv-x="512" 
d="M127 0v276h258v-276h-258z" />
    <glyph glyph-name="slash" unicode="/" horiz-adv-x="629" 
d="M90 -190h-151l577 1767h152z" />
    <glyph glyph-name="zero" unicode="0" 
d="M649 633v416c0 120.667 -9.83301 198.834 -29.5 234.501s-55.5 53.5 -107.5 53.5s-87.833 -18.167 -107.5 -54.5s-29.5 -118.5 -29.5 -246.5v-147v-418c0 -122.667 9.66699 -201.5 29 -236.5s55.333 -52.5 108 -52.5c51.333 0 87 18.167 107 54.5s30 119.166 30 248.499
v148zM88 772c0 90.667 1.33398 169.831 4.00098 237.498s7 124.167 13 169.5c12 90.667 31.667 157.667 59 201c36 60 81.667 103.333 137 130s125.666 40 210.999 40c45.333 0 84.333 -3 117 -9s64 -16.333 94 -31c53.333 -26 99 -69.333 137 -130
c26.667 -43.333 46 -109.666 58 -198.999s18 -225.666 18 -408.999c0 -93.333 -1.33301 -174.5 -4 -243.5s-7 -126.167 -13 -171.5c-10 -88.667 -28.333 -155.667 -55 -201c-37.333 -64.667 -83.833 -111.667 -139.5 -141s-126.5 -44 -212.5 -44
c-87.333 0 -158.5 14.5 -213.5 43.5s-101.167 76.167 -138.5 141.5c-25.333 42.667 -44 107.667 -56 195c-5.33301 45.333 -9.33301 101.333 -12 168s-4 151 -4 253z" />
    <glyph glyph-name="one" unicode="1" 
d="M432 0v1085h-340v182c62 0 117.333 6.5 166 19.5s91.667 32.167 129 57.5c69.333 47.333 111 116 125 206h190v-1550h-270z" />
    <glyph glyph-name="two" unicode="2" 
d="M88 0l-0.999023 24.001l-1 25c0 118 24 231 72 339s122.333 214.333 223 319l80 78c66.667 63.333 111 111 133 143c19.333 28.667 34 60.834 44 96.501s15 75.834 15 120.501c0 65.333 -11.667 113.666 -35 144.999s-59.333 47 -108 47c-50.667 0 -88 -19.333 -112 -58
s-36 -100.334 -36 -185.001l1 -37l1 -23h-268l-1 27l-1 24c0 160 34.167 277.5 102.5 352.5s175.5 112.5 321.5 112.5c138 0 243.167 -33.667 315.5 -101s108.5 -164.666 108.5 -291.999c0 -60.667 -6.33301 -115.334 -19 -164.001s-33 -96.334 -61 -143.001
c-21.333 -36 -69 -91.667 -143 -167l-89 -92c-146.667 -162.667 -230.334 -277.667 -251.001 -345h545v-246h-836z" />
    <glyph glyph-name="three" unicode="3" 
d="M84 518h268v-18c0 -115.333 11.667 -195.833 35 -241.5s63.666 -68.5 120.999 -68.5c55.333 0 94.833 20.167 118.5 60.5s35.5 112.5 35.5 216.5s-14.167 172.667 -42.5 206s-83.166 50 -164.499 50l-45 -1l-35 -1v201h20c90.667 0 153.334 15.333 188.001 46
s52 87.667 52 171c0 76.667 -10.167 129.834 -30.5 159.501s-55.166 44.5 -104.499 44.5c-48 0 -82.667 -16.667 -104 -50c-10 -16 -17.667 -37.5 -23 -64.5s-8 -59.833 -8 -98.5v-36h-267c0 8.66699 -0.666992 15.667 -2 21v36c0 132 35 231.5 105 298.5
s173.667 100.5 311 100.5c127.333 0 225.666 -34.333 294.999 -103s104 -166.667 104 -294c0 -86 -15 -156.167 -45 -210.5s-74.333 -91.5 -133 -111.5c71.333 -18 124.666 -56.833 159.999 -116.5s53 -142.167 53 -247.5c0 -165.333 -36.833 -289.333 -110.5 -372
s-185.5 -124 -335.5 -124c-142 0 -247.167 39.667 -315.5 119s-102.5 201.666 -102.5 366.999l1 30z" />
    <glyph glyph-name="four" unicode="4" 
d="M276 528h287v627zM557 0v305h-487v246l456 971h293v-987h129v-230h-129v-305h-262z" />
    <glyph glyph-name="five" unicode="5" 
d="M80 494h265.998v-41c0 -89.333 13 -157.166 39 -203.499s65 -69.5 117 -69.5c52.667 0 91 27 115 81s36 141.667 36 263c0 110 -13.167 190.167 -39.5 240.5s-69.166 75.5 -128.499 75.5c-39.333 0 -71.666 -11.333 -96.999 -34s-40 -53 -44 -91h-250l41 807h729v-246
h-516l-16 -309c26.667 28.667 57.167 50.167 91.5 64.5s74.166 21.5 119.499 21.5c130 0 227.667 -42.5 293 -127.5s98 -212.5 98 -382.5c0 -199.333 -35 -344.833 -105 -436.5s-181.667 -137.5 -335 -137.5c-141.333 0 -245.666 39.667 -312.999 119
s-101 201.666 -101 366.999v39z" />
    <glyph glyph-name="six" unicode="6" 
d="M371 506c0 -119.333 10.666 -201.331 31.999 -245.998s58.333 -67 111 -67c52 0 88.167 19.667 108.5 59s30.5 122.666 30.5 249.999s-10 210.666 -30 249.999s-57 59 -111 59c-51.333 0 -87.666 -22.5 -108.999 -67.5s-32 -124.167 -32 -237.5zM370.999 936.002
c22 34 51.167 59.835 87.5 77.502s79.5 26.5 129.5 26.5c118 0 205.5 -39.667 262.5 -119s85.5 -202 85.5 -368c0 -212 -32.667 -362 -98 -450s-174.666 -132 -327.999 -132c-82.667 0 -150.834 13.5 -204.501 40.5s-99.5 70.833 -137.5 131.5c-28 46 -48 114.833 -60 206.5
s-18 226.5 -18 404.5c0 89.333 1.33301 167.666 4 234.999s7 124 13 170c12 92 31 161 57 207c36 63.333 83.833 109.833 143.5 139.5s134.5 44.5 224.5 44.5c119.333 0 211.333 -28.333 276 -85s97 -136.667 97 -240v-23h-266v15c0 41.333 -9.83301 72.666 -29.5 93.999
s-50.167 32 -91.5 32c-54 0 -92.333 -23.667 -115 -71c-10.667 -22.667 -19 -55.167 -25 -97.5s-9 -92.5 -9 -150.5l1 -43z" />
    <glyph glyph-name="seven" unicode="7" 
d="M272 0c0 62 5.16602 125.332 15.499 189.999s24.833 133.334 43.5 206.001c14 54 34.333 124 61 210c65.333 211.333 155.333 432 270 662h-578v254h852v-222c-103.333 -192.667 -186.666 -398.667 -249.999 -618c-22.667 -79.333 -42 -153 -58 -221
c-20 -84 -34.667 -159.667 -44 -227c-11.333 -80.667 -17 -158.667 -17 -234h-295z" />
    <glyph glyph-name="eight" unicode="8" 
d="M387 1139c0 -76 9.5 -129.168 28.5 -159.501s51.167 -45.5 96.5 -45.5s77.833 15.667 97.5 47s29.5 84 29.5 158s-10.167 126.5 -30.5 157.5s-53.833 46.5 -100.5 46.5c-43.333 0 -74.333 -15.667 -93 -47s-28 -83.666 -28 -156.999zM512 730.999
c-52 0 -88.1689 -19.332 -108.502 -57.999s-30.5 -117 -30.5 -235c0 -94 10.333 -158.333 31 -193s56.667 -52 108 -52c52.667 0 89.334 18.5 110.001 55.5s31 107.833 31 212.5c0 101.333 -10.667 171.666 -32 210.999s-57.666 59 -108.999 59zM316.998 834
c-64 19.333 -112.334 57.002 -145.001 113.002c-15.333 27.333 -27.333 59.666 -36 96.999s-13 78.333 -13 123c0 123.333 33.333 217.666 100 282.999s163.667 98 291 98s224.333 -33.333 291 -100s100 -163 100 -289c0 -89.333 -16.5 -160.333 -49.5 -213
s-84.167 -90 -153.5 -112c81.333 -16 140.333 -54.5 177 -115.5s55 -150.167 55 -267.5c0 -164.667 -34.333 -285.5 -103 -362.5s-175.667 -115.5 -321 -115.5c-142 0 -247.167 37.167 -315.5 111.5s-102.5 189.5 -102.5 345.5c0 122 17.833 214.833 53.5 278.5
s92.834 105.5 171.501 125.5z" />
    <glyph glyph-name="nine" unicode="9" 
d="M651 586c-22 -34.667 -51.334 -60.5 -88.001 -77.5s-81 -25.5 -133 -25.5c-118 0 -205.167 39.667 -261.5 119s-84.5 201.666 -84.5 366.999c0 210.667 31.667 360.167 95 448.5s169 132.5 317 132.5c89.333 0 161.833 -13.333 217.5 -40s101.834 -70.667 138.501 -132
c28 -44 48 -112 60 -204s18 -227.333 18 -406c0 -91.333 -1.33301 -171.333 -4 -240s-7 -125.667 -13 -171c-10 -90.667 -28.333 -157.667 -55 -201c-35.333 -62 -82 -108.333 -140 -139s-128.667 -46 -212 -46c-130 0 -227.667 28.167 -293 84.5s-98 140.833 -98 253.5v10
h268v-16c0 -39.333 10.5 -69.666 31.5 -90.999s50.833 -32 89.5 -32c54 0 92 23 114 69s33 131.667 33 257v80zM648.999 1020c0 120 -10.1689 201.499 -30.502 244.499s-57.166 64.5 -110.499 64.5c-52 0 -88.167 -19.667 -108.5 -59s-30.5 -122.666 -30.5 -249.999
c0 -130.667 9.83301 -214.834 29.5 -252.501s56.834 -56.5 111.501 -56.5c52 0 88.167 21.333 108.5 64s30.5 124.334 30.5 245.001z" />
    <glyph glyph-name="colon" unicode=":" horiz-adv-x="559" 
d="M152 862v277h256v-277h-256zM152 0v276h256v-276h-256z" />
    <glyph glyph-name="semicolon" unicode=";" horiz-adv-x="559" 
d="M152 -301v104c42 4 75.333 22.333 100 55s37 74.667 37 126v16h-137v276h256v-294c0 -73.333 -25 -138 -75 -194c-25.333 -28.667 -52.833 -50.667 -82.5 -66s-62.5 -23 -98.5 -23zM152 862v277h256v-277h-256z" />
    <glyph glyph-name="semicolon" unicode="&#x37e;" horiz-adv-x="559" 
d="M152 -301v104c42 4 75.333 22.333 100 55s37 74.667 37 126v16h-137v276h256v-294c0 -73.333 -25 -138 -75 -194c-25.333 -28.667 -52.833 -50.667 -82.5 -66s-62.5 -23 -98.5 -23zM152 862v277h256v-277h-256z" />
    <glyph glyph-name="less" unicode="&#x3c;" horiz-adv-x="1706" 
d="M1442 1194v-219l-893 -365l893 -364v-219l-1178 485v199z" />
    <glyph glyph-name="equal" unicode="=" horiz-adv-x="1706" 
d="M254 496h1198v-199h-1198v199zM254 926h1198v-199h-1198v199z" />
    <glyph glyph-name="greater" unicode="&#x3e;" horiz-adv-x="1706" 
d="M264 1194l1178 -483v-199l-1178 -485v219l895 364l-895 365v219z" />
    <glyph glyph-name="question" unicode="?" horiz-adv-x="1006" 
d="M358 1126l-249 0.000976562v39c0 132 33.833 233.667 101.5 305s164.834 107 291.501 107c121.333 0 217.5 -34.833 288.5 -104.5s106.5 -165.167 106.5 -286.5c0 -46.667 -5.16699 -89.667 -15.5 -129s-25.5 -75.666 -45.5 -108.999
c-24.667 -41.333 -62.334 -91 -113.001 -149s-84 -98.333 -100 -121c-23.333 -30.667 -40.833 -64.834 -52.5 -102.501s-17.5 -79.167 -17.5 -124.5l1 -19l1 -18h-241l-3 28v43c0 36.667 2 70.167 6 100.5s10.667 59.166 20 86.499c17.333 52 48.333 106.667 93 164l52 62
c89.333 103.333 134 203.333 134 300c0 53.333 -10.667 94 -32 122s-52 42 -92 42c-44.667 0 -78.167 -16.167 -100.5 -48.5s-33.5 -82.5 -33.5 -150.5v-37zM565 266.001v-266h-256v266h256z" />
    <glyph glyph-name="at" unicode="@" horiz-adv-x="2048" 
d="M1167 272c-36 -56 -78.1689 -97.166 -126.502 -123.499s-105.166 -39.5 -170.499 -39.5c-105.333 0 -185.5 28.833 -240.5 86.5s-82.5 142.167 -82.5 253.5c0 158.667 46.5 292.167 139.5 400.5s207.5 162.5 343.5 162.5c52.667 0 98.834 -11 138.501 -33
s72.167 -54.667 97.5 -98l53 98h178l-147 -598l-5 -23l-2 -18c0 -22 8 -39.667 24 -53c16.667 -11.333 40.334 -17 71.001 -17c14.667 0 28 1.33301 40 4s25.667 8 41 16c28 13.333 54.667 32 80 56c56.667 52.667 100 114.834 130 186.501s45 150.167 45 235.5
c0 159.333 -61.833 290.666 -185.5 393.999s-283.167 155 -478.5 155c-94.667 0 -182.5 -11.167 -263.5 -33.5s-154.167 -56.166 -219.5 -101.499c-112.667 -75.333 -199.667 -170.5 -261 -285.5s-92 -239.833 -92 -374.5c0 -203.333 69 -366.5 207 -489.5
s322.333 -184.5 553 -184.5c108.667 0 214.5 16.167 317.5 48.5s198.5 79.833 286.5 142.5l82 -117c-100.667 -74.667 -209 -131.834 -325 -171.501s-235 -59.5 -357 -59.5c-128.667 0 -246.334 16.333 -353.001 49c-54 16 -104.5 35.667 -151.5 59
s-91.833 51.333 -134.5 84c-102.667 79.333 -179.834 172.166 -231.501 278.499s-77.5 225.833 -77.5 358.5c0 112 17.5 218.667 52.5 320s86.5 192.666 154.5 273.999c98 120 216.333 211.167 355 273.5s293.334 93.5 464.001 93.5c56.667 0 110.667 -3.66699 162 -11
s103 -19 155 -35c100 -30 186.333 -72.667 259 -128c90 -70 157.167 -150.167 201.5 -240.5s66.5 -191.166 66.5 -302.499c0 -109.333 -21.833 -210.5 -65.5 -303.5s-106.5 -172.833 -188.5 -239.5c-44.667 -36 -95.667 -64.667 -153 -86
c-54.667 -19.333 -111.667 -29 -171 -29c-69.333 0 -122.5 14.333 -159.5 43s-55.5 69.667 -55.5 123zM1217 700.001c-8 54.667 -27.167 96 -57.5 124s-69.5 42 -117.5 42c-76 0 -142 -41.167 -198 -123.5s-84 -181.833 -84 -298.5c0 -60.667 13.5 -107.167 40.5 -139.5
s66.167 -48.5 117.5 -48.5c54.667 0 105 21 151 63s77.333 96.667 94 164z" />
    <glyph glyph-name="A" unicode="A" horiz-adv-x="1120" 
d="M430 618h244l-123 646zM18 0l347 1540h385l350 -1540h-309l-76 387h-330l-74 -387h-293z" />
    <glyph glyph-name="B" unicode="B" horiz-adv-x="1116" 
d="M410 219l118 0.000976562c74 0 126 18 156 54s45 99.333 45 190c0 93.333 -16.167 157.666 -48.5 192.999s-93.833 53 -184.5 53h-86v-490zM410 915.001h96.001c72 0 121.667 15.667 149 47s41 89 41 173c0 74.667 -13.833 126 -41.5 154s-79.834 42 -156.501 42h-88
v-416zM131.001 0.000976562v1540h461c132.667 0 231 -30.667 295 -92s96 -155.666 96 -282.999c0 -102 -15.667 -180.833 -47 -236.5s-79 -89.5 -143 -101.5c72 -10 128.167 -46 168.5 -108s60.5 -143.333 60.5 -244c0 -163.333 -34.333 -283.333 -103 -360
s-175 -115 -319 -115h-469z" />
    <glyph glyph-name="C" unicode="C" horiz-adv-x="1122" 
d="M743 549l279.005 -0.00195312l1 -30l1 -30c0 -178.667 -37.333 -311 -112 -397s-189.667 -129 -345 -129c-74.667 0 -137.834 9.33301 -189.501 28s-96.834 48.334 -135.501 89.001c-51.333 52 -87.833 125.333 -109.5 220s-32.5 257.334 -32.5 488.001
c0 160.667 6.16699 287.667 18.5 381s32.166 162.333 59.499 207c41.333 70 92.666 121 153.999 153s139.666 48 234.999 48c156 0 269.667 -40.833 341 -122.5s107 -212.167 107 -391.5h-278v37c0 84 -13.333 146.333 -40 187s-68 61 -124 61
c-68 0 -114.667 -28.5 -140 -85.5s-38 -213.5 -38 -469.5c0 -276 12 -444.333 36 -505s70.667 -91 140 -91c63.333 0 107.833 23.5 133.5 70.5s38.5 133.833 38.5 260.5v21z" />
    <glyph glyph-name="D" unicode="D" horiz-adv-x="1204" 
d="M412 227l127.001 0.000976562c65.333 0 110.666 4.5 135.999 13.5s46 25.167 62 48.5c26 40 44.833 95.333 56.5 166s17.5 181.667 17.5 333s-6.66699 260.666 -20 327.999s-36 118 -68 152c-16 17.333 -37.667 29.5 -65 36.5s-68.333 10.5 -123 10.5h-123v-1088z
M131.001 0.000976562v1540h461c93.333 0 168 -8 224 -24s102 -42 138 -78c54 -52 92 -118.667 114 -200c10.667 -39.333 19 -90.666 25 -153.999s9 -136.666 9 -219.999c0 -221.333 -7.5 -376.333 -22.5 -465s-40.5 -164.667 -76.5 -228s-86 -107.666 -150 -132.999
s-173 -38 -327 -38h-395z" />
    <glyph glyph-name="E" unicode="E" horiz-adv-x="1014" 
d="M131 0v1540h791v-256h-506v-356h471v-244h-471v-424h518v-260h-803z" />
    <glyph glyph-name="F" unicode="F" horiz-adv-x="1001" 
d="M131 0v1540h805v-252h-518v-364h489v-246h-489v-678h-287z" />
    <glyph glyph-name="G" unicode="G" horiz-adv-x="1206" 
d="M891 0l-20.999 169.997c-29.333 -74 -69.333 -127 -120 -159s-121 -48 -211 -48c-160 0 -273.167 61.167 -339.5 183.5s-99.5 345.833 -99.5 670.5c0 155.333 7.83301 278.333 23.5 369s40.167 160.334 73.5 209.001c40 60.667 93.167 105.834 159.5 135.501
s148.166 44.5 245.499 44.5c164 0 285.5 -39.167 364.5 -117.5s118.5 -199.5 118.5 -363.5v-39h-268v16c0 92 -17.167 161.5 -51.5 208.5s-85.5 70.5 -153.5 70.5c-82.667 0 -139.5 -32.333 -170.5 -97s-46.5 -234 -46.5 -508c0 -218 14.667 -363.5 44 -436.5
s82.333 -109.5 159 -109.5c76 0 130.167 26.333 162.5 79s48.5 140.334 48.5 263.001v53h-199v246h475v-840h-194z" />
    <glyph glyph-name="H" unicode="H" horiz-adv-x="1225" 
d="M131 0v1540h285v-604h393v604h285v-1540h-285v698h-393v-698h-285z" />
    <glyph glyph-name="I" unicode="I" horiz-adv-x="549" 
d="M131 0v1540h287v-1540h-287z" />
    <glyph glyph-name="J" unicode="J" horiz-adv-x="903" 
d="M25 487h261.999v-182c0 -39.333 8 -69.333 24 -90s41.333 -31 76 -31c36 0 61 11.5 75 34.5s21 76.5 21 160.5v70v1091h281v-1083c0 -109.333 -2.16699 -182.833 -6.5 -220.5s-11.833 -68.167 -22.5 -91.5c-27.333 -60 -70 -105.333 -128 -136s-132 -46 -222 -46
c-119.333 0 -209.166 30.833 -269.499 92.5s-90.5 153.167 -90.5 274.5v157z" />
    <glyph glyph-name="K" unicode="K" horiz-adv-x="1118" 
d="M131 0v1540h281v-643l350 643h319l-389 -639l414 -901h-315l-277 637l-102 -170v-467h-281z" />
    <glyph glyph-name="L" unicode="L" horiz-adv-x="999" 
d="M131 0v1540h287v-1278h518v-262h-805z" />
    <glyph glyph-name="M" unicode="M" horiz-adv-x="1548" 
d="M131 0v1540h432l211 -997l211 997h432v-1540h-274l6 1366l-287 -1366h-176l-287 1366l7 -1366h-275z" />
    <glyph glyph-name="N" unicode="N" horiz-adv-x="1221" 
d="M131 0v1540h295l401 -1077l-8 1077h271v-1540h-293l-404 1079l8 -1079h-270z" />
    <glyph glyph-name="O" unicode="O" horiz-adv-x="1202" 
d="M393 770c0 -254 14.832 -413.667 44.499 -479s84.5 -98 164.5 -98c77.333 0 130.833 32.167 160.5 96.5s44.5 224.5 44.5 480.5c0 256.667 -14.667 417.5 -44 482.5s-83.666 97.5 -162.999 97.5c-78.667 0 -133 -32.667 -163 -98
c-14.667 -32.667 -25.667 -88.667 -33 -168s-11 -184 -11 -314zM99.999 770c0 166.667 7.5 297.835 22.5 393.502s39.167 168.5 72.5 218.5c44 70 97.167 120 159.5 150s144.166 45 245.499 45c100 0 181.167 -14.833 243.5 -44.5s116.5 -79.834 162.5 -150.501
c31.333 -48.667 55 -122.667 71 -222c7.33301 -46.667 13 -103 17 -169s6 -139.667 6 -221c0 -166 -7.66699 -297.167 -23 -393.5s-39 -169.166 -71 -218.499c-45.333 -70.667 -99 -120.834 -161 -150.501s-143.667 -44.5 -245 -44.5c-100 0 -181.167 15 -243.5 45
s-116.166 80 -161.499 150c-32 49.333 -56 122.666 -72 219.999c-7.33301 47.333 -13 104 -17 170s-6 140 -6 222z" />
    <glyph glyph-name="P" unicode="P" horiz-adv-x="1116" 
d="M408 866h120c88.667 0 151.167 17.5 187.5 52.5s54.5 94.833 54.5 179.5c0 85.333 -16.333 144.5 -49 177.5s-95.667 49.5 -189 49.5h-124v-459zM131 0l0.00195312 1540h498c151.333 0 260.666 -34 327.999 -102c33.333 -34 58.333 -78.5 75 -133.5
s25 -121.833 25 -200.5c0 -152.667 -35.333 -266 -106 -340s-179.334 -111 -326.001 -111h-209v-653h-285z" />
    <glyph glyph-name="Q" unicode="Q" horiz-adv-x="1202" 
d="M668 203l-84.001 85.998l143 145l61 -63c8 56.667 12.667 91.834 14 105.501s2 31.834 2 54.501c0 23.333 0.833008 56.833 2.5 100.5s2.5 71.5 2.5 83.5c0 287.333 -14.667 465 -44 533s-84.333 102 -165 102c-78.667 0 -133 -32.667 -163 -98
c-14.667 -32.667 -25.667 -88.667 -33 -168s-11 -184 -11 -314c0 -250 13.833 -408.667 41.5 -476s78.834 -101 153.501 -101l30 2c10 0 26.667 2.66699 50 8zM855.999 13.998c-16 -8 -33.333 -15.167 -52 -21.5s-39.667 -11.833 -63 -16.5
c-44.667 -8.66699 -91.667 -13 -141 -13c-100 0 -181.167 15 -243.5 45s-116.166 80 -161.499 150c-32 50 -55.833 124.5 -71.5 223.5s-23.5 228.5 -23.5 388.5c0 166 7.66699 296.833 23 392.5s39.333 168.834 72 219.501c44 70 97.167 120 159.5 150
s144.166 45 245.499 45c100 0 181.167 -14.833 243.5 -44.5s116.5 -79.834 162.5 -150.501c31.333 -48.667 55 -123 71 -223c7.33301 -47.333 13 -103.5 17 -168.5s6 -138.5 6 -220.5c0 -172.667 -7.66699 -307.5 -23 -404.5s-39 -166.167 -71 -207.5l172 -172l-146 -148z
" />
    <glyph glyph-name="R" unicode="R" horiz-adv-x="1182" 
d="M408 889h165c82.667 0 140.334 16.833 173.001 50.5s49 93.167 49 178.5c0 76 -17.833 129.5 -53.5 160.5s-99.834 46.5 -192.501 46.5h-141v-436zM131 0l-0.00195312 1540h514c155.333 0 267 -31.667 335 -95c34 -31.333 59.667 -72.5 77 -123.5s26 -112.5 26 -184.5
c0 -100.667 -18 -179.334 -54 -236.001s-90.333 -90.667 -163 -102c68.667 -18 121.334 -56.167 158.001 -114.5s55 -135.166 55 -230.499v-20l8 -204c0 -27.333 1.83301 -52.5 5.5 -75.5s9.16699 -44.5 16.5 -64.5c12.667 -35.333 31.334 -65.333 56.001 -90h-340
c-8 26 -14 56.333 -18 91c-1.33301 14.667 -3 37 -5 67s-3 57.333 -3 82l-4 161v41c0 88.667 -19.167 149.834 -57.5 183.501s-115.5 50.5 -231.5 50.5h-98v-676h-277z" />
    <glyph glyph-name="S" unicode="S" horiz-adv-x="1122" 
d="M102 541l286.997 0.00195312v-99c0 -94 11.833 -158.333 35.5 -193s64.5 -52 122.5 -52c60.667 0 106.834 15.167 138.501 45.5s47.5 75.833 47.5 136.5c0 45.333 -11 84.5 -33 117.5s-69.667 75.833 -143 128.5l-147 104c-125.333 88 -205.5 160.667 -240.5 218
s-52.5 129.333 -52.5 216c0 128.667 38.333 229.834 115 303.501s182.334 110.5 317.001 110.5c141.333 0 250.333 -39 327 -117s115 -190 115 -336l-1 -34l-1 -21h-272v41c0 83.333 -13.667 143 -41 179s-72.333 54 -135 54c-46 0 -82.167 -13.333 -108.5 -40
s-39.5 -64.334 -39.5 -113.001c0 -63.333 59 -135 177 -215l3 -2l158 -107c112 -74 188.167 -144.333 228.5 -211s60.5 -151.334 60.5 -254.001c0 -140 -40 -248 -120 -324s-194.333 -114 -343 -114c-153.333 0 -268.166 40.167 -344.499 120.5
s-114.5 202.166 -114.5 365.499l4 86v6z" />
    <glyph glyph-name="T" unicode="T" horiz-adv-x="987" 
d="M350 0v1286h-330v254h947v-254h-330v-1286h-287z" />
    <glyph glyph-name="U" unicode="U" horiz-adv-x="1223" 
d="M131 1540h287v-1038c0 -118 14.5 -198.333 43.5 -241s80.5 -64 154.5 -64c72.667 0 123.334 21.5 152.001 64.5s43 124.5 43 244.5v1034h283v-1063c0 -102 -5.66699 -177 -17 -225s-31 -90.333 -59 -127c-40.667 -53.333 -95.334 -94 -164.001 -122
c-34.667 -13.333 -71.667 -23.333 -111 -30s-83 -10 -131 -10c-175.333 0 -299.333 38 -372 114s-109 209.333 -109 400v1063z" />
    <glyph glyph-name="V" unicode="V" horiz-adv-x="1120" 
d="M373 0l-346 1540h307l229 -1229l207 1229h303l-323 -1540h-377z" />
    <glyph glyph-name="W" unicode="W" horiz-adv-x="1677" 
d="M336 0l-299 1540h297l188 -1167l201 1167h238l221 -1190l164 1190h294l-280 -1540h-340l-178 973l-164 -973h-342z" />
    <glyph glyph-name="X" unicode="X" horiz-adv-x="1122" 
d="M18 0l377 786l-358 754h323l205 -485l209 485h320l-371 -754l381 -786h-324l-223 514l-227 -514h-312z" />
    <glyph glyph-name="Y" unicode="Y" horiz-adv-x="1126" 
d="M422 0v653l-404 887h318l233 -579l230 579h309l-397 -887v-653h-289z" />
    <glyph glyph-name="Z" unicode="Z" horiz-adv-x="991" 
d="M61 0v260l541 1040h-514v240h819v-237l-534 -1043h557v-260h-869z" />
    <glyph glyph-name="bracketleft" unicode="[" horiz-adv-x="672" 
d="M160 -418v1958h411v-170h-159v-1618h159v-170h-411z" />
    <glyph glyph-name="backslash" unicode="\" horiz-adv-x="629" 
d="M516 -190l-577 1767h151l578 -1767h-152z" />
    <glyph glyph-name="bracketright" unicode="]" horiz-adv-x="672" 
d="M489 1540v-1958h-411v170h162v1618h-162v170h411z" />
    <glyph glyph-name="asciicircum" unicode="^" horiz-adv-x="2048" 
d="M897 1460h252l481 -561h-235l-371 371l-373 -371h-235z" />
    <glyph glyph-name="underscore" unicode="_" 
d="M0 -279h1024v-204h-1024v204z" />
    <glyph glyph-name="grave" unicode="`" 
d="M653 1280h-125l-305 285h256z" />
    <glyph glyph-name="a" unicode="a" horiz-adv-x="993" 
d="M627 606c-100 -50 -168 -95.334 -204 -136.001s-54 -88 -54 -142c0 -51.333 9.5 -89.166 28.5 -113.499s48.833 -36.5 89.5 -36.5c46 0 80.833 20.333 104.5 61s35.5 101.667 35.5 183v184zM664 -0.000976562c-5.33301 7.33301 -10.667 20.332 -16 38.999l-13 73
c-27.333 -45.333 -63.333 -80.5 -108 -105.5s-96.667 -37.5 -156 -37.5c-88 0 -156.5 29.833 -205.5 89.5s-73.5 141.834 -73.5 246.501c0 94.667 21.333 170 64 226s128 113 256 171l54 24c104.667 44 157 96.333 157 157c0 36 -10.167 64 -30.5 84s-49.833 30 -88.5 30
c-48 0 -83.667 -13.167 -107 -39.5s-35 -66.833 -35 -121.5v-23h-260c0 130 32 224.667 96 284s166 89 306 89s238.5 -27.333 295.5 -82s85.5 -149.667 85.5 -285v-653c0 -31.333 3 -60.333 9 -87s16 -53 30 -79h-260z" />
    <glyph glyph-name="b" unicode="b" horiz-adv-x="995" 
d="M516 963c-52.667 0 -89.002 -25.332 -109.002 -75.999s-30 -169.667 -30 -357c0 -144.667 9.83301 -237.5 29.5 -278.5s56.167 -61.5 109.5 -61.5c46.667 0 78.834 22.833 96.501 68.5s26.5 151.167 26.5 316.5c0 87.333 -2 157.166 -6 209.499s-10.667 89.833 -20 112.5
c-17.333 44 -49.666 66 -96.999 66zM116.998 0.000976562v1540h268v-481c22 43.333 51.667 75.666 89 96.999s83.333 32 138 32c110 0 187.333 -44.5 232 -133.5s67 -249.5 67 -481.5c0 -224.667 -22.833 -381.5 -68.5 -470.5s-124.5 -133.5 -236.5 -133.5
c-57.333 0 -105.333 12.833 -144 38.5s-69 63.5 -91 113.5v-121h-254z" />
    <glyph glyph-name="c" unicode="c" horiz-adv-x="930" 
d="M846 454l1.00391 -25.998l1 -39c0 -144 -30.333 -250 -91 -318s-155.334 -102 -284.001 -102c-144 0 -245.167 43.167 -303.5 129.5s-87.5 246.166 -87.5 479.499c0 234 29 394.167 87 480.5s159.333 129.5 304 129.5c127.333 0 221.333 -31.833 282 -95.5
s91 -161.5 91 -293.5v-41h-256v26c0 69.333 -9 119.666 -27 150.999c-8.66699 14.667 -20.334 26 -35.001 34s-32.334 12 -53.001 12c-40.667 0 -70.334 -15 -89.001 -45s-28 -80 -28 -150v-399c0 -40 2 -73.667 6 -101s10.667 -49 20 -65c17.333 -31.333 47 -47 89 -47
c44.667 0 76 18 94 54s27 103.333 27 202v25z" />
    <glyph glyph-name="d" unicode="d" horiz-adv-x="995" 
d="M356 596c0 -90.667 2 -163.499 6 -218.499s10.667 -94.5 20 -118.5c17.333 -46 49.666 -69 96.999 -69c52.667 0 89 20.5 109 61.5s30 125.167 30 252.5c0 203.333 -9.83301 330.666 -29.5 381.999s-56.167 77 -109.5 77c-45.333 0 -77.166 -22 -95.499 -66
s-27.5 -144.333 -27.5 -301zM625 121.001c-22 -50.667 -52.665 -88.668 -91.998 -114.001s-87.333 -38 -144 -38c-110.667 0 -189.167 44.167 -235.5 132.5s-69.5 245.5 -69.5 471.5c0 232.667 22.333 393.334 67 482.001s122 133 232 133
c55.333 0 101.166 -10.5 137.499 -31.5s66.166 -53.5 89.499 -97.5v481h269v-1540h-254v121z" />
    <glyph glyph-name="e" unicode="e" horiz-adv-x="975" 
d="M358 725h260v49c0 79.333 -9.66699 134 -29 164s-53.333 45 -102 45c-46.667 0 -80.167 -15.333 -100.5 -46s-30.5 -85 -30.5 -163l1 -17zM627 397l252.002 0.000976562l1 -23l1 -22c0 -132.667 -31.5 -229.667 -94.5 -291s-162.833 -92 -299.5 -92
c-71.333 0 -131.333 9 -180 27s-89 46 -121 84c-36.667 43.333 -63 99.666 -79 168.999c-7.33301 33.333 -13 80.666 -17 141.999s-6 136.333 -6 225c0 142 6.66699 242.833 20 302.5s36.333 109.334 69 149.001s75.667 69.5 129 89.5c27.333 10 56.833 17.667 88.5 23
s66.167 8 103.5 8c70.667 0 132.167 -10.833 184.5 -32.5s95.166 -54.5 128.499 -98.5c28 -37.333 48.333 -86 61 -146c6 -28.667 10.667 -66.667 14 -114s5 -103.333 5 -168v-88h-526l-3 -28v-46c0 -110 10 -187 30 -231s54.667 -66 104 -66c47.333 0 81.666 18 102.999 54
s32 93.667 32 173z" />
    <glyph glyph-name="f" unicode="f" horiz-adv-x="563" 
d="M141 0l0.000976562 958h-104v199h104v115c0 98.667 19 169 57 211s101.667 63 191 63h26.5c8.33301 0 19.166 -0.666992 32.499 -2h41c13.333 -2 23 -3.33301 29 -4v-201l-14 1l-12 1c-28.667 0 -49.5 -6.16699 -62.5 -18.5s-19.5 -31.833 -19.5 -58.5v-107h108v-199
h-108v-958h-269z" />
    <glyph glyph-name="g" unicode="g" horiz-adv-x="995" 
d="M879 92c0 -101.333 -4.83105 -175.668 -14.498 -223.001s-26.167 -87.666 -49.5 -120.999c-30 -44 -75 -77.833 -135 -101.5s-131.667 -35.5 -215 -35.5c-114 0 -201.667 22.333 -263 67c-30.667 22.667 -53.834 50 -69.501 82s-23.5 69.667 -23.5 113h265
c2 -21.333 11.333 -39 28 -53c18 -12.667 41.667 -19 71 -19c50 0 85.333 15.667 106 47s31 88 31 170v80c-22 -43.333 -51.5 -75.666 -88.5 -96.999s-80.5 -32 -130.5 -32c-113.333 0 -192.833 43.167 -238.5 129.5s-68.5 248.166 -68.5 485.499
c0 224.667 23 381.667 69 471c22.667 43.333 53.834 76.333 93.501 99s87.167 34 142.5 34c57.333 0 105.166 -12.5 143.499 -37.5s69.166 -63.167 92.499 -114.5v121h254v-1065zM479.002 966.998c-46.667 0 -78.833 -23.3311 -96.5 -69.998s-26.5 -159.334 -26.5 -338.001
c0 -80 2 -144.333 6 -193s10.667 -84.334 20 -107.001c18 -42.667 50.333 -64 97 -64c52.667 0 89 25 109 75s30 177.667 30 383c0 127.333 -9.83301 211.5 -29.5 252.5s-56.167 61.5 -109.5 61.5z" />
    <glyph glyph-name="h" unicode="h" horiz-adv-x="993" 
d="M117 0l0.000976562 1540h266v-493c22.667 43.333 55 77.666 97 102.999s89 38 141 38c83.333 0 147.5 -24.167 192.5 -72.5s67.5 -117.166 67.5 -206.499v-909h-258v776c0 71.333 -7.83301 119.5 -23.5 144.5s-42.834 37.5 -81.501 37.5c-47.333 0 -82 -16.333 -104 -49
c-10 -16 -17.667 -38.167 -23 -66.5s-8 -63.5 -8 -105.5v-737h-266z" />
    <glyph glyph-name="i" unicode="i" horiz-adv-x="496" 
d="M115 1300v240h266v-240h-266zM115 0v1157h266v-1157h-266z" />
    <glyph glyph-name="j" unicode="j" horiz-adv-x="514" 
d="M133 1300v240h264v-240h-264zM37 -385l0.000976562 219.001c41.333 0 68 6.16699 80 18.5s18 47.166 18 104.499v1200h262v-1204c0 -150.667 -18 -245.667 -54 -285s-108.667 -59 -218 -59h-15h-13c-6.66699 1.33301 -11.334 2 -14.001 2h-26
c-9.33301 2 -16 3.33301 -20 4z" />
    <glyph glyph-name="k" unicode="k" horiz-adv-x="885" 
d="M117 0v1540h260v-805l239 422h281l-289 -442l293 -715h-291l-168 463l-65 -103v-360h-260z" />
    <glyph glyph-name="l" unicode="l" horiz-adv-x="496" 
d="M115 0v1540h266v-1540h-266z" />
    <glyph glyph-name="m" unicode="m" horiz-adv-x="1538" 
d="M119 0l-0.000976562 1157h248v-133c30 60 66.5 102.333 109.5 127s99.833 37 170.5 37c55.333 0 104.333 -12.833 147 -38.5s73 -61.5 91 -107.5c34.667 52 73 89.333 115 112s92.333 34 151 34c90.667 0 159.334 -25.333 206.001 -76s70 -125 70 -223v-889h-262v739
c0 91.333 -9.33301 150.333 -28 177s-53 40 -103 40c-46 0 -79 -15.333 -99 -46s-30 -85.667 -30 -165v-745h-264v752c0 78 -9.33301 131.5 -28 160.5s-50.334 43.5 -95.001 43.5c-47.333 0 -81.666 -15.5 -102.999 -46.5s-32 -82.167 -32 -153.5v-756h-264z" />
    <glyph glyph-name="n" unicode="n" horiz-adv-x="993" 
d="M117 0v1157h262v-117c27.333 47.333 61.5 83.833 102.5 109.5s87.5 38.5 139.5 38.5c83.333 0 147.5 -24.167 192.5 -72.5s67.5 -117.166 67.5 -206.499v-909h-258v776c0 68.667 -8.66699 116.667 -26 144s-46.333 41 -87 41c-44 0 -75.833 -17.167 -95.5 -51.5
s-29.5 -91.833 -29.5 -172.5v-737h-268z" />
    <glyph glyph-name="o" unicode="o" horiz-adv-x="979" 
d="M356 590v-27c0 -178 9 -287.333 27 -328s52.667 -61 104 -61c53.333 0 89.333 18.667 108 56c9.33301 19.333 16.333 53 21 101s7 112.333 7 193v47v66c0 152 -9.66699 247 -29 285c-18 39.333 -53 59 -105 59c-50 0 -84.667 -18 -104 -54s-29 -121.667 -29 -257v-80z
M82 578c0 232.667 30.167 392.501 90.5 479.501s165.833 130.5 316.5 130.5c152 0 258 -43.167 318 -129.5s90 -246.5 90 -480.5c0 -232.667 -30 -392.334 -90 -479.001s-166 -130 -318 -130c-150 0 -255.333 43 -316 129s-91 246 -91 480z" />
    <glyph glyph-name="p" unicode="p" horiz-adv-x="995" 
d="M377 627c0 -188.667 9.83203 -307.834 29.499 -357.501s56.167 -74.5 109.5 -74.5c46.667 0 78.834 21.833 96.501 65.5s26.5 150.834 26.5 321.501c0 84.667 -2 152.834 -6 204.501s-10.667 89.167 -20 112.5c-17.333 45.333 -49.666 68 -96.999 68
c-52.667 0 -89.334 -20.667 -110.001 -62c-10 -20.667 -17.333 -53.334 -22 -98.001s-7 -104.667 -7 -180zM116.999 -389v1546h254v-121c21.333 50 52 87.833 92 113.5s87.667 38.5 143 38.5c111.333 0 190 -44.167 236 -132.5s69 -245.5 69 -471.5
c0 -233.333 -22.167 -394.166 -66.5 -482.499s-121.833 -132.5 -232.5 -132.5c-55.333 0 -101 10.5 -137 31.5s-66 53.5 -90 97.5v-487h-268z" />
    <glyph glyph-name="q" unicode="q" horiz-adv-x="995" 
d="M479 967c-46.667 0 -78.833 -23.3311 -96.5 -69.998s-26.5 -159.334 -26.5 -338.001c0 -80 2 -144.333 6 -193s10.667 -84.334 20 -107.001c18 -42.667 50.333 -64 97 -64c52.667 0 89 25 109 75s30 177.667 30 383c0 127.333 -9.83301 211.5 -29.5 252.5
s-56.167 61.5 -109.5 61.5zM610.001 98.002c-22 -43.333 -51.666 -75.668 -88.999 -97.001s-83.333 -32 -138 -32c-109.333 0 -186.5 44.333 -231.5 133s-67.5 249.334 -67.5 482.001c0 224.667 23 381.667 69 471c22.667 43.333 53.834 76.333 93.501 99
s87.167 34 142.5 34c57.333 0 105.166 -12.5 143.499 -37.5s69.166 -63.167 92.499 -114.5v121h254v-1546h-269v487z" />
    <glyph glyph-name="r" unicode="r" horiz-adv-x="692" 
d="M119 0v1157h256v-188c35.333 76.667 74.5 132.167 117.5 166.5s93.833 51.5 152.5 51.5v-325l-30 3l-37 1c-56 0 -101.167 -17.167 -135.5 -51.5s-51.5 -79.833 -51.5 -136.5v-678h-272z" />
    <glyph glyph-name="s" unicode="s" horiz-adv-x="901" 
d="M76 385l241 0.000976562v-33c0 -65.333 10 -112.333 30 -141s54 -43 102 -43c36.667 0 65.834 10 87.501 30s32.5 47.667 32.5 83c0 43.333 -43 94 -129 152l-51 34l-13 9c-196 134 -294 266 -294 396c0 102 31.833 180.167 95.5 234.5s156.167 81.5 277.5 81.5
c116.667 0 204.667 -30 264 -90c29.333 -30 51.333 -67.167 66 -111.5s22 -97.5 22 -159.5v-24h-236v24c0 56.667 -10.667 97.834 -32 123.501s-55 38.5 -101 38.5c-32.667 0 -59.167 -9.16699 -79.5 -27.5s-30.5 -42.5 -30.5 -72.5c0 -28.667 9 -54.334 27 -77.001
s57.333 -54.334 118 -95.001l61 -41c194 -128 291 -256.333 291 -385c0 -101.333 -32.833 -180.333 -98.5 -237s-159.167 -85 -280.5 -85c-126.667 0 -220.334 30 -281.001 90s-91 153.667 -91 281l1 22z" />
    <glyph glyph-name="t" unicode="t" horiz-adv-x="557" 
d="M399 428v-78c0 -62.667 6 -102.167 18 -118.5s33.333 -24.5 64 -24.5h17l12 1v-208l-91 -8l-52 -2c-90.667 0 -152.667 18 -186 54s-50 109.333 -50 220v694h-104v199h104v316h268v-316h111v-199h-111v-530z" />
    <glyph glyph-name="u" unicode="u" horiz-adv-x="991" 
d="M877 1157l0.00195312 -1157h-263v115c-26.667 -48 -61 -84.333 -103 -109c-19.333 -11.333 -41 -20.333 -65 -27s-49 -10 -75 -10c-84.667 0 -148.834 23.833 -192.501 71.5s-65.5 116.834 -65.5 207.501v909h258v-756c0 -77.333 8.66699 -130.333 26 -159
s46.666 -43 87.999 -43c44 0 75.5 16.333 94.5 49s28.5 89.334 28.5 170.001v739h269z" />
    <glyph glyph-name="v" unicode="v" horiz-adv-x="909" 
d="M291 0l-268 1157h284l154 -885l147 885h277l-267 -1157h-327z" />
    <glyph glyph-name="w" unicode="w" horiz-adv-x="1341" 
d="M274 0l-247 1157h280l123 -856l131 856h219l156 -868l111 868h266l-223 -1157h-287l-131 688l-105 -688h-293z" />
    <glyph glyph-name="x" unicode="x" horiz-adv-x="895" 
d="M14 0l305 592l-292 565h305l125 -289l125 289h292l-286 -565l293 -592h-297l-133 309l-134 -309h-303z" />
    <glyph glyph-name="y" unicode="y" horiz-adv-x="909" 
d="M176 -379l0.00195312 200.001h17l26 -1c38 0 65.667 6.16699 83 18.5s26 32.166 26 59.499l-3 31l-3 18c-0.666992 4 -2.33398 9.66699 -5.00098 17l-297 1193h283l160 -835l155 835h271l-301 -1266c-26 -110 -61.333 -183.833 -106 -221.5
s-115.334 -56.5 -212.001 -56.5h-16c-6 0 -11.5 0.166992 -16.5 0.5s-9.5 0.833008 -13.5 1.5z" />
    <glyph glyph-name="z" unicode="z" horiz-adv-x="784" 
d="M43 0v213l391 719h-387v225h688v-194l-403 -736h407v-227h-696z" />
    <glyph glyph-name="braceleft" unicode="{" 
d="M883 1477l-0.000976562 -209l-25 1l-22 1c-66 0 -111.167 -12.833 -135.5 -38.5s-36.5 -79.834 -36.5 -162.501v-240c0 -98 -14.833 -167.5 -44.5 -208.5s-83.834 -71.167 -162.501 -90.5c78 -18 132 -47.167 162 -87.5s45 -110.166 45 -209.499v-241
c0 -82 11.667 -135.667 35 -161s69 -38 137 -38l22 1l25 1v-209l-39 -1l-37 -1c-65.333 0 -120.666 4 -165.999 12s-83.666 20.333 -114.999 37c-38.667 22 -65.667 52.5 -81 91.5s-23 105.5 -23 199.5v252c0 90 -17.167 154.5 -51.5 193.5s-91.5 58.5 -171.5 58.5l-20 -1
l-21 -1v209l21 -1l20 -1c80 0 137 19.333 171 58c17.333 19.333 30.333 45 39 77s13 71.667 13 119v250c0 96.667 7.66699 163.667 23 201s42.333 68 81 92c30 15.333 67.5 27.333 112.5 36s101.167 13 168.5 13l37 -1z" />
    <glyph glyph-name="bar" unicode="|" 
d="M410 1565h206v-2048h-206v2048z" />
    <glyph glyph-name="braceright" unicode="}" 
d="M143 1477l68.002 0.000976562c72.667 0 131.667 -4 177 -12s82.666 -20.667 111.999 -38c37.333 -20.667 64 -51 80 -91s24 -106.333 24 -199v-252c0 -90.667 17 -155.334 51 -194.001s91.333 -58 172 -58l20 1l21 1v-209h-37c-82.667 0 -141.167 -18.667 -175.5 -56
s-51.5 -102 -51.5 -194v-252c0 -94.667 -7.83301 -161.5 -23.5 -200.5s-42.5 -69.167 -80.5 -90.5c-30 -15.333 -67.5 -27.333 -112.5 -36s-101.167 -13 -168.5 -13l-37 1l-39 1v209l25 -1l22 -1c66.667 0 112 12.833 136 38.5s36 79.167 36 160.5v239
c0 99.333 15 169.5 45 210.5s84 70.5 162 88.5c-78.667 18 -132.834 47.667 -162.501 89s-44.5 111.333 -44.5 210v242c0 80.667 -11.833 134 -35.5 160s-69.167 39 -136.5 39l-22 -1l-25 -1v209z" />
    <glyph glyph-name="asciitilde" unicode="~" horiz-adv-x="1706" 
d="M1530 803v-221c-70 -47.333 -135.667 -82.166 -197 -104.499s-122 -33.5 -182 -33.5c-24 0 -40.667 0.5 -50 1.5s-22.833 3 -40.5 6s-33.334 6.16699 -47.001 9.5s-29.167 8 -46.5 14l-71 25c-146 50 -257 75 -333 75c-28.667 0 -57.5 -3 -86.5 -9
s-59.5 -15.667 -91.5 -29c-62.667 -24.667 -131.667 -64.334 -207 -119.001v221c68.667 46.667 135.834 82.167 201.501 106.5s127.5 36.5 185.5 36.5c78.667 0 175.667 -19.333 291 -58l4 -1l55 -19c104.667 -36.667 184.667 -55 240 -55c27.333 0 55.666 3 84.999 9
s59.333 15.333 90 28c58.667 23.333 125.334 62.333 200.001 117z" />
    <glyph glyph-name="sterling" unicode="&#xa3;" 
d="M147 -29l-75.001 192.999c63.333 44 113.666 96.667 150.999 158s56 123.333 56 186c0 18 -0.333008 30.5 -1 37.5s-2 17.833 -4 32.5c0 13.333 -1.66699 27.666 -5 42.999l-7 32h-190v142h127c-30 48 -53.333 101.333 -70 160s-25 119.334 -25 182.001
c0 125.333 39.167 225.5 117.5 300.5s183.5 112.5 315.5 112.5c138 0 242.333 -34.333 313 -103s106 -170 106 -304l-1 -40l-1 -26h-256v37c0 77.333 -13.167 134.5 -39.5 171.5s-66.833 55.5 -121.5 55.5c-50.667 0 -90 -18.667 -118 -56s-42 -90.333 -42 -159
c0 -46 8 -98 24 -156s39.333 -116.333 70 -175h291v-142h-242l9 -43l3 -43c0 -61.333 -18.667 -124.333 -56 -189s-93.666 -128 -168.999 -190c36.667 20 71 35 103 45s64 15 96 15c18 0 35.667 -1.33301 53 -4s42.333 -8 75 -16c58 -12.667 100 -19 126 -19
c24.667 0 50.334 4.83301 77.001 14.5s57 25.834 91 48.501l59 -223c-32.667 -23.333 -70 -41.5 -112 -54.5s-86 -19.5 -132 -19.5s-110.833 10 -194.5 30s-143.5 30 -179.5 30c-32.667 0 -66.667 -5 -102 -15s-75.333 -26.333 -120 -49z" />
    <glyph glyph-name="currency" unicode="&#xa4;" horiz-adv-x="1014" 
 />
    <glyph glyph-name="yen" unicode="&#xa5;" horiz-adv-x="1262" 
 />
    <glyph glyph-name="brokenbar" unicode="&#xa6;" horiz-adv-x="1014" 
 />
    <glyph glyph-name="section" unicode="&#xa7;" 
d="M635 500c23.333 14 41.667 31 55 51c12.667 21.333 19 43.666 19 66.999c0 20.667 -5.83301 39.834 -17.5 57.501s-35.167 39.5 -70.5 65.5l-224 164c-26 -13.333 -46.167 -28.833 -60.5 -46.5s-21.5 -36.167 -21.5 -55.5c0 -51.333 78 -132 234 -242zM119.001 164
h253.999l-1 -15l-1 -16c0 -43.333 11 -77 33 -101c22.667 -22.667 56.667 -34 102 -34c44 0 76.5 9.16699 97.5 27.5s31.5 47.5 31.5 87.5c0 24 -7 46 -21 66s-47.333 49.667 -100 89l-248 187c-74 54 -123.833 103.333 -149.5 148s-38.5 96.334 -38.5 155.001
c0 64.667 16 119 48 163s79.333 75 142 93c-38.667 26.667 -67.667 59.667 -87 99s-29 85.333 -29 138c0 104 33.667 184.333 101 241s162.666 85 285.999 85c116 0 205 -27 267 -81s93 -132 93 -234l-1 -16l-1 -17h-250v14c0 46 -9.66699 79.667 -29 101
c-18 21.333 -48 32 -90 32s-72.167 -7.66699 -90.5 -23s-27.5 -39.666 -27.5 -72.999c0 -55.333 45 -115 135 -179l22 -16l150 -106c92.667 -64.667 154 -120.334 184 -167.001s45 -102.334 45 -167.001c0 -66 -15.5 -119.333 -46.5 -160s-78.167 -70 -141.5 -88
c42.667 -24.667 74.834 -61.167 96.501 -109.5s32.5 -108.833 32.5 -181.5c0 -105.333 -33.333 -185 -100 -239c-33.333 -26.667 -74.333 -46.667 -123 -60s-107 -20 -175 -20c-125.333 0 -218.666 27.333 -279.999 82s-92 138.667 -92 252l1 20z" />
    <glyph glyph-name="copyright" unicode="&#xa9;" horiz-adv-x="1706" 
d="M1212 897l-188.001 -0.000976562c-5.33301 46.667 -23 82.834 -53 108.501s-69.667 38.5 -119 38.5c-59.333 0 -106.666 -27.5 -141.999 -82.5s-53 -130.5 -53 -226.5c0 -98 17.167 -172.667 51.5 -224s84.833 -77 151.5 -77c48 0 86.667 13.833 116 41.5
s47.333 67.5 54 119.5l193 1c0 -44 -9.5 -84.833 -28.5 -122.5s-45.833 -71.167 -80.5 -100.5c-67.333 -56 -154 -84 -260 -84c-124 0 -221.833 39.333 -293.5 118s-107.5 186 -107.5 322c0 137.333 36.5 246.833 109.5 328.5s170.833 122.5 293.5 122.5
c100.667 0 184 -26 250 -78c34 -26.667 60.167 -57 78.5 -91s27.5 -72 27.5 -114zM853.999 1356c-86 0 -165.998 -15.332 -239.998 -45.999c-38.667 -16 -73.667 -34.5 -105 -55.5s-62.333 -47.167 -93 -78.5c-58.667 -59.333 -103.834 -127.166 -135.501 -203.499
s-47.5 -155.5 -47.5 -237.5c0 -84.667 15.667 -164 47 -238s76.333 -140.333 135 -199s126 -103.834 202 -135.501s155 -47.5 237 -47.5c83.333 0 162.333 15.667 237 47c38 15.333 74 34.333 108 57s66.333 49.334 97 80.001c58 56.667 102.333 122.5 133 197.5
s46 154.5 46 238.5c0 43.333 -3.66699 84.166 -11 122.499s-19.333 76.833 -36 115.5c-30.667 76 -75.334 143.167 -134.001 201.5s-125.5 103.166 -200.5 134.499s-154.833 47 -239.5 47zM852.001 1479c102 0 197.998 -18.667 287.998 -56s170.333 -91.333 241 -162
s124.334 -151.667 161.001 -243s55 -186.333 55 -285c0 -101.333 -18.167 -195.833 -54.5 -283.5s-90.666 -167 -162.999 -238s-154.166 -125.667 -245.499 -164s-185.333 -57.5 -282 -57.5c-98.667 0 -192 18.833 -280 56.5s-168.667 92.5 -242 164.5
c-70.667 69.333 -124.834 149.333 -162.501 240s-56.5 184.667 -56.5 282c0 100 18.5 194.667 55.5 284s91.5 171 163.5 245c69.333 69.333 148.5 122.833 237.5 160.5s183.833 56.5 284.5 56.5z" />
    <glyph glyph-name="registered" unicode="&#xae;" horiz-adv-x="1706" 
d="M745 1034l-0.000976562 -239.001h99c58.667 0 101.667 9.16699 129 27.5s41 47.833 41 88.5c0 42.667 -14.667 73.834 -44 93.501s-74.666 29.5 -135.999 29.5h-89zM544.999 1161l323 0.000976562c116.667 0 204.667 -19.833 264 -59.5s89 -98.834 89 -177.501
c0 -53.333 -16 -99.5 -48 -138.5s-76.333 -65.833 -133 -80.5l185 -369h-224l-157 338h-99v-338h-200v825zM853.999 1356c-83.333 0 -161.999 -15.002 -235.999 -45.002c-36.667 -14.667 -71 -32.667 -103 -54s-63 -47 -93 -77
c-58.667 -58.667 -104.834 -127.167 -138.501 -205.5s-50.5 -158.166 -50.5 -239.499c0 -82 15.167 -160.5 45.5 -235.5s74.833 -141.667 133.5 -200s126.167 -104 202.5 -137s155.5 -49.5 237.5 -49.5c41.333 0 80.666 3.66699 117.999 11s75.666 19.333 114.999 36
c76 31.333 145 76.333 207 135c58 56 103 121.167 135 195.5s48 151.833 48 232.5c0 87.333 -14.667 168.5 -44 243.5s-73.666 142.833 -132.999 203.5s-126.666 106.834 -201.999 138.501s-156 47.5 -242 47.5zM852 1479c102 0 198.5 -19.165 289.5 -57.498
s172.5 -93.833 244.5 -166.5c67.333 -68.667 119.333 -147.834 156 -237.501s55 -184.5 55 -284.5c0 -102.667 -18.5 -198.834 -55.5 -288.501s-91 -169 -162 -238s-152.333 -122.333 -244 -160s-186.167 -56.5 -283.5 -56.5c-100 0 -195.333 19.333 -286 58
s-171 93.667 -241 165s-123.167 151.5 -159.5 240.5s-54.5 182.167 -54.5 279.5c0 68 9 134 27 198s45 127 81 189c67.333 113.333 156.333 201.5 267 264.5s232.667 94.5 366 94.5z" />
    <glyph glyph-name="paragraph" unicode="&#xb6;" 
d="M949 1439v-77.999h-127v-1365h-102v1365h-146v-1365h-104v738c-113.333 5.33301 -204.5 40.166 -273.5 104.499s-103.5 146.833 -103.5 247.5c0 104.667 36.5 189.667 109.5 255s170.833 98 293.5 98h453z" />
    <glyph glyph-name="periodcentered" unicode="&#xb7;" horiz-adv-x="508" 
d="M146 741l82.001 84c12 11.333 24.667 17 38 17c12.667 0 26 -6.33301 40 -19l81 -87c8 -10.667 12 -20.334 12 -29.001c0 -10 -5 -20.333 -15 -31l-80 -89c-15.333 -15.333 -28 -23 -38 -23c-14.667 0 -27.334 6 -38.001 18l-89 101
c-6.66699 8.66699 -10 17.334 -10 26.001c0 10 5.66699 20.667 17 32z" />
    <glyph glyph-name="periodcentered" unicode="&#x2219;" horiz-adv-x="508" 
d="M146 741l82.001 84c12 11.333 24.667 17 38 17c12.667 0 26 -6.33301 40 -19l81 -87c8 -10.667 12 -20.334 12 -29.001c0 -10 -5 -20.333 -15 -31l-80 -89c-15.333 -15.333 -28 -23 -38 -23c-14.667 0 -27.334 6 -38.001 18l-89 101
c-6.66699 8.66699 -10 17.334 -10 26.001c0 10 5.66699 20.667 17 32z" />
    <glyph glyph-name="uni00B9" unicode="&#xb9;" horiz-adv-x="421" 
d="M237 815h-122v599l-33 -33l-82 83l180 178h57v-827z" />
    <glyph glyph-name="ordmasculine" unicode="&#xba;" horiz-adv-x="718" 
 />
    <glyph glyph-name="guillemotright" unicode="&#xbb;" horiz-adv-x="944" 
 />
    <glyph glyph-name="onequarter" unicode="&#xbc;" horiz-adv-x="1632" 
d="M1161 295h180v352zM1337 0v170h-307v139l289 543h184v-553h82v-129h-82v-170h-166zM457 -29h-154l868 1579h156zM272 670v608.001h-215v102c38.667 0 73.667 3.66699 105 11s58.333 17.666 81 30.999c45.333 26 72.333 64.667 81 116h118v-868h-170z" />
    <glyph glyph-name="onehalf" unicode="&#xbd;" horiz-adv-x="1632" 
d="M1042 0l-1 13l-1 14c0 66 15.333 129.333 46 190s77.667 120 141 178l52 46c40.667 33.333 68.334 59.666 83.001 78.999c11.333 15.333 20.666 33.333 27.999 54c6 20 9 42.333 9 67c0 36.667 -7.66699 64 -23 82c-14 18 -36.333 27 -67 27
c-31.333 0 -54.666 -11 -69.999 -33c-14.667 -23.333 -22 -58.333 -22 -105v-32h-168l-1 14l-1 14c0 89.333 21 155 63 197s109.667 63 203 63c86 0 152 -19 198 -57c22.667 -18.667 40 -41.667 52 -69s18 -59 18 -95c0 -33.333 -4.33301 -63.333 -13 -90
c-4 -13.333 -9.16699 -26.833 -15.5 -40.5s-13.833 -27.5 -22.5 -41.5c-12.667 -19.333 -42.334 -49.666 -89.001 -90.999l-57 -52l-11 -12c-85.333 -84 -134 -145 -146 -183h342v-137h-527zM457 -29h-154l868 1579h156zM272 670v608.001h-215v102
c38.667 0 73.667 3.66699 105 11s58.333 17.666 81 30.999c45.333 26 72.333 64.667 81 116h118v-868h-170z" />
    <glyph glyph-name="threequarters" unicode="&#xbe;" horiz-adv-x="1632" 
d="M1161 295h180v352zM1337 0v170h-307v139l289 543h184v-553h82v-129h-82v-170h-166zM457 -29h-154l868 1579h156zM53 961l168.004 -0.000976562v-11c0 -64 7.33301 -109.333 22 -136c15.333 -25.333 40.666 -38 75.999 -38c36 0 61.167 11.333 75.5 34
s21.5 63.334 21.5 122.001c0 57.333 -8.83301 95.5 -26.5 114.5s-51.834 28.5 -102.501 28.5l-29 -1l-22 -1v113h14c56 0 94.833 8.66699 116.5 26s32.5 49 32.5 95c0 42 -6.33301 71.5 -19 88.5s-34.334 25.5 -65.001 25.5c-30 0 -51.833 -9.33301 -65.5 -28
s-20.5 -48.667 -20.5 -90v-21h-168v33c0 73.333 22.167 128.833 66.5 166.5s109.833 56.5 196.5 56.5c80 0 141.5 -19.167 184.5 -57.5s64.5 -93.5 64.5 -165.5c0 -48 -9.16699 -87.333 -27.5 -118s-45.833 -51.334 -82.5 -62.001c43.333 -10 76.333 -31.833 99 -65.5
s34 -79.5 34 -137.5c0 -94 -23.167 -164 -69.5 -210s-116.833 -69 -211.5 -69c-88.667 0 -154.834 22.333 -198.501 67s-65.5 113.334 -65.5 206.001l1 16z" />
    <glyph glyph-name="Ahuyen" unicode="&#xc0;" horiz-adv-x="1120" 
d="M430 618h244l-123 646zM18 0l347 1540h385l350 -1540h-309l-76 387h-330l-74 -387h-293zM702 1669h-125l-305 285h256z" />
    <glyph glyph-name="Asac" unicode="&#xc1;" horiz-adv-x="1120" 
d="M430 618h244l-123 646zM18 0l347 1540h385l350 -1540h-309l-76 387h-330l-74 -387h-293zM420 1669l174 285h256l-305 -285h-125z" />
    <glyph glyph-name="AA" unicode="&#xc2;" horiz-adv-x="1120" 
d="M430 618h244l-123 646zM18 0l347 1540h385l350 -1540h-309l-76 387h-330l-74 -387h-293zM285 1669l174 285h204l174 -285h-124l-152 150l-152 -150h-124z" />
    <glyph glyph-name="Anga" unicode="&#xc3;" horiz-adv-x="1120" 
d="M430 618h244l-123 646zM18 0l347 1540h385l350 -1540h-309l-76 387h-330l-74 -387h-293zM368 1681h-87.9961c13.333 78 35.166 136.167 65.499 174.5s68.166 57.5 113.499 57.5c13.333 0 23.333 -0.666992 30 -2l31 -6l110 -33l23 -5l25 -1
c20 0 36.167 6.16699 48.5 18.5s21.5 31.166 27.5 56.499h88c-10.667 -73.333 -32.334 -131.166 -65.001 -173.499s-73.334 -63.5 -122.001 -63.5c-11.333 0 -20 0.666992 -26 2l-25 6l-121 35l-16 4l-17 2c-20.667 0 -38 -6 -52 -18s-24 -30 -30 -54z" />
    <glyph glyph-name="Ehuyen" unicode="&#xc8;" horiz-adv-x="1014" 
d="M131 0v1540h791v-256h-506v-356h471v-244h-471v-424h518v-260h-803zM659 1669h-125l-305 285h256z" />
    <glyph glyph-name="Esac" unicode="&#xc9;" horiz-adv-x="1014" 
d="M131 0v1540h791v-256h-506v-356h471v-244h-471v-424h518v-260h-803zM377 1669l174 285h256l-305 -285h-125z" />
    <glyph glyph-name="" unicode="&#xca;" horiz-adv-x="1014" 
d="M131 0v1540h791v-256h-506v-356h471v-244h-471v-424h518v-260h-803zM242 1669l174 285h204l174 -285h-124l-152 150l-152 -150h-124z" />
    <glyph glyph-name="Ihuyen" unicode="&#xcc;" horiz-adv-x="549" 
d="M131 0v1540h287v-1540h-287zM415 1669h-125l-305 285h256z" />
    <glyph glyph-name="Isac" unicode="&#xcd;" horiz-adv-x="549" 
d="M131 0v1540h287v-1540h-287zM133 1669l174 285h256l-305 -285h-125z" />
    <glyph glyph-name="Ohuyen" unicode="&#xd2;" horiz-adv-x="1202" 
d="M393 770c0 -254 14.832 -413.667 44.499 -479s84.5 -98 164.5 -98c77.333 0 130.833 32.167 160.5 96.5s44.5 224.5 44.5 480.5c0 256.667 -14.667 417.5 -44 482.5s-83.666 97.5 -162.999 97.5c-78.667 0 -133 -32.667 -163 -98
c-14.667 -32.667 -25.667 -88.667 -33 -168s-11 -184 -11 -314zM99.999 770c0 166.667 7.5 297.835 22.5 393.502s39.167 168.5 72.5 218.5c44 70 97.167 120 159.5 150s144.166 45 245.499 45c100 0 181.167 -14.833 243.5 -44.5s116.5 -79.834 162.5 -150.501
c31.333 -48.667 55 -122.667 71 -222c7.33301 -46.667 13 -103 17 -169s6 -139.667 6 -221c0 -166 -7.66699 -297.167 -23 -393.5s-39 -169.166 -71 -218.499c-45.333 -70.667 -99 -120.834 -161 -150.501s-143.667 -44.5 -245 -44.5c-100 0 -181.167 15 -243.5 45
s-116.166 80 -161.499 150c-32 49.333 -56 122.666 -72 219.999c-7.33301 47.333 -13 104 -17 170s-6 140 -6 222zM742.999 1669h-125l-305 285h256z" />
    <glyph glyph-name="Osac" unicode="&#xd3;" horiz-adv-x="1202" 
d="M393 770c0 -254 14.832 -413.667 44.499 -479s84.5 -98 164.5 -98c77.333 0 130.833 32.167 160.5 96.5s44.5 224.5 44.5 480.5c0 256.667 -14.667 417.5 -44 482.5s-83.666 97.5 -162.999 97.5c-78.667 0 -133 -32.667 -163 -98
c-14.667 -32.667 -25.667 -88.667 -33 -168s-11 -184 -11 -314zM99.999 770c0 166.667 7.5 297.835 22.5 393.502s39.167 168.5 72.5 218.5c44 70 97.167 120 159.5 150s144.166 45 245.499 45c100 0 181.167 -14.833 243.5 -44.5s116.5 -79.834 162.5 -150.501
c31.333 -48.667 55 -122.667 71 -222c7.33301 -46.667 13 -103 17 -169s6 -139.667 6 -221c0 -166 -7.66699 -297.167 -23 -393.5s-39 -169.166 -71 -218.499c-45.333 -70.667 -99 -120.834 -161 -150.501s-143.667 -44.5 -245 -44.5c-100 0 -181.167 15 -243.5 45
s-116.166 80 -161.499 150c-32 49.333 -56 122.666 -72 219.999c-7.33301 47.333 -13 104 -17 170s-6 140 -6 222zM460.999 1669l174 285h256l-305 -285h-125z" />
    <glyph glyph-name="" unicode="&#xd4;" horiz-adv-x="1202" 
d="M393 770c0 -254 14.832 -413.667 44.499 -479s84.5 -98 164.5 -98c77.333 0 130.833 32.167 160.5 96.5s44.5 224.5 44.5 480.5c0 256.667 -14.667 417.5 -44 482.5s-83.666 97.5 -162.999 97.5c-78.667 0 -133 -32.667 -163 -98
c-14.667 -32.667 -25.667 -88.667 -33 -168s-11 -184 -11 -314zM99.999 770c0 166.667 7.5 297.835 22.5 393.502s39.167 168.5 72.5 218.5c44 70 97.167 120 159.5 150s144.166 45 245.499 45c100 0 181.167 -14.833 243.5 -44.5s116.5 -79.834 162.5 -150.501
c31.333 -48.667 55 -122.667 71 -222c7.33301 -46.667 13 -103 17 -169s6 -139.667 6 -221c0 -166 -7.66699 -297.167 -23 -393.5s-39 -169.166 -71 -218.499c-45.333 -70.667 -99 -120.834 -161 -150.501s-143.667 -44.5 -245 -44.5c-100 0 -181.167 15 -243.5 45
s-116.166 80 -161.499 150c-32 49.333 -56 122.666 -72 219.999c-7.33301 47.333 -13 104 -17 170s-6 140 -6 222zM325.999 1669l174 285h204l174 -285h-124l-152 150l-152 -150h-124z" />
    <glyph glyph-name="Onga" unicode="&#xd5;" horiz-adv-x="1202" 
d="M393 770c0 -254 14.832 -413.667 44.499 -479s84.5 -98 164.5 -98c77.333 0 130.833 32.167 160.5 96.5s44.5 224.5 44.5 480.5c0 256.667 -14.667 417.5 -44 482.5s-83.666 97.5 -162.999 97.5c-78.667 0 -133 -32.667 -163 -98
c-14.667 -32.667 -25.667 -88.667 -33 -168s-11 -184 -11 -314zM99.999 770c0 166.667 7.5 297.835 22.5 393.502s39.167 168.5 72.5 218.5c44 70 97.167 120 159.5 150s144.166 45 245.499 45c100 0 181.167 -14.833 243.5 -44.5s116.5 -79.834 162.5 -150.501
c31.333 -48.667 55 -122.667 71 -222c7.33301 -46.667 13 -103 17 -169s6 -139.667 6 -221c0 -166 -7.66699 -297.167 -23 -393.5s-39 -169.166 -71 -218.499c-45.333 -70.667 -99 -120.834 -161 -150.501s-143.667 -44.5 -245 -44.5c-100 0 -181.167 15 -243.5 45
s-116.166 80 -161.499 150c-32 49.333 -56 122.666 -72 219.999c-7.33301 47.333 -13 104 -17 170s-6 140 -6 222zM408.999 1681h-87.9961c13.333 78 35.166 136.167 65.499 174.5s68.166 57.5 113.499 57.5c13.333 0 23.333 -0.666992 30 -2l31 -6l110 -33l23 -5l25 -1
c20 0 36.167 6.16699 48.5 18.5s21.5 31.166 27.5 56.499h88c-10.667 -73.333 -32.334 -131.166 -65.001 -173.499s-73.334 -63.5 -122.001 -63.5c-11.333 0 -20 0.666992 -26 2l-25 6l-121 35l-16 4l-17 2c-20.667 0 -38 -6 -52 -18s-24 -30 -30 -54z" />
    <glyph glyph-name="Uhuyen" unicode="&#xd9;" horiz-adv-x="1223" 
d="M131 1540h287v-1038c0 -118 14.5 -198.333 43.5 -241s80.5 -64 154.5 -64c72.667 0 123.334 21.5 152.001 64.5s43 124.5 43 244.5v1034h283v-1063c0 -102 -5.66699 -177 -17 -225s-31 -90.333 -59 -127c-40.667 -53.333 -95.334 -94 -164.001 -122
c-34.667 -13.333 -71.667 -23.333 -111 -30s-83 -10 -131 -10c-175.333 0 -299.333 38 -372 114s-109 209.333 -109 400v1063zM753 1669h-125l-305 285h256z" />
    <glyph glyph-name="Usac" unicode="&#xda;" horiz-adv-x="1223" 
d="M131 1540h287v-1038c0 -118 14.5 -198.333 43.5 -241s80.5 -64 154.5 -64c72.667 0 123.334 21.5 152.001 64.5s43 124.5 43 244.5v1034h283v-1063c0 -102 -5.66699 -177 -17 -225s-31 -90.333 -59 -127c-40.667 -53.333 -95.334 -94 -164.001 -122
c-34.667 -13.333 -71.667 -23.333 -111 -30s-83 -10 -131 -10c-175.333 0 -299.333 38 -372 114s-109 209.333 -109 400v1063zM471 1669l174 285h256l-305 -285h-125z" />
    <glyph glyph-name="Ysac" unicode="&#xdd;" horiz-adv-x="1126" 
d="M422 0v653l-404 887h318l233 -579l230 579h309l-397 -887v-653h-289zM471 1669l174 285h256l-305 -285h-125z" />
    <glyph glyph-name="ahuyen" unicode="&#xe0;" horiz-adv-x="993" 
d="M627 606c-100 -50 -168 -95.334 -204 -136.001s-54 -88 -54 -142c0 -51.333 9.5 -89.166 28.5 -113.499s48.833 -36.5 89.5 -36.5c46 0 80.833 20.333 104.5 61s35.5 101.667 35.5 183v184zM664 -0.000976562c-5.33301 7.33301 -10.667 20.332 -16 38.999l-13 73
c-27.333 -45.333 -63.333 -80.5 -108 -105.5s-96.667 -37.5 -156 -37.5c-88 0 -156.5 29.833 -205.5 89.5s-73.5 141.834 -73.5 246.501c0 94.667 21.333 170 64 226s128 113 256 171l54 24c104.667 44 157 96.333 157 157c0 36 -10.167 64 -30.5 84s-49.833 30 -88.5 30
c-48 0 -83.667 -13.167 -107 -39.5s-35 -66.833 -35 -121.5v-23h-260c0 130 32 224.667 96 284s166 89 306 89s238.5 -27.333 295.5 -82s85.5 -149.667 85.5 -285v-653c0 -31.333 3 -60.333 9 -87s16 -53 30 -79h-260zM638.999 1280h-125l-305 285h256z" />
    <glyph glyph-name="asac" unicode="&#xe1;" horiz-adv-x="993" 
d="M627 606c-100 -50 -168 -95.334 -204 -136.001s-54 -88 -54 -142c0 -51.333 9.5 -89.166 28.5 -113.499s48.833 -36.5 89.5 -36.5c46 0 80.833 20.333 104.5 61s35.5 101.667 35.5 183v184zM664 -0.000976562c-5.33301 7.33301 -10.667 20.332 -16 38.999l-13 73
c-27.333 -45.333 -63.333 -80.5 -108 -105.5s-96.667 -37.5 -156 -37.5c-88 0 -156.5 29.833 -205.5 89.5s-73.5 141.834 -73.5 246.501c0 94.667 21.333 170 64 226s128 113 256 171l54 24c104.667 44 157 96.333 157 157c0 36 -10.167 64 -30.5 84s-49.833 30 -88.5 30
c-48 0 -83.667 -13.167 -107 -39.5s-35 -66.833 -35 -121.5v-23h-260c0 130 32 224.667 96 284s166 89 306 89s238.5 -27.333 295.5 -82s85.5 -149.667 85.5 -285v-653c0 -31.333 3 -60.333 9 -87s16 -53 30 -79h-260zM356.999 1280l174 285h256l-305 -285h-125z" />
    <glyph glyph-name="aa" unicode="&#xe2;" horiz-adv-x="993" 
d="M627 606c-100 -50 -168 -95.334 -204 -136.001s-54 -88 -54 -142c0 -51.333 9.5 -89.166 28.5 -113.499s48.833 -36.5 89.5 -36.5c46 0 80.833 20.333 104.5 61s35.5 101.667 35.5 183v184zM664 -0.000976562c-5.33301 7.33301 -10.667 20.332 -16 38.999l-13 73
c-27.333 -45.333 -63.333 -80.5 -108 -105.5s-96.667 -37.5 -156 -37.5c-88 0 -156.5 29.833 -205.5 89.5s-73.5 141.834 -73.5 246.501c0 94.667 21.333 170 64 226s128 113 256 171l54 24c104.667 44 157 96.333 157 157c0 36 -10.167 64 -30.5 84s-49.833 30 -88.5 30
c-48 0 -83.667 -13.167 -107 -39.5s-35 -66.833 -35 -121.5v-23h-260c0 130 32 224.667 96 284s166 89 306 89s238.5 -27.333 295.5 -82s85.5 -149.667 85.5 -285v-653c0 -31.333 3 -60.333 9 -87s16 -53 30 -79h-260zM221.999 1280l174 285h204l174 -285h-124l-152 150
l-152 -150h-124z" />
    <glyph glyph-name="anga" unicode="&#xe3;" horiz-adv-x="993" 
d="M627 606c-100 -50 -168 -95.334 -204 -136.001s-54 -88 -54 -142c0 -51.333 9.5 -89.166 28.5 -113.499s48.833 -36.5 89.5 -36.5c46 0 80.833 20.333 104.5 61s35.5 101.667 35.5 183v184zM664 -0.000976562c-5.33301 7.33301 -10.667 20.332 -16 38.999l-13 73
c-27.333 -45.333 -63.333 -80.5 -108 -105.5s-96.667 -37.5 -156 -37.5c-88 0 -156.5 29.833 -205.5 89.5s-73.5 141.834 -73.5 246.501c0 94.667 21.333 170 64 226s128 113 256 171l54 24c104.667 44 157 96.333 157 157c0 36 -10.167 64 -30.5 84s-49.833 30 -88.5 30
c-48 0 -83.667 -13.167 -107 -39.5s-35 -66.833 -35 -121.5v-23h-260c0 130 32 224.667 96 284s166 89 306 89s238.5 -27.333 295.5 -82s85.5 -149.667 85.5 -285v-653c0 -31.333 3 -60.333 9 -87s16 -53 30 -79h-260zM304.999 1292h-87.9961
c13.333 78 35.166 136.167 65.499 174.5s68.166 57.5 113.499 57.5c13.333 0 23.333 -0.666992 30 -2l31 -6l110 -33l23 -5l25 -1c20 0 36.167 6.16699 48.5 18.5s21.5 31.166 27.5 56.499h88c-10.667 -73.333 -32.334 -131.166 -65.001 -173.499
s-73.334 -63.5 -122.001 -63.5c-11.333 0 -20 0.666992 -26 2l-25 6l-121 35l-16 4l-17 2c-20.667 0 -38 -6 -52 -18s-24 -30 -30 -54z" />
    <glyph glyph-name="ehuyen" unicode="&#xe8;" horiz-adv-x="975" 
d="M358 725h260v49c0 79.333 -9.66699 134 -29 164s-53.333 45 -102 45c-46.667 0 -80.167 -15.333 -100.5 -46s-30.5 -85 -30.5 -163l1 -17zM627 397l252.002 0.000976562l1 -23l1 -22c0 -132.667 -31.5 -229.667 -94.5 -291s-162.833 -92 -299.5 -92
c-71.333 0 -131.333 9 -180 27s-89 46 -121 84c-36.667 43.333 -63 99.666 -79 168.999c-7.33301 33.333 -13 80.666 -17 141.999s-6 136.333 -6 225c0 142 6.66699 242.833 20 302.5s36.333 109.334 69 149.001s75.667 69.5 129 89.5c27.333 10 56.833 17.667 88.5 23
s66.167 8 103.5 8c70.667 0 132.167 -10.833 184.5 -32.5s95.166 -54.5 128.499 -98.5c28 -37.333 48.333 -86 61 -146c6 -28.667 10.667 -66.667 14 -114s5 -103.333 5 -168v-88h-526l-3 -28v-46c0 -110 10 -187 30 -231s54.667 -66 104 -66c47.333 0 81.666 18 102.999 54
s32 93.667 32 173zM628.002 1280h-125l-305 285h256z" />
    <glyph glyph-name="esac" unicode="&#xe9;" horiz-adv-x="975" 
d="M358 725h260v49c0 79.333 -9.66699 134 -29 164s-53.333 45 -102 45c-46.667 0 -80.167 -15.333 -100.5 -46s-30.5 -85 -30.5 -163l1 -17zM627 397l252.002 0.000976562l1 -23l1 -22c0 -132.667 -31.5 -229.667 -94.5 -291s-162.833 -92 -299.5 -92
c-71.333 0 -131.333 9 -180 27s-89 46 -121 84c-36.667 43.333 -63 99.666 -79 168.999c-7.33301 33.333 -13 80.666 -17 141.999s-6 136.333 -6 225c0 142 6.66699 242.833 20 302.5s36.333 109.334 69 149.001s75.667 69.5 129 89.5c27.333 10 56.833 17.667 88.5 23
s66.167 8 103.5 8c70.667 0 132.167 -10.833 184.5 -32.5s95.166 -54.5 128.499 -98.5c28 -37.333 48.333 -86 61 -146c6 -28.667 10.667 -66.667 14 -114s5 -103.333 5 -168v-88h-526l-3 -28v-46c0 -110 10 -187 30 -231s54.667 -66 104 -66c47.333 0 81.666 18 102.999 54
s32 93.667 32 173zM346.002 1280l174 285h256l-305 -285h-125z" />
    <glyph glyph-name="" unicode="&#xea;" horiz-adv-x="975" 
d="M358 725h260v49c0 79.333 -9.66699 134 -29 164s-53.333 45 -102 45c-46.667 0 -80.167 -15.333 -100.5 -46s-30.5 -85 -30.5 -163l1 -17zM627 397l252.002 0.000976562l1 -23l1 -22c0 -132.667 -31.5 -229.667 -94.5 -291s-162.833 -92 -299.5 -92
c-71.333 0 -131.333 9 -180 27s-89 46 -121 84c-36.667 43.333 -63 99.666 -79 168.999c-7.33301 33.333 -13 80.666 -17 141.999s-6 136.333 -6 225c0 142 6.66699 242.833 20 302.5s36.333 109.334 69 149.001s75.667 69.5 129 89.5c27.333 10 56.833 17.667 88.5 23
s66.167 8 103.5 8c70.667 0 132.167 -10.833 184.5 -32.5s95.166 -54.5 128.499 -98.5c28 -37.333 48.333 -86 61 -146c6 -28.667 10.667 -66.667 14 -114s5 -103.333 5 -168v-88h-526l-3 -28v-46c0 -110 10 -187 30 -231s54.667 -66 104 -66c47.333 0 81.666 18 102.999 54
s32 93.667 32 173zM211.002 1280l174 285h204l174 -285h-124l-152 150l-152 -150h-124z" />
    <glyph glyph-name="igrave" unicode="&#xec;" horiz-adv-x="496" 
d="M115 0v1157h266v-1157h-266zM389 1280h-125l-305 285h256z" />
    <glyph glyph-name="iacute" unicode="&#xed;" horiz-adv-x="496" 
d="M115 0v1157h266v-1157h-266zM107 1280l174 285h256l-305 -285h-125z" />
    <glyph glyph-name="ograve" unicode="&#xf2;" horiz-adv-x="979" 
d="M356 590v-27c0 -178 9 -287.333 27 -328s52.667 -61 104 -61c53.333 0 89.333 18.667 108 56c9.33301 19.333 16.333 53 21 101s7 112.333 7 193v47v66c0 152 -9.66699 247 -29 285c-18 39.333 -53 59 -105 59c-50 0 -84.667 -18 -104 -54s-29 -121.667 -29 -257v-80z
M82 578c0 232.667 30.167 392.501 90.5 479.501s165.833 130.5 316.5 130.5c152 0 258 -43.167 318 -129.5s90 -246.5 90 -480.5c0 -232.667 -30 -392.334 -90 -479.001s-166 -130 -318 -130c-150 0 -255.333 43 -316 129s-91 246 -91 480zM630 1280h-125l-305 285h256z" />
    <glyph glyph-name="oacute" unicode="&#xf3;" horiz-adv-x="979" 
d="M356 590v-27c0 -178 9 -287.333 27 -328s52.667 -61 104 -61c53.333 0 89.333 18.667 108 56c9.33301 19.333 16.333 53 21 101s7 112.333 7 193v47v66c0 152 -9.66699 247 -29 285c-18 39.333 -53 59 -105 59c-50 0 -84.667 -18 -104 -54s-29 -121.667 -29 -257v-80z
M82 578c0 232.667 30.167 392.501 90.5 479.501s165.833 130.5 316.5 130.5c152 0 258 -43.167 318 -129.5s90 -246.5 90 -480.5c0 -232.667 -30 -392.334 -90 -479.001s-166 -130 -318 -130c-150 0 -255.333 43 -316 129s-91 246 -91 480zM348 1280l174 285h256l-305 -285
h-125z" />
    <glyph glyph-name="" unicode="&#xf4;" horiz-adv-x="979" 
d="M356 590v-27c0 -178 9 -287.333 27 -328s52.667 -61 104 -61c53.333 0 89.333 18.667 108 56c9.33301 19.333 16.333 53 21 101s7 112.333 7 193v47v66c0 152 -9.66699 247 -29 285c-18 39.333 -53 59 -105 59c-50 0 -84.667 -18 -104 -54s-29 -121.667 -29 -257v-80z
M82 578c0 232.667 30.167 392.501 90.5 479.501s165.833 130.5 316.5 130.5c152 0 258 -43.167 318 -129.5s90 -246.5 90 -480.5c0 -232.667 -30 -392.334 -90 -479.001s-166 -130 -318 -130c-150 0 -255.333 43 -316 129s-91 246 -91 480zM213 1280l174 285h204l174 -285
h-124l-152 150l-152 -150h-124z" />
    <glyph glyph-name="otilde" unicode="&#xf5;" horiz-adv-x="979" 
d="M356 590v-27c0 -178 9 -287.333 27 -328s52.667 -61 104 -61c53.333 0 89.333 18.667 108 56c9.33301 19.333 16.333 53 21 101s7 112.333 7 193v47v66c0 152 -9.66699 247 -29 285c-18 39.333 -53 59 -105 59c-50 0 -84.667 -18 -104 -54s-29 -121.667 -29 -257v-80z
M82 578c0 232.667 30.167 392.501 90.5 479.501s165.833 130.5 316.5 130.5c152 0 258 -43.167 318 -129.5s90 -246.5 90 -480.5c0 -232.667 -30 -392.334 -90 -479.001s-166 -130 -318 -130c-150 0 -255.333 43 -316 129s-91 246 -91 480zM296 1292h-87.9961
c13.333 78 35.166 136.167 65.499 174.5s68.166 57.5 113.499 57.5c13.333 0 23.333 -0.666992 30 -2l31 -6l110 -33l23 -5l25 -1c20 0 36.167 6.16699 48.5 18.5s21.5 31.166 27.5 56.499h88c-10.667 -73.333 -32.334 -131.166 -65.001 -173.499
s-73.334 -63.5 -122.001 -63.5c-11.333 0 -20 0.666992 -26 2l-25 6l-121 35l-16 4l-17 2c-20.667 0 -38 -6 -52 -18s-24 -30 -30 -54z" />
    <glyph glyph-name="uhuyen" unicode="&#xf9;" horiz-adv-x="991" 
d="M877 1157l0.00195312 -1157h-263v115c-26.667 -48 -61 -84.333 -103 -109c-19.333 -11.333 -41 -20.333 -65 -27s-49 -10 -75 -10c-84.667 0 -148.834 23.833 -192.501 71.5s-65.5 116.834 -65.5 207.501v909h258v-756c0 -77.333 8.66699 -130.333 26 -159
s46.666 -43 87.999 -43c44 0 75.5 16.333 94.5 49s28.5 89.334 28.5 170.001v739h269zM637.002 1280h-125l-305 285h256z" />
    <glyph glyph-name="uacute" unicode="&#xfa;" horiz-adv-x="991" 
d="M877 1157l0.00195312 -1157h-263v115c-26.667 -48 -61 -84.333 -103 -109c-19.333 -11.333 -41 -20.333 -65 -27s-49 -10 -75 -10c-84.667 0 -148.834 23.833 -192.501 71.5s-65.5 116.834 -65.5 207.501v909h258v-756c0 -77.333 8.66699 -130.333 26 -159
s46.666 -43 87.999 -43c44 0 75.5 16.333 94.5 49s28.5 89.334 28.5 170.001v739h269zM355.002 1280l174 285h256l-305 -285h-125z" />
    <glyph glyph-name="ysac" unicode="&#xfd;" horiz-adv-x="909" 
d="M176 -379l0.00195312 200.001h17l26 -1c38 0 65.667 6.16699 83 18.5s26 32.166 26 59.499l-3 31l-3 18c-0.666992 4 -2.33398 9.66699 -5.00098 17l-297 1193h283l160 -835l155 835h271l-301 -1266c-26 -110 -61.333 -183.833 -106 -221.5
s-115.334 -56.5 -212.001 -56.5h-16c-6 0 -11.5 0.166992 -16.5 0.5s-9.5 0.833008 -13.5 1.5zM355.002 1280l174 285h256l-305 -285h-125z" />
    <glyph glyph-name="A(" unicode="&#x102;" horiz-adv-x="1120" 
d="M430 618h244l-123 646zM18 0l347 1540h385l350 -1540h-309l-76 387h-330l-74 -387h-293zM285 1907l113.998 -0.000976562c6.66699 -42 22.834 -73 48.501 -93s62.834 -30 111.501 -30c48 0 85.167 9.83301 111.5 29.5s42.5 50.834 48.5 93.501h114
c-9.33301 -98.667 -36 -170.834 -80 -216.501s-108.667 -68.5 -194 -68.5c-83.333 0 -147.333 22.833 -192 68.5s-72 117.834 -82 216.501z" />
    <glyph glyph-name="a(" unicode="&#x103;" horiz-adv-x="993" 
d="M627 606c-100 -50 -168 -95.334 -204 -136.001s-54 -88 -54 -142c0 -51.333 9.5 -89.166 28.5 -113.499s48.833 -36.5 89.5 -36.5c46 0 80.833 20.333 104.5 61s35.5 101.667 35.5 183v184zM664 -0.000976562c-5.33301 7.33301 -10.667 20.332 -16 38.999l-13 73
c-27.333 -45.333 -63.333 -80.5 -108 -105.5s-96.667 -37.5 -156 -37.5c-88 0 -156.5 29.833 -205.5 89.5s-73.5 141.834 -73.5 246.501c0 94.667 21.333 170 64 226s128 113 256 171l54 24c104.667 44 157 96.333 157 157c0 36 -10.167 64 -30.5 84s-49.833 30 -88.5 30
c-48 0 -83.667 -13.167 -107 -39.5s-35 -66.833 -35 -121.5v-23h-260c0 130 32 224.667 96 284s166 89 306 89s238.5 -27.333 295.5 -82s85.5 -149.667 85.5 -285v-653c0 -31.333 3 -60.333 9 -87s16 -53 30 -79h-260zM223.999 1565l113.998 -0.000976562
c6.66699 -42 22.834 -73 48.501 -93s62.834 -30 111.501 -30c48 0 85.167 9.83301 111.5 29.5s42.5 50.834 48.5 93.501h114c-9.33301 -98.667 -36 -170.834 -80 -216.501s-108.667 -68.5 -194 -68.5c-83.333 0 -147.333 22.833 -192 68.5s-72 117.834 -82 216.501z" />
    <glyph glyph-name="" unicode="&#x110;" horiz-adv-x="1204" 
d="M412 700l0.000976562 -472.999h127c65.333 0 110.666 4.5 135.999 13.5s46 25.167 62 48.5c26 40 44.833 95.333 56.5 166s17.5 181.667 17.5 333s-6.66699 260.666 -20 327.999s-36 118 -68 152c-16 17.333 -37.667 29.5 -65 36.5s-68.333 10.5 -123 10.5h-123v-328h166
v-287h-166zM131.001 987.001v552.997h461c93.333 0 168 -8 224 -24s102 -42 138 -78c54 -52 92 -118.667 114 -200c10.667 -39.333 19 -90.666 25 -153.999s9 -136.666 9 -219.999c0 -221.333 -7.5 -376.333 -22.5 -465s-40.5 -164.667 -76.5 -228
s-86 -107.666 -150 -132.999s-173 -38 -327 -38h-395v700h-140v287h140z" />
    <glyph glyph-name="dd" unicode="&#x111;" horiz-adv-x="995" 
d="M356 596c0 -90.667 2.00098 -163.499 6.00098 -218.499s10.667 -94.5 20 -118.5c17.333 -46 49.666 -69 96.999 -69c52.667 0 89 20.167 109 60.5s30 124.833 30 253.5c0 203.333 -9.83301 330.666 -29.5 381.999s-56.167 77 -109.5 77c-46 0 -78 -22.167 -96 -66.5
s-27 -144.5 -27 -300.5zM625.001 121.001c-22 -50.667 -52.667 -88.667 -92 -114s-87.333 -38 -144 -38c-112 0 -190.833 44.333 -236.5 133s-68.5 245.667 -68.5 471c0 234.667 22.167 395.834 66.5 483.501s121.833 131.5 232.5 131.5c54.667 0 100.167 -10.333 136.5 -31
s66.5 -53.334 90.5 -98.001v215h-229v143h229v123h269v-123h159v-143h-159v-1274h-254v121z" />
    <glyph glyph-name="Inga" unicode="&#x128;" horiz-adv-x="549" 
d="M131 0v1540h287v-1540h-287zM112 1681h-87.9961c13.333 78 35.166 136.167 65.499 174.5s68.166 57.5 113.499 57.5c13.333 0 23.333 -0.666992 30 -2l31 -6l110 -33l23 -5l25 -1c20 0 36.167 6.16699 48.5 18.5s21.5 31.166 27.5 56.499h88
c-10.667 -73.333 -32.334 -131.166 -65.001 -173.499s-73.334 -63.5 -122.001 -63.5c-11.333 0 -20 0.666992 -26 2l-25 6l-121 35l-16 4l-17 2c-20.667 0 -38 -6 -52 -18s-24 -30 -30 -54z" />
    <glyph glyph-name="idieresis" unicode="&#x129;" horiz-adv-x="496" 
d="M115 0v1157h266v-1157h-266zM76 1292h-87.9961c13.333 78 35.166 136.167 65.499 174.5s68.166 57.5 113.499 57.5c13.333 0 23.333 -0.666992 30 -2l31 -6l110 -33l23 -5l25 -1c20 0 36.167 6.16699 48.5 18.5s21.5 31.166 27.5 56.499h88
c-10.667 -73.333 -32.334 -131.166 -65.001 -173.499s-73.334 -63.5 -122.001 -63.5c-11.333 0 -20 0.666992 -26 2l-25 6l-121 35l-16 4l-17 2c-20.667 0 -38 -6 -52 -18s-24 -30 -30 -54z" />
    <glyph glyph-name="Unga" unicode="&#x168;" horiz-adv-x="1223" 
d="M131 1540h287v-1038c0 -118 14.5 -198.333 43.5 -241s80.5 -64 154.5 -64c72.667 0 123.334 21.5 152.001 64.5s43 124.5 43 244.5v1034h283v-1063c0 -102 -5.66699 -177 -17 -225s-31 -90.333 -59 -127c-40.667 -53.333 -95.334 -94 -164.001 -122
c-34.667 -13.333 -71.667 -23.333 -111 -30s-83 -10 -131 -10c-175.333 0 -299.333 38 -372 114s-109 209.333 -109 400v1063zM420 1681h-87.9961c13.333 78 35.166 136.167 65.499 174.5s68.166 57.5 113.499 57.5c13.333 0 23.333 -0.666992 30 -2l31 -6l110 -33l23 -5
l25 -1c20 0 36.167 6.16699 48.5 18.5s21.5 31.166 27.5 56.499h88c-10.667 -73.333 -32.334 -131.166 -65.001 -173.499s-73.334 -63.5 -122.001 -63.5c-11.333 0 -20 0.666992 -26 2l-25 6l-121 35l-16 4l-17 2c-20.667 0 -38 -6 -52 -18s-24 -30 -30 -54z" />
    <glyph glyph-name="utilde" unicode="&#x169;" horiz-adv-x="991" 
d="M877 1157l0.00195312 -1157h-263v115c-26.667 -48 -61 -84.333 -103 -109c-19.333 -11.333 -41 -20.333 -65 -27s-49 -10 -75 -10c-84.667 0 -148.834 23.833 -192.501 71.5s-65.5 116.834 -65.5 207.501v909h258v-756c0 -77.333 8.66699 -130.333 26 -159
s46.666 -43 87.999 -43c44 0 75.5 16.333 94.5 49s28.5 89.334 28.5 170.001v739h269zM296.002 1292h-87.9961c13.333 78 35.166 136.167 65.499 174.5s68.166 57.5 113.499 57.5c13.333 0 23.333 -0.666992 30 -2l31 -6l110 -33l23 -5l25 -1c20 0 36.167 6.16699 48.5 18.5
s21.5 31.166 27.5 56.499h88c-10.667 -73.333 -32.334 -131.166 -65.001 -173.499s-73.334 -63.5 -122.001 -63.5c-11.333 0 -20 0.666992 -26 2l-25 6l-121 35l-16 4l-17 2c-20.667 0 -38 -6 -52 -18s-24 -30 -30 -54z" />
    <glyph glyph-name="O)" unicode="&#x1a0;" horiz-adv-x="1202" 
d="M393 770c0 -254 14.832 -413.667 44.499 -479s84.5 -98 164.5 -98c77.333 0 130.833 32.167 160.5 96.5s44.5 224.5 44.5 480.5c0 256.667 -14.667 417.5 -44 482.5s-83.666 97.5 -162.999 97.5c-78.667 0 -133 -32.667 -163 -98
c-14.667 -32.667 -25.667 -88.667 -33 -168s-11 -184 -11 -314zM99.999 770c0 166.667 7.5 297.835 22.5 393.502s39.167 168.5 72.5 218.5c44 70 97.167 120 159.5 150s144.166 45 245.499 45c100 0 181.167 -14.833 243.5 -44.5s116.5 -79.834 162.5 -150.501
c31.333 -48.667 55 -122.667 71 -222c7.33301 -46.667 13 -103 17 -169s6 -139.667 6 -221c0 -166 -7.66699 -297.167 -23 -393.5s-39 -169.166 -71 -218.499c-45.333 -70.667 -99 -120.834 -161 -150.501s-143.667 -44.5 -245 -44.5c-100 0 -181.167 15 -243.5 45
s-116.166 80 -161.499 150c-32 49.333 -56 122.666 -72 219.999c-7.33301 47.333 -13 104 -17 170s-6 140 -6 222zM883.999 1352v80.001c32.667 3.33301 58.667 17.666 78 42.999s29 57.666 29 96.999v12h-107v213h199v-214c0 -65.333 -17.667 -118.666 -53 -159.999
s-84 -65 -146 -71z" />
    <glyph glyph-name="ow" unicode="&#x1a1;" horiz-adv-x="979" 
d="M356 590v-27c0 -178 9 -287.333 27 -328s52.667 -61 104 -61c53.333 0 89.333 18.667 108 56c9.33301 19.333 16.333 53 21 101s7 112.333 7 193v47v66c0 152 -9.66699 247 -29 285c-18 39.333 -53 59 -105 59c-50 0 -84.667 -18 -104 -54s-29 -121.667 -29 -257v-80z
M838 1002c39.333 -92.667 59 -234 59 -424c0 -232.667 -30 -392.334 -90 -479.001s-166 -130 -318 -130c-150 0 -255.333 43 -316 129s-91 246 -91 480c0 232.667 30.167 392.5 90.5 479.5s165.833 130.5 316.5 130.5c143.333 0 246 -38.333 308 -115
c10.667 6.66699 20 15.334 28 26.001c19.333 25.333 29 57.666 29 96.999v12h-107v213h199v-214c0 -65.333 -17.667 -118.666 -53 -159.999c-16 -18.667 -34.333 -33.667 -55 -45z" />
    <glyph glyph-name="U)" unicode="&#x1af;" horiz-adv-x="1223" 
d="M1094 1366l0.000976562 -889c0 -102 -5.66699 -177 -17 -225s-31 -90.333 -59 -127c-40.667 -53.333 -95.334 -94 -164.001 -122c-34.667 -13.333 -71.667 -23.333 -111 -30s-83 -10 -131 -10c-175.333 0 -299.333 38 -372 114s-109 209.333 -109 400v1063h287v-1038
c0 -118 14.5 -198.333 43.5 -241s80.5 -64 154.5 -64c72.667 0 123.334 21.5 152.001 64.5s43 124.5 43 244.5v1034h283v-81c5.33301 4.66699 10.333 10 15 16c19.333 25.333 29 57.666 29 96.999v12h-107v213h199v-214c0 -65.333 -17.667 -118.666 -53 -159.999
c-22.667 -26 -50.334 -45 -83.001 -57z" />
    <glyph glyph-name="u(" unicode="&#x1b0;" horiz-adv-x="991" 
d="M877 991l0.00195312 -991.002h-263v115c-26.667 -48 -61 -84.333 -103 -109c-19.333 -11.333 -41 -20.333 -65 -27s-49 -10 -75 -10c-84.667 0 -148.834 23.833 -192.501 71.5s-65.5 116.834 -65.5 207.501v909h258v-756c0 -77.333 8.66699 -130.333 26 -159
s46.666 -43 87.999 -43c44 0 75.5 16.333 94.5 49s28.5 89.334 28.5 170.001v739h269v-71c4 4 8 8.33301 12 13c19.333 25.333 29 57.666 29 96.999v12h-107v213h199v-214c0 -65.333 -17.667 -118.666 -53 -159.999c-21.333 -25.333 -48 -44 -80 -56z" />
    <glyph glyph-name="Anang" unicode="&#x1ea0;" horiz-adv-x="1120" 
d="M430 618h244l-123 646zM18 0l347 1540h385l350 -1540h-309l-76 387h-330l-74 -387h-293zM449 -390v237h220v-237h-220z" />
    <glyph glyph-name="anang" unicode="&#x1ea1;" horiz-adv-x="993" 
d="M627 606c-100 -50 -168 -95.334 -204 -136.001s-54 -88 -54 -142c0 -51.333 9.5 -89.166 28.5 -113.499s48.833 -36.5 89.5 -36.5c46 0 80.833 20.333 104.5 61s35.5 101.667 35.5 183v184zM664 -0.000976562c-5.33301 7.33301 -10.667 20.332 -16 38.999l-13 73
c-27.333 -45.333 -63.333 -80.5 -108 -105.5s-96.667 -37.5 -156 -37.5c-88 0 -156.5 29.833 -205.5 89.5s-73.5 141.834 -73.5 246.501c0 94.667 21.333 170 64 226s128 113 256 171l54 24c104.667 44 157 96.333 157 157c0 36 -10.167 64 -30.5 84s-49.833 30 -88.5 30
c-48 0 -83.667 -13.167 -107 -39.5s-35 -66.833 -35 -121.5v-23h-260c0 130 32 224.667 96 284s166 89 306 89s238.5 -27.333 295.5 -82s85.5 -149.667 85.5 -285v-653c0 -31.333 3 -60.333 9 -87s16 -53 30 -79h-260zM462.999 -390.002v237h220v-237h-220z" />
    <glyph glyph-name="Ahoi" unicode="&#x1ea2;" horiz-adv-x="1120" 
d="M430 618h244l-123 646zM18 0l347 1540h385l350 -1540h-309l-76 387h-330l-74 -387h-293zM523 1907l-116.002 -0.000976562v19c0 51.333 13.833 91.666 41.5 120.999s68.167 44 121.5 44c51.333 0 91.5 -14.333 120.5 -43s43.5 -66.667 43.5 -114c0 -18 -2 -34.667 -6 -50
s-10 -29.666 -18 -42.999c-9.33301 -16.667 -24 -36.334 -44 -59.001s-33 -38.334 -39 -47.001c-9.33301 -12 -16.166 -25.333 -20.499 -40s-6.5 -31 -6.5 -49v-7l1 -11h-113l-2 15v17c0 14 0.833008 26.833 2.5 38.5s4.16699 22.834 7.5 33.501
c6.66699 20.667 19 42.334 37 65.001l20 25c34.667 40 52 79 52 117c0 20.667 -3.66699 35.834 -11 45.501s-16.666 14.5 -27.999 14.5c-12.667 0 -23 -5.66699 -31 -17s-12 -30.333 -12 -57v-18z" />
    <glyph glyph-name="ahoi" unicode="&#x1ea3;" horiz-adv-x="993" 
d="M627 606c-100 -50 -168 -95.334 -204 -136.001s-54 -88 -54 -142c0 -51.333 9.5 -89.166 28.5 -113.499s48.833 -36.5 89.5 -36.5c46 0 80.833 20.333 104.5 61s35.5 101.667 35.5 183v184zM664 -0.000976562c-5.33301 7.33301 -10.667 20.332 -16 38.999l-13 73
c-27.333 -45.333 -63.333 -80.5 -108 -105.5s-96.667 -37.5 -156 -37.5c-88 0 -156.5 29.833 -205.5 89.5s-73.5 141.834 -73.5 246.501c0 94.667 21.333 170 64 226s128 113 256 171l54 24c104.667 44 157 96.333 157 157c0 36 -10.167 64 -30.5 84s-49.833 30 -88.5 30
c-48 0 -83.667 -13.167 -107 -39.5s-35 -66.833 -35 -121.5v-23h-260c0 130 32 224.667 96 284s166 89 306 89s238.5 -27.333 295.5 -82s85.5 -149.667 85.5 -285v-653c0 -31.333 3 -60.333 9 -87s16 -53 30 -79h-260zM455.999 1531l-116.002 -0.000976562v19
c0 51.333 13.833 91.666 41.5 120.999s68.167 44 121.5 44c51.333 0 91.5 -14.333 120.5 -43s43.5 -66.667 43.5 -114c0 -18 -2 -34.667 -6 -50s-10 -29.666 -18 -42.999c-9.33301 -16.667 -24 -36.334 -44 -59.001s-33 -38.334 -39 -47.001
c-9.33301 -12 -16.166 -25.333 -20.499 -40s-6.5 -31 -6.5 -49v-7l1 -11h-114l-1 15v17c0 14 0.666992 26.833 2 38.5s4 22.834 8 33.501c6.66699 20.667 19 42.334 37 65.001l20 25c34.667 40 52 79 52 117c0 20.667 -3.66699 35.834 -11 45.501s-16.666 14.5 -27.999 14.5
c-12.667 0 -23 -5.66699 -31 -17s-12 -30.333 -12 -57v-18z" />
    <glyph glyph-name="AAsac" unicode="&#x1ea4;" horiz-adv-x="1120" 
d="M430 618h244l-123 646zM18 0l347 1540h385l350 -1540h-309l-76 387h-330l-74 -387h-293zM285 1669l174 285h204l174 -285h-124l-152 150l-152 -150h-124zM914 2165h256l-305 -285h-125z" />
    <glyph glyph-name="aasac" unicode="&#x1ea5;" horiz-adv-x="993" 
d="M627 606c-100 -50 -168 -95.334 -204 -136.001s-54 -88 -54 -142c0 -51.333 9.5 -89.166 28.5 -113.499s48.833 -36.5 89.5 -36.5c46 0 80.833 20.333 104.5 61s35.5 101.667 35.5 183v184zM664 -0.000976562c-5.33301 7.33301 -10.667 20.332 -16 38.999l-13 73
c-27.333 -45.333 -63.333 -80.5 -108 -105.5s-96.667 -37.5 -156 -37.5c-88 0 -156.5 29.833 -205.5 89.5s-73.5 141.834 -73.5 246.501c0 94.667 21.333 170 64 226s128 113 256 171l54 24c104.667 44 157 96.333 157 157c0 36 -10.167 64 -30.5 84s-49.833 30 -88.5 30
c-48 0 -83.667 -13.167 -107 -39.5s-35 -66.833 -35 -121.5v-23h-260c0 130 32 224.667 96 284s166 89 306 89s238.5 -27.333 295.5 -82s85.5 -149.667 85.5 -285v-653c0 -31.333 3 -60.333 9 -87s16 -53 30 -79h-260zM221.999 1280l174 285h204l174 -285h-124l-152 150
l-152 -150h-124zM841.999 1776h256l-305 -285h-125z" />
    <glyph glyph-name="AAhuyen" unicode="&#x1ea6;" horiz-adv-x="1120" 
d="M430 618h244l-123 646zM18 0l347 1540h385l350 -1540h-309l-76 387h-330l-74 -387h-293zM285 1669l174 285h204l174 -285h-124l-152 150l-152 -150h-124zM922 1880h-125l-305 285h256z" />
    <glyph glyph-name="aahuyen" unicode="&#x1ea7;" horiz-adv-x="993" 
d="M627 606c-100 -50 -168 -95.334 -204 -136.001s-54 -88 -54 -142c0 -51.333 9.5 -89.166 28.5 -113.499s48.833 -36.5 89.5 -36.5c46 0 80.833 20.333 104.5 61s35.5 101.667 35.5 183v184zM664 -0.000976562c-5.33301 7.33301 -10.667 20.332 -16 38.999l-13 73
c-27.333 -45.333 -63.333 -80.5 -108 -105.5s-96.667 -37.5 -156 -37.5c-88 0 -156.5 29.833 -205.5 89.5s-73.5 141.834 -73.5 246.501c0 94.667 21.333 170 64 226s128 113 256 171l54 24c104.667 44 157 96.333 157 157c0 36 -10.167 64 -30.5 84s-49.833 30 -88.5 30
c-48 0 -83.667 -13.167 -107 -39.5s-35 -66.833 -35 -121.5v-23h-260c0 130 32 224.667 96 284s166 89 306 89s238.5 -27.333 295.5 -82s85.5 -149.667 85.5 -285v-653c0 -31.333 3 -60.333 9 -87s16 -53 30 -79h-260zM221.999 1280l174 285h204l174 -285h-124l-152 150
l-152 -150h-124zM849.999 1491h-125l-305 285h256z" />
    <glyph glyph-name="AAhoi" unicode="&#x1ea8;" horiz-adv-x="1120" 
d="M430 618h244l-123 646zM18 0l347 1540h385l350 -1540h-309l-76 387h-330l-74 -387h-293zM285 1669l174 285h204l174 -285h-124l-152 150l-152 -150h-124zM800 2138h-116.002v19c0 51.333 13.833 91.666 41.5 121c27.667 29.333 68.167 44 121.5 44
c51.333 0 91.5 -14.333 120.5 -43s43.5 -66.667 43.5 -114c0 -18 -2 -34.667 -6 -50s-10 -29.666 -18 -43c-9.33301 -16.667 -24 -36.334 -44 -59.001s-33 -38.334 -39 -47.001c-9.33301 -12 -16.166 -25.333 -20.499 -40s-6.5 -31 -6.5 -49v-7l1 -11h-113l-2 15v17
c0 14 0.833008 26.833 2.5 38.5s4.16699 22.834 7.5 33.501c6.66699 20.667 19 42.334 37 65.001l20 25c34.667 40 52 79 52 117c0 20.667 -3.66699 35.834 -11 45.5c-7.33301 9.66699 -16.666 14.5 -27.999 14.5c-12.667 0 -23 -5.66699 -31 -17s-12 -30.333 -12 -57v-18z
" />
    <glyph glyph-name="aahoi" unicode="&#x1ea9;" horiz-adv-x="993" 
d="M627 606c-100 -50 -168 -95.334 -204 -136.001s-54 -88 -54 -142c0 -51.333 9.5 -89.166 28.5 -113.499s48.833 -36.5 89.5 -36.5c46 0 80.833 20.333 104.5 61s35.5 101.667 35.5 183v184zM664 -0.000976562c-5.33301 7.33301 -10.667 20.332 -16 38.999l-13 73
c-27.333 -45.333 -63.333 -80.5 -108 -105.5s-96.667 -37.5 -156 -37.5c-88 0 -156.5 29.833 -205.5 89.5s-73.5 141.834 -73.5 246.501c0 94.667 21.333 170 64 226s128 113 256 171l54 24c104.667 44 157 96.333 157 157c0 36 -10.167 64 -30.5 84s-49.833 30 -88.5 30
c-48 0 -83.667 -13.167 -107 -39.5s-35 -66.833 -35 -121.5v-23h-260c0 130 32 224.667 96 284s166 89 306 89s238.5 -27.333 295.5 -82s85.5 -149.667 85.5 -285v-653c0 -31.333 3 -60.333 9 -87s16 -53 30 -79h-260zM221.999 1280l174 285h204l174 -285h-124l-152 150
l-152 -150h-124zM721.999 1752l-116.002 -0.000976562v19c0 51.333 13.833 91.666 41.5 120.999s68.167 44 121.5 44c51.333 0 91.5 -14.333 120.5 -43s43.5 -66.667 43.5 -114c0 -18 -2 -34.667 -6 -50s-10 -29.666 -18 -42.999c-9.33301 -16.667 -24 -36.334 -44 -59.001
s-33 -38.334 -39 -47.001c-9.33301 -12 -16.166 -25.333 -20.499 -40s-6.5 -31 -6.5 -49v-7l1 -11h-114l-1 15v17c0 14 0.666992 26.833 2 38.5s4 22.834 8 33.501c6.66699 20.667 19 42.334 37 65.001l20 25c34.667 40 52 79 52 117c0 20.667 -3.66699 35.834 -11 45.501
s-16.666 14.5 -27.999 14.5c-12.667 0 -23 -5.66699 -31 -17s-12 -30.333 -12 -57v-18z" />
    <glyph glyph-name="AAnga" unicode="&#x1eaa;" horiz-adv-x="1120" 
d="M430 618h244l-123 646zM18 0l347 1540h385l350 -1540h-309l-76 387h-330l-74 -387h-293zM285 1669l174 285h204l174 -285h-124l-152 150l-152 -150h-124zM404 1965h-87.9961c13.333 78 35.166 136.167 65.499 174.5s68.166 57.5 113.499 57.5
c13.333 0 23.333 -0.666992 30 -2l31 -6l110 -33l23 -5l25 -1c20 0 36.167 6.16699 48.5 18.5s21.5 31.166 27.5 56.5h88c-10.667 -73.333 -32.334 -131.166 -65.001 -173.5c-32.667 -42.333 -73.334 -63.5 -122.001 -63.5c-11.333 0 -20 0.666992 -26 2l-25 6l-121 35
l-16 4l-17 2c-20.667 0 -38 -6 -52 -18s-24 -30 -30 -54z" />
    <glyph glyph-name="aanga" unicode="&#x1eab;" horiz-adv-x="993" 
d="M627 606c-100 -50 -168 -95.334 -204 -136.001s-54 -88 -54 -142c0 -51.333 9.5 -89.166 28.5 -113.499s48.833 -36.5 89.5 -36.5c46 0 80.833 20.333 104.5 61s35.5 101.667 35.5 183v184zM664 -0.000976562c-5.33301 7.33301 -10.667 20.332 -16 38.999l-13 73
c-27.333 -45.333 -63.333 -80.5 -108 -105.5s-96.667 -37.5 -156 -37.5c-88 0 -156.5 29.833 -205.5 89.5s-73.5 141.834 -73.5 246.501c0 94.667 21.333 170 64 226s128 113 256 171l54 24c104.667 44 157 96.333 157 157c0 36 -10.167 64 -30.5 84s-49.833 30 -88.5 30
c-48 0 -83.667 -13.167 -107 -39.5s-35 -66.833 -35 -121.5v-23h-260c0 130 32 224.667 96 284s166 89 306 89s238.5 -27.333 295.5 -82s85.5 -149.667 85.5 -285v-653c0 -31.333 3 -60.333 9 -87s16 -53 30 -79h-260zM221.999 1280l174 285h204l174 -285h-124l-152 150
l-152 -150h-124zM341.999 1586h-87.9961c13.333 78 35.166 136.167 65.499 174.5s68.166 57.5 113.499 57.5c13.333 0 23.333 -0.666992 30 -2l31 -6l110 -33l23 -5l25 -1c20 0 36.167 6.16699 48.5 18.5s21.5 31.166 27.5 56.499h88
c-10.667 -73.333 -32.334 -131.166 -65.001 -173.499s-73.334 -63.5 -122.001 -63.5c-11.333 0 -20 0.666992 -26 2l-25 6l-121 35l-16 4l-17 2c-20.667 0 -38 -6 -52 -18s-24 -30 -30 -54z" />
    <glyph glyph-name="AAnang" unicode="&#x1eac;" horiz-adv-x="1120" 
d="M430 618h244l-123 646zM18 0l347 1540h385l350 -1540h-309l-76 387h-330l-74 -387h-293zM285 1669l174 285h204l174 -285h-124l-152 150l-152 -150h-124zM449 -390v237h220v-237h-220z" />
    <glyph glyph-name="aanang" unicode="&#x1ead;" horiz-adv-x="993" 
d="M627 606c-100 -50 -168 -95.334 -204 -136.001s-54 -88 -54 -142c0 -51.333 9.5 -89.166 28.5 -113.499s48.833 -36.5 89.5 -36.5c46 0 80.833 20.333 104.5 61s35.5 101.667 35.5 183v184zM664 -0.000976562c-5.33301 7.33301 -10.667 20.332 -16 38.999l-13 73
c-27.333 -45.333 -63.333 -80.5 -108 -105.5s-96.667 -37.5 -156 -37.5c-88 0 -156.5 29.833 -205.5 89.5s-73.5 141.834 -73.5 246.501c0 94.667 21.333 170 64 226s128 113 256 171l54 24c104.667 44 157 96.333 157 157c0 36 -10.167 64 -30.5 84s-49.833 30 -88.5 30
c-48 0 -83.667 -13.167 -107 -39.5s-35 -66.833 -35 -121.5v-23h-260c0 130 32 224.667 96 284s166 89 306 89s238.5 -27.333 295.5 -82s85.5 -149.667 85.5 -285v-653c0 -31.333 3 -60.333 9 -87s16 -53 30 -79h-260zM221.999 1280l174 285h204l174 -285h-124l-152 150
l-152 -150h-124zM462.999 -390.002v237h220v-237h-220z" />
    <glyph glyph-name="A(sac" unicode="&#x1eae;" horiz-adv-x="1120" 
d="M430 618h244l-123 646zM18 0l347 1540h385l350 -1540h-309l-76 387h-330l-74 -387h-293zM285 1907l113.998 -0.000976562c6.66699 -42 22.834 -73 48.501 -93s62.834 -30 111.501 -30c48 0 85.167 9.83301 111.5 29.5s42.5 50.834 48.5 93.501h114
c-9.33301 -98.667 -36 -170.834 -80 -216.501s-108.667 -68.5 -194 -68.5c-83.333 0 -147.333 22.833 -192 68.5s-72 117.834 -82 216.501zM654.998 2165h256l-305 -285h-125z" />
    <glyph glyph-name="a(sac" unicode="&#x1eaf;" horiz-adv-x="993" 
d="M627 606c-100 -50 -168 -95.334 -204 -136.001s-54 -88 -54 -142c0 -51.333 9.5 -89.166 28.5 -113.499s48.833 -36.5 89.5 -36.5c46 0 80.833 20.333 104.5 61s35.5 101.667 35.5 183v184zM664 -0.000976562c-5.33301 7.33301 -10.667 20.332 -16 38.999l-13 73
c-27.333 -45.333 -63.333 -80.5 -108 -105.5s-96.667 -37.5 -156 -37.5c-88 0 -156.5 29.833 -205.5 89.5s-73.5 141.834 -73.5 246.501c0 94.667 21.333 170 64 226s128 113 256 171l54 24c104.667 44 157 96.333 157 157c0 36 -10.167 64 -30.5 84s-49.833 30 -88.5 30
c-48 0 -83.667 -13.167 -107 -39.5s-35 -66.833 -35 -121.5v-23h-260c0 130 32 224.667 96 284s166 89 306 89s238.5 -27.333 295.5 -82s85.5 -149.667 85.5 -285v-653c0 -31.333 3 -60.333 9 -87s16 -53 30 -79h-260zM223.999 1565l113.998 -0.000976562
c6.66699 -42 22.834 -73 48.501 -93s62.834 -30 111.501 -30c48 0 85.167 9.83301 111.5 29.5s42.5 50.834 48.5 93.501h114c-9.33301 -98.667 -36 -170.834 -80 -216.501s-108.667 -68.5 -194 -68.5c-83.333 0 -147.333 22.833 -192 68.5s-72 117.834 -82 216.501z
M574.997 1822h256l-305 -285h-125z" />
    <glyph glyph-name="A(huyen" unicode="&#x1eb0;" horiz-adv-x="1120" 
d="M430 618h244l-123 646zM18 0l347 1540h385l350 -1540h-309l-76 387h-330l-74 -387h-293zM285 1907l113.998 -0.000976562c6.66699 -42 22.834 -73 48.501 -93s62.834 -30 111.501 -30c48 0 85.167 9.83301 111.5 29.5s42.5 50.834 48.5 93.501h114
c-9.33301 -98.667 -36 -170.834 -80 -216.501s-108.667 -68.5 -194 -68.5c-83.333 0 -147.333 22.833 -192 68.5s-72 117.834 -82 216.501zM646.998 1880h-125l-305 285h256z" />
    <glyph glyph-name="a(huyen" unicode="&#x1eb1;" horiz-adv-x="993" 
d="M627 606c-100 -50 -168 -95.334 -204 -136.001s-54 -88 -54 -142c0 -51.333 9.5 -89.166 28.5 -113.499s48.833 -36.5 89.5 -36.5c46 0 80.833 20.333 104.5 61s35.5 101.667 35.5 183v184zM664 -0.000976562c-5.33301 7.33301 -10.667 20.332 -16 38.999l-13 73
c-27.333 -45.333 -63.333 -80.5 -108 -105.5s-96.667 -37.5 -156 -37.5c-88 0 -156.5 29.833 -205.5 89.5s-73.5 141.834 -73.5 246.501c0 94.667 21.333 170 64 226s128 113 256 171l54 24c104.667 44 157 96.333 157 157c0 36 -10.167 64 -30.5 84s-49.833 30 -88.5 30
c-48 0 -83.667 -13.167 -107 -39.5s-35 -66.833 -35 -121.5v-23h-260c0 130 32 224.667 96 284s166 89 306 89s238.5 -27.333 295.5 -82s85.5 -149.667 85.5 -285v-653c0 -31.333 3 -60.333 9 -87s16 -53 30 -79h-260zM223.999 1565l113.998 -0.000976562
c6.66699 -42 22.834 -73 48.501 -93s62.834 -30 111.501 -30c48 0 85.167 9.83301 111.5 29.5s42.5 50.834 48.5 93.501h114c-9.33301 -98.667 -36 -170.834 -80 -216.501s-108.667 -68.5 -194 -68.5c-83.333 0 -147.333 22.833 -192 68.5s-72 117.834 -82 216.501z
M601.997 1528h-125l-305 285h256z" />
    <glyph glyph-name="A(hoi" unicode="&#x1eb2;" horiz-adv-x="1120" 
d="M430 618h244l-123 646zM18 0l347 1540h385l350 -1540h-309l-76 387h-330l-74 -387h-293zM285 1907l113.998 -0.000976562c6.66699 -42 22.834 -73 48.501 -93s62.834 -30 111.501 -30c48 0 85.167 9.83301 111.5 29.5s42.5 50.834 48.5 93.501h114
c-9.33301 -98.667 -36 -170.834 -80 -216.501s-108.667 -68.5 -194 -68.5c-83.333 0 -147.333 22.833 -192 68.5s-72 117.834 -82 216.501zM552.998 2157l-116.002 -0.000976562v19c0 51.333 13.833 91.666 41.5 121c27.667 29.333 68.167 44 121.5 44
c51.333 0 91.5 -14.333 120.5 -43s43.5 -66.667 43.5 -114c0 -18 -2 -34.667 -6 -50s-10 -29.666 -18 -43c-9.33301 -16.667 -24 -36.334 -44 -59.001s-33 -38.334 -39 -47.001c-9.33301 -12 -16.166 -25.333 -20.499 -40s-6.5 -31 -6.5 -49v-7l1 -11h-113l-2 15v17
c0 14 0.833008 26.833 2.5 38.5s4.16699 22.834 7.5 33.501c6.66699 20.667 19 42.334 37 65.001l20 25c34.667 40 52 79 52 117c0 20.667 -3.66699 35.834 -11 45.501s-16.666 14.5 -27.999 14.5c-12.667 0 -23 -5.66699 -31 -17s-12 -30.333 -12 -57v-18z" />
    <glyph glyph-name="a(hoi" unicode="&#x1eb3;" horiz-adv-x="993" 
d="M627 606c-100 -50 -168 -95.334 -204 -136.001s-54 -88 -54 -142c0 -51.333 9.5 -89.166 28.5 -113.499s48.833 -36.5 89.5 -36.5c46 0 80.833 20.333 104.5 61s35.5 101.667 35.5 183v184zM664 -0.000976562c-5.33301 7.33301 -10.667 20.332 -16 38.999l-13 73
c-27.333 -45.333 -63.333 -80.5 -108 -105.5s-96.667 -37.5 -156 -37.5c-88 0 -156.5 29.833 -205.5 89.5s-73.5 141.834 -73.5 246.501c0 94.667 21.333 170 64 226s128 113 256 171l54 24c104.667 44 157 96.333 157 157c0 36 -10.167 64 -30.5 84s-49.833 30 -88.5 30
c-48 0 -83.667 -13.167 -107 -39.5s-35 -66.833 -35 -121.5v-23h-260c0 130 32 224.667 96 284s166 89 306 89s238.5 -27.333 295.5 -82s85.5 -149.667 85.5 -285v-653c0 -31.333 3 -60.333 9 -87s16 -53 30 -79h-260zM223.999 1565l113.998 -0.000976562
c6.66699 -42 22.834 -73 48.501 -93s62.834 -30 111.501 -30c48 0 85.167 9.83301 111.5 29.5s42.5 50.834 48.5 93.501h114c-9.33301 -98.667 -36 -170.834 -80 -216.501s-108.667 -68.5 -194 -68.5c-83.333 0 -147.333 22.833 -192 68.5s-72 117.834 -82 216.501z
M483.997 1798l-116.002 -0.000976562v19c0 51.333 13.833 91.666 41.5 120.999s68.167 44 121.5 44c51.333 0 91.5 -14.333 120.5 -43s43.5 -66.667 43.5 -114c0 -18 -2 -34.667 -6 -50s-10 -29.666 -18 -42.999c-9.33301 -16.667 -24 -36.334 -44 -59.001
s-33 -38.334 -39 -47.001c-9.33301 -12 -16.166 -25.333 -20.499 -40s-6.5 -31 -6.5 -49v-7l1 -11h-114l-1 15v17c0 14 0.666992 26.833 2 38.5s4 22.834 8 33.501c6.66699 20.667 19 42.334 37 65.001l20 25c34.667 40 52 79 52 117c0 20.667 -3.66699 35.834 -11 45.501
s-16.666 14.5 -27.999 14.5c-12.667 0 -23 -5.66699 -31 -17s-12 -30.333 -12 -57v-18z" />
    <glyph glyph-name="A(nga" unicode="&#x1eb4;" horiz-adv-x="1120" 
d="M430 618h244l-123 646zM18 0l347 1540h385l350 -1540h-309l-76 387h-330l-74 -387h-293zM285 1907l113.998 -0.000976562c6.66699 -42 22.834 -73 48.501 -93s62.834 -30 111.501 -30c48 0 85.167 9.83301 111.5 29.5s42.5 50.834 48.5 93.501h114
c-9.33301 -98.667 -36 -170.834 -80 -216.501s-108.667 -68.5 -194 -68.5c-83.333 0 -147.333 22.833 -192 68.5s-72 117.834 -82 216.501zM403.998 1965l-87.9961 -0.000976562c13.333 78 35.166 136.167 65.499 174.5s68.166 57.5 113.499 57.5
c13.333 0 23.333 -0.666992 30 -2l31 -6l110 -33l23 -5l25 -1c20 0 36.167 6.16699 48.5 18.5s21.5 31.166 27.5 56.5h88c-10.667 -73.333 -32.334 -131.166 -65.001 -173.499s-73.334 -63.5 -122.001 -63.5c-11.333 0 -20 0.666992 -26 2l-25 6l-121 35l-16 4l-17 2
c-20.667 0 -38 -6 -52 -18s-24 -30 -30 -54z" />
    <glyph glyph-name="a(nga" unicode="&#x1eb5;" horiz-adv-x="993" 
d="M627 606c-100 -50 -168 -95.334 -204 -136.001s-54 -88 -54 -142c0 -51.333 9.5 -89.166 28.5 -113.499s48.833 -36.5 89.5 -36.5c46 0 80.833 20.333 104.5 61s35.5 101.667 35.5 183v184zM664 -0.000976562c-5.33301 7.33301 -10.667 20.332 -16 38.999l-13 73
c-27.333 -45.333 -63.333 -80.5 -108 -105.5s-96.667 -37.5 -156 -37.5c-88 0 -156.5 29.833 -205.5 89.5s-73.5 141.834 -73.5 246.501c0 94.667 21.333 170 64 226s128 113 256 171l54 24c104.667 44 157 96.333 157 157c0 36 -10.167 64 -30.5 84s-49.833 30 -88.5 30
c-48 0 -83.667 -13.167 -107 -39.5s-35 -66.833 -35 -121.5v-23h-260c0 130 32 224.667 96 284s166 89 306 89s238.5 -27.333 295.5 -82s85.5 -149.667 85.5 -285v-653c0 -31.333 3 -60.333 9 -87s16 -53 30 -79h-260zM223.999 1565l113.998 -0.000976562
c6.66699 -42 22.834 -73 48.501 -93s62.834 -30 111.501 -30c48 0 85.167 9.83301 111.5 29.5s42.5 50.834 48.5 93.501h114c-9.33301 -98.667 -36 -170.834 -80 -216.501s-108.667 -68.5 -194 -68.5c-83.333 0 -147.333 22.833 -192 68.5s-72 117.834 -82 216.501z
M359.997 1586h-87.9961c13.333 78 35.166 136.167 65.499 174.5s68.166 57.5 113.499 57.5c13.333 0 23.333 -0.666992 30 -2l31 -6l110 -33l23 -5l25 -1c20 0 36.167 6.16699 48.5 18.5s21.5 31.166 27.5 56.499h88c-10.667 -73.333 -32.334 -131.166 -65.001 -173.499
s-73.334 -63.5 -122.001 -63.5c-11.333 0 -20 0.666992 -26 2l-25 6l-121 35l-16 4l-17 2c-20.667 0 -38 -6 -52 -18s-24 -30 -30 -54z" />
    <glyph glyph-name="A(nang" unicode="&#x1eb6;" horiz-adv-x="1120" 
d="M430 618h244l-123 646zM18 0l347 1540h385l350 -1540h-309l-76 387h-330l-74 -387h-293zM285 1907l113.998 -0.000976562c6.66699 -42 22.834 -73 48.501 -93s62.834 -30 111.501 -30c48 0 85.167 9.83301 111.5 29.5s42.5 50.834 48.5 93.501h114
c-9.33301 -98.667 -36 -170.834 -80 -216.501s-108.667 -68.5 -194 -68.5c-83.333 0 -147.333 22.833 -192 68.5s-72 117.834 -82 216.501zM448.998 -390.001v237h220v-237h-220z" />
    <glyph glyph-name="a(nang" unicode="&#x1eb7;" horiz-adv-x="993" 
d="M627 606c-100 -50 -168 -95.334 -204 -136.001s-54 -88 -54 -142c0 -51.333 9.5 -89.166 28.5 -113.499s48.833 -36.5 89.5 -36.5c46 0 80.833 20.333 104.5 61s35.5 101.667 35.5 183v184zM664 -0.000976562c-5.33301 7.33301 -10.667 20.332 -16 38.999l-13 73
c-27.333 -45.333 -63.333 -80.5 -108 -105.5s-96.667 -37.5 -156 -37.5c-88 0 -156.5 29.833 -205.5 89.5s-73.5 141.834 -73.5 246.501c0 94.667 21.333 170 64 226s128 113 256 171l54 24c104.667 44 157 96.333 157 157c0 36 -10.167 64 -30.5 84s-49.833 30 -88.5 30
c-48 0 -83.667 -13.167 -107 -39.5s-35 -66.833 -35 -121.5v-23h-260c0 130 32 224.667 96 284s166 89 306 89s238.5 -27.333 295.5 -82s85.5 -149.667 85.5 -285v-653c0 -31.333 3 -60.333 9 -87s16 -53 30 -79h-260zM223.999 1565l113.998 -0.000976562
c6.66699 -42 22.834 -73 48.501 -93s62.834 -30 111.501 -30c48 0 85.167 9.83301 111.5 29.5s42.5 50.834 48.5 93.501h114c-9.33301 -98.667 -36 -170.834 -80 -216.501s-108.667 -68.5 -194 -68.5c-83.333 0 -147.333 22.833 -192 68.5s-72 117.834 -82 216.501z
M462.997 -390.003v237h220v-237h-220z" />
    <glyph glyph-name="Enang" unicode="&#x1eb8;" horiz-adv-x="1014" 
d="M131 0v1540h791v-256h-506v-356h471v-244h-471v-424h518v-260h-803zM449 -390v237h220v-237h-220z" />
    <glyph glyph-name="enang" unicode="&#x1eb9;" horiz-adv-x="975" 
d="M358 725h260v49c0 79.333 -9.66699 134 -29 164s-53.333 45 -102 45c-46.667 0 -80.167 -15.333 -100.5 -46s-30.5 -85 -30.5 -163l1 -17zM627 397l252.002 0.000976562l1 -23l1 -22c0 -132.667 -31.5 -229.667 -94.5 -291s-162.833 -92 -299.5 -92
c-71.333 0 -131.333 9 -180 27s-89 46 -121 84c-36.667 43.333 -63 99.666 -79 168.999c-7.33301 33.333 -13 80.666 -17 141.999s-6 136.333 -6 225c0 142 6.66699 242.833 20 302.5s36.333 109.334 69 149.001s75.667 69.5 129 89.5c27.333 10 56.833 17.667 88.5 23
s66.167 8 103.5 8c70.667 0 132.167 -10.833 184.5 -32.5s95.166 -54.5 128.499 -98.5c28 -37.333 48.333 -86 61 -146c6 -28.667 10.667 -66.667 14 -114s5 -103.333 5 -168v-88h-526l-3 -28v-46c0 -110 10 -187 30 -231s54.667 -66 104 -66c47.333 0 81.666 18 102.999 54
s32 93.667 32 173zM376.002 -389.999v237h220v-237h-220z" />
    <glyph glyph-name="Ehoi" unicode="&#x1eba;" horiz-adv-x="1014" 
d="M131 0v1540h791v-256h-506v-356h471v-244h-471v-424h518v-260h-803zM523 1907l-116.002 -0.000976562v19c0 51.333 13.833 91.666 41.5 120.999s68.167 44 121.5 44c51.333 0 91.5 -14.333 120.5 -43s43.5 -66.667 43.5 -114c0 -18 -2 -34.667 -6 -50
s-10 -29.666 -18 -42.999c-9.33301 -16.667 -24 -36.334 -44 -59.001s-33 -38.334 -39 -47.001c-9.33301 -12 -16.166 -25.333 -20.499 -40s-6.5 -31 -6.5 -49v-7l1 -11h-113l-2 15v17c0 14 0.833008 26.833 2.5 38.5s4.16699 22.834 7.5 33.501
c6.66699 20.667 19 42.334 37 65.001l20 25c34.667 40 52 79 52 117c0 20.667 -3.66699 35.834 -11 45.501s-16.666 14.5 -27.999 14.5c-12.667 0 -23 -5.66699 -31 -17s-12 -30.333 -12 -57v-18z" />
    <glyph glyph-name="ehoi" unicode="&#x1ebb;" horiz-adv-x="975" 
d="M358 725h260v49c0 79.333 -9.66699 134 -29 164s-53.333 45 -102 45c-46.667 0 -80.167 -15.333 -100.5 -46s-30.5 -85 -30.5 -163l1 -17zM627 397l252.002 0.000976562l1 -23l1 -22c0 -132.667 -31.5 -229.667 -94.5 -291s-162.833 -92 -299.5 -92
c-71.333 0 -131.333 9 -180 27s-89 46 -121 84c-36.667 43.333 -63 99.666 -79 168.999c-7.33301 33.333 -13 80.666 -17 141.999s-6 136.333 -6 225c0 142 6.66699 242.833 20 302.5s36.333 109.334 69 149.001s75.667 69.5 129 89.5c27.333 10 56.833 17.667 88.5 23
s66.167 8 103.5 8c70.667 0 132.167 -10.833 184.5 -32.5s95.166 -54.5 128.499 -98.5c28 -37.333 48.333 -86 61 -146c6 -28.667 10.667 -66.667 14 -114s5 -103.333 5 -168v-88h-526l-3 -28v-46c0 -110 10 -187 30 -231s54.667 -66 104 -66c47.333 0 81.666 18 102.999 54
s32 93.667 32 173zM456.002 1531l-116.002 -0.000976562v19c0 51.333 13.833 91.666 41.5 120.999s68.167 44 121.5 44c51.333 0 91.5 -14.333 120.5 -43s43.5 -66.667 43.5 -114c0 -18 -2 -34.667 -6 -50s-10 -29.666 -18 -42.999
c-9.33301 -16.667 -24 -36.334 -44 -59.001s-33 -38.334 -39 -47.001c-9.33301 -12 -16.166 -25.333 -20.499 -40s-6.5 -31 -6.5 -49v-7l1 -11h-114l-1 15v17c0 14 0.666992 26.833 2 38.5s4 22.834 8 33.501c6.66699 20.667 19 42.334 37 65.001l20 25
c34.667 40 52 79 52 117c0 20.667 -3.66699 35.834 -11 45.501s-16.666 14.5 -27.999 14.5c-12.667 0 -23 -5.66699 -31 -17s-12 -30.333 -12 -57v-18z" />
    <glyph glyph-name="Enga" unicode="&#x1ebc;" horiz-adv-x="1014" 
d="M131 0v1540h791v-256h-506v-356h471v-244h-471v-424h518v-260h-803zM368 1681h-87.9961c13.333 78 35.166 136.167 65.499 174.5s68.166 57.5 113.499 57.5c13.333 0 23.333 -0.666992 30 -2l31 -6l110 -33l23 -5l25 -1c20 0 36.167 6.16699 48.5 18.5
s21.5 31.166 27.5 56.499h88c-10.667 -73.333 -32.334 -131.166 -65.001 -173.499s-73.334 -63.5 -122.001 -63.5c-11.333 0 -20 0.666992 -26 2l-25 6l-121 35l-16 4l-17 2c-20.667 0 -38 -6 -52 -18s-24 -30 -30 -54z" />
    <glyph glyph-name="enga" unicode="&#x1ebd;" horiz-adv-x="975" 
d="M358 725h260v49c0 79.333 -9.66699 134 -29 164s-53.333 45 -102 45c-46.667 0 -80.167 -15.333 -100.5 -46s-30.5 -85 -30.5 -163l1 -17zM627 397l252.002 0.000976562l1 -23l1 -22c0 -132.667 -31.5 -229.667 -94.5 -291s-162.833 -92 -299.5 -92
c-71.333 0 -131.333 9 -180 27s-89 46 -121 84c-36.667 43.333 -63 99.666 -79 168.999c-7.33301 33.333 -13 80.666 -17 141.999s-6 136.333 -6 225c0 142 6.66699 242.833 20 302.5s36.333 109.334 69 149.001s75.667 69.5 129 89.5c27.333 10 56.833 17.667 88.5 23
s66.167 8 103.5 8c70.667 0 132.167 -10.833 184.5 -32.5s95.166 -54.5 128.499 -98.5c28 -37.333 48.333 -86 61 -146c6 -28.667 10.667 -66.667 14 -114s5 -103.333 5 -168v-88h-526l-3 -28v-46c0 -110 10 -187 30 -231s54.667 -66 104 -66c47.333 0 81.666 18 102.999 54
s32 93.667 32 173zM305.002 1292h-87.9961c13.333 78 35.166 136.167 65.499 174.5s68.166 57.5 113.499 57.5c13.333 0 23.333 -0.666992 30 -2l31 -6l110 -33l23 -5l25 -1c20 0 36.167 6.16699 48.5 18.5s21.5 31.166 27.5 56.499h88
c-10.667 -73.333 -32.334 -131.166 -65.001 -173.499s-73.334 -63.5 -122.001 -63.5c-11.333 0 -20 0.666992 -26 2l-25 6l-121 35l-16 4l-17 2c-20.667 0 -38 -6 -52 -18s-24 -30 -30 -54z" />
    <glyph glyph-name="EEsac" unicode="&#x1ebe;" horiz-adv-x="1014" 
d="M131 0v1540h791v-256h-506v-356h471v-244h-471v-424h518v-260h-803zM242 1669l174 285h204l174 -285h-124l-152 150l-152 -150h-124zM886 2165h256l-305 -285h-125z" />
    <glyph glyph-name="eesac" unicode="&#x1ebf;" horiz-adv-x="975" 
d="M358 725h260v49c0 79.333 -9.66699 134 -29 164s-53.333 45 -102 45c-46.667 0 -80.167 -15.333 -100.5 -46s-30.5 -85 -30.5 -163l1 -17zM627 397l252.002 0.000976562l1 -23l1 -22c0 -132.667 -31.5 -229.667 -94.5 -291s-162.833 -92 -299.5 -92
c-71.333 0 -131.333 9 -180 27s-89 46 -121 84c-36.667 43.333 -63 99.666 -79 168.999c-7.33301 33.333 -13 80.666 -17 141.999s-6 136.333 -6 225c0 142 6.66699 242.833 20 302.5s36.333 109.334 69 149.001s75.667 69.5 129 89.5c27.333 10 56.833 17.667 88.5 23
s66.167 8 103.5 8c70.667 0 132.167 -10.833 184.5 -32.5s95.166 -54.5 128.499 -98.5c28 -37.333 48.333 -86 61 -146c6 -28.667 10.667 -66.667 14 -114s5 -103.333 5 -168v-88h-526l-3 -28v-46c0 -110 10 -187 30 -231s54.667 -66 104 -66c47.333 0 81.666 18 102.999 54
s32 93.667 32 173zM211.002 1280l174 285h204l174 -285h-124l-152 150l-152 -150h-124zM832.002 1776h256l-305 -285h-125z" />
    <glyph glyph-name="EEhuyen" unicode="&#x1ec0;" horiz-adv-x="1014" 
d="M131 0v1540h791v-256h-506v-356h471v-244h-471v-424h518v-260h-803zM242 1669l174 285h204l174 -285h-124l-152 150l-152 -150h-124zM885 1880h-125l-305 285h256z" />
    <glyph glyph-name="eehuyen" unicode="&#x1ec1;" horiz-adv-x="975" 
d="M358 725h260v49c0 79.333 -9.66699 134 -29 164s-53.333 45 -102 45c-46.667 0 -80.167 -15.333 -100.5 -46s-30.5 -85 -30.5 -163l1 -17zM627 397l252.002 0.000976562l1 -23l1 -22c0 -132.667 -31.5 -229.667 -94.5 -291s-162.833 -92 -299.5 -92
c-71.333 0 -131.333 9 -180 27s-89 46 -121 84c-36.667 43.333 -63 99.666 -79 168.999c-7.33301 33.333 -13 80.666 -17 141.999s-6 136.333 -6 225c0 142 6.66699 242.833 20 302.5s36.333 109.334 69 149.001s75.667 69.5 129 89.5c27.333 10 56.833 17.667 88.5 23
s66.167 8 103.5 8c70.667 0 132.167 -10.833 184.5 -32.5s95.166 -54.5 128.499 -98.5c28 -37.333 48.333 -86 61 -146c6 -28.667 10.667 -66.667 14 -114s5 -103.333 5 -168v-88h-526l-3 -28v-46c0 -110 10 -187 30 -231s54.667 -66 104 -66c47.333 0 81.666 18 102.999 54
s32 93.667 32 173zM211.002 1280l174 285h204l174 -285h-124l-152 150l-152 -150h-124zM840.002 1491h-125l-305 285h256z" />
    <glyph glyph-name="EEhoi" unicode="&#x1ec2;" horiz-adv-x="1014" 
d="M131 0v1540h791v-256h-506v-356h471v-244h-471v-424h518v-260h-803zM242 1669l174 285h204l174 -285h-124l-152 150l-152 -150h-124zM763 2138h-116.002v19c0 51.333 13.833 91.666 41.5 121c27.667 29.333 68.167 44 121.5 44c51.333 0 91.5 -14.333 120.5 -43
s43.5 -66.667 43.5 -114c0 -18 -2 -34.667 -6 -50s-10 -29.666 -18 -43c-9.33301 -16.667 -24 -36.334 -44 -59.001s-33 -38.334 -39 -47.001c-9.33301 -12 -16.166 -25.333 -20.499 -40s-6.5 -31 -6.5 -49v-7l1 -11h-113l-2 15v17c0 14 0.833008 26.833 2.5 38.5
s4.16699 22.834 7.5 33.501c6.66699 20.667 19 42.334 37 65.001l20 25c34.667 40 52 79 52 117c0 20.667 -3.66699 35.834 -11 45.5c-7.33301 9.66699 -16.666 14.5 -27.999 14.5c-12.667 0 -23 -5.66699 -31 -17s-12 -30.333 -12 -57v-18z" />
    <glyph glyph-name="eehoi" unicode="&#x1ec3;" horiz-adv-x="975" 
d="M358 725h260v49c0 79.333 -9.66699 134 -29 164s-53.333 45 -102 45c-46.667 0 -80.167 -15.333 -100.5 -46s-30.5 -85 -30.5 -163l1 -17zM627 397l252.002 0.000976562l1 -23l1 -22c0 -132.667 -31.5 -229.667 -94.5 -291s-162.833 -92 -299.5 -92
c-71.333 0 -131.333 9 -180 27s-89 46 -121 84c-36.667 43.333 -63 99.666 -79 168.999c-7.33301 33.333 -13 80.666 -17 141.999s-6 136.333 -6 225c0 142 6.66699 242.833 20 302.5s36.333 109.334 69 149.001s75.667 69.5 129 89.5c27.333 10 56.833 17.667 88.5 23
s66.167 8 103.5 8c70.667 0 132.167 -10.833 184.5 -32.5s95.166 -54.5 128.499 -98.5c28 -37.333 48.333 -86 61 -146c6 -28.667 10.667 -66.667 14 -114s5 -103.333 5 -168v-88h-526l-3 -28v-46c0 -110 10 -187 30 -231s54.667 -66 104 -66c47.333 0 81.666 18 102.999 54
s32 93.667 32 173zM211.002 1280l174 285h204l174 -285h-124l-152 150l-152 -150h-124zM713.002 1752l-116.002 -0.000976562v19c0 51.333 13.833 91.666 41.5 120.999s68.167 44 121.5 44c51.333 0 91.5 -14.333 120.5 -43s43.5 -66.667 43.5 -114c0 -18 -2 -34.667 -6 -50
s-10 -29.666 -18 -42.999c-9.33301 -16.667 -24 -36.334 -44 -59.001s-33 -38.334 -39 -47.001c-9.33301 -12 -16.166 -25.333 -20.499 -40s-6.5 -31 -6.5 -49v-7l1 -11h-114l-1 15v17c0 14 0.666992 26.833 2 38.5s4 22.834 8 33.501c6.66699 20.667 19 42.334 37 65.001
l20 25c34.667 40 52 79 52 117c0 20.667 -3.66699 35.834 -11 45.501s-16.666 14.5 -27.999 14.5c-12.667 0 -23 -5.66699 -31 -17s-12 -30.333 -12 -57v-18z" />
    <glyph glyph-name="EEnga" unicode="&#x1ec4;" horiz-adv-x="1014" 
d="M131 0v1540h791v-256h-506v-356h471v-244h-471v-424h518v-260h-803zM242 1669l174 285h204l174 -285h-124l-152 150l-152 -150h-124zM367 1965h-87.9961c13.333 78 35.166 136.167 65.499 174.5s68.166 57.5 113.499 57.5c13.333 0 23.333 -0.666992 30 -2l31 -6l110 -33
l23 -5l25 -1c20 0 36.167 6.16699 48.5 18.5s21.5 31.166 27.5 56.5h88c-10.667 -73.333 -32.334 -131.166 -65.001 -173.5c-32.667 -42.333 -73.334 -63.5 -122.001 -63.5c-11.333 0 -20 0.666992 -26 2l-25 6l-121 35l-16 4l-17 2c-20.667 0 -38 -6 -52 -18
s-24 -30 -30 -54z" />
    <glyph glyph-name="eenga" unicode="&#x1ec5;" horiz-adv-x="975" 
d="M358 725h260v49c0 79.333 -9.66699 134 -29 164s-53.333 45 -102 45c-46.667 0 -80.167 -15.333 -100.5 -46s-30.5 -85 -30.5 -163l1 -17zM627 397l252.002 0.000976562l1 -23l1 -22c0 -132.667 -31.5 -229.667 -94.5 -291s-162.833 -92 -299.5 -92
c-71.333 0 -131.333 9 -180 27s-89 46 -121 84c-36.667 43.333 -63 99.666 -79 168.999c-7.33301 33.333 -13 80.666 -17 141.999s-6 136.333 -6 225c0 142 6.66699 242.833 20 302.5s36.333 109.334 69 149.001s75.667 69.5 129 89.5c27.333 10 56.833 17.667 88.5 23
s66.167 8 103.5 8c70.667 0 132.167 -10.833 184.5 -32.5s95.166 -54.5 128.499 -98.5c28 -37.333 48.333 -86 61 -146c6 -28.667 10.667 -66.667 14 -114s5 -103.333 5 -168v-88h-526l-3 -28v-46c0 -110 10 -187 30 -231s54.667 -66 104 -66c47.333 0 81.666 18 102.999 54
s32 93.667 32 173zM211.002 1280l174 285h204l174 -285h-124l-152 150l-152 -150h-124zM342.002 1586h-87.9961c13.333 78 35.166 136.167 65.499 174.5s68.166 57.5 113.499 57.5c13.333 0 23.333 -0.666992 30 -2l31 -6l110 -33l23 -5l25 -1
c20 0 36.167 6.16699 48.5 18.5s21.5 31.166 27.5 56.499h88c-10.667 -73.333 -32.334 -131.166 -65.001 -173.499s-73.334 -63.5 -122.001 -63.5c-11.333 0 -20 0.666992 -26 2l-25 6l-121 35l-16 4l-17 2c-20.667 0 -38 -6 -52 -18s-24 -30 -30 -54z" />
    <glyph glyph-name="EEnang" unicode="&#x1ec6;" horiz-adv-x="1014" 
d="M131 0v1540h791v-256h-506v-356h471v-244h-471v-424h518v-260h-803zM242 1669l174 285h204l174 -285h-124l-152 150l-152 -150h-124zM449 -390v237h220v-237h-220z" />
    <glyph glyph-name="eenang" unicode="&#x1ec7;" horiz-adv-x="975" 
d="M358 725h260v49c0 79.333 -9.66699 134 -29 164s-53.333 45 -102 45c-46.667 0 -80.167 -15.333 -100.5 -46s-30.5 -85 -30.5 -163l1 -17zM627 397l252.002 0.000976562l1 -23l1 -22c0 -132.667 -31.5 -229.667 -94.5 -291s-162.833 -92 -299.5 -92
c-71.333 0 -131.333 9 -180 27s-89 46 -121 84c-36.667 43.333 -63 99.666 -79 168.999c-7.33301 33.333 -13 80.666 -17 141.999s-6 136.333 -6 225c0 142 6.66699 242.833 20 302.5s36.333 109.334 69 149.001s75.667 69.5 129 89.5c27.333 10 56.833 17.667 88.5 23
s66.167 8 103.5 8c70.667 0 132.167 -10.833 184.5 -32.5s95.166 -54.5 128.499 -98.5c28 -37.333 48.333 -86 61 -146c6 -28.667 10.667 -66.667 14 -114s5 -103.333 5 -168v-88h-526l-3 -28v-46c0 -110 10 -187 30 -231s54.667 -66 104 -66c47.333 0 81.666 18 102.999 54
s32 93.667 32 173zM211.002 1280l174 285h204l174 -285h-124l-152 150l-152 -150h-124zM376.002 -389.999v237h220v-237h-220z" />
    <glyph glyph-name="Ihoi" unicode="&#x1ec8;" horiz-adv-x="549" 
d="M131 0v1540h287v-1540h-287zM257 1907l-116.002 -0.000976562v19c0 51.333 13.833 91.666 41.5 120.999s68.167 44 121.5 44c51.333 0 91.5 -14.333 120.5 -43s43.5 -66.667 43.5 -114c0 -18 -2 -34.667 -6 -50s-10 -29.666 -18 -42.999
c-9.33301 -16.667 -24 -36.334 -44 -59.001s-33 -38.334 -39 -47.001c-9.33301 -12 -16.166 -25.333 -20.499 -40s-6.5 -31 -6.5 -49v-7l1 -11h-113l-2 15v17c0 14 0.833008 26.833 2.5 38.5s4.16699 22.834 7.5 33.501c6.66699 20.667 19 42.334 37 65.001l20 25
c34.667 40 52 79 52 117c0 20.667 -3.66699 35.834 -11 45.501s-16.666 14.5 -27.999 14.5c-12.667 0 -23 -5.66699 -31 -17s-12 -30.333 -12 -57v-18z" />
    <glyph glyph-name="icircumflex" unicode="&#x1ec9;" horiz-adv-x="496" 
d="M115 0v1157h266v-1157h-266zM218 1531l-116.999 -0.000976562v19c0 51.333 13.833 91.666 41.5 120.999s68.167 44 121.5 44c51.333 0 91.666 -14.333 120.999 -43s44 -66.667 44 -114c0 -18 -2.16699 -34.667 -6.5 -50s-10.166 -29.666 -17.499 -42.999
c-10 -16.667 -25 -36.334 -45 -59.001s-33 -38.334 -39 -47.001c-8.66699 -12 -15.334 -25.333 -20.001 -40s-7 -31 -7 -49v-7l1 -11h-113l-2 15v17c0 14 0.833008 26.833 2.5 38.5s4.16699 22.834 7.5 33.501c6.66699 20.667 19 42.334 37 65.001l20 25
c34.667 40 52 79 52 117c0 20.667 -3.66699 35.834 -11 45.501s-16.666 14.5 -27.999 14.5c-12.667 0 -22.834 -5.66699 -30.501 -17s-11.5 -30.333 -11.5 -57v-18z" />
    <glyph glyph-name="Inang" unicode="&#x1eca;" horiz-adv-x="549" 
d="M131 0v1540h287v-1540h-287zM165 -390v237h220v-237h-220z" />
    <glyph glyph-name="uni1ECB" unicode="&#x1ecb;" horiz-adv-x="496" 
d="M115 1300v240h266v-240h-266zM115 0v1157h266v-1157h-266zM138 -390v237h220v-237h-220z" />
    <glyph glyph-name="Onang" unicode="&#x1ecc;" horiz-adv-x="1202" 
d="M393 770c0 -254 14.832 -413.667 44.499 -479s84.5 -98 164.5 -98c77.333 0 130.833 32.167 160.5 96.5s44.5 224.5 44.5 480.5c0 256.667 -14.667 417.5 -44 482.5s-83.666 97.5 -162.999 97.5c-78.667 0 -133 -32.667 -163 -98
c-14.667 -32.667 -25.667 -88.667 -33 -168s-11 -184 -11 -314zM99.999 770c0 166.667 7.5 297.835 22.5 393.502s39.167 168.5 72.5 218.5c44 70 97.167 120 159.5 150s144.166 45 245.499 45c100 0 181.167 -14.833 243.5 -44.5s116.5 -79.834 162.5 -150.501
c31.333 -48.667 55 -122.667 71 -222c7.33301 -46.667 13 -103 17 -169s6 -139.667 6 -221c0 -166 -7.66699 -297.167 -23 -393.5s-39 -169.166 -71 -218.499c-45.333 -70.667 -99 -120.834 -161 -150.501s-143.667 -44.5 -245 -44.5c-100 0 -181.167 15 -243.5 45
s-116.166 80 -161.499 150c-32 49.333 -56 122.666 -72 219.999c-7.33301 47.333 -13 104 -17 170s-6 140 -6 222zM489.999 -389.999v237h220v-237h-220z" />
    <glyph glyph-name="odieresis" unicode="&#x1ecd;" horiz-adv-x="979" 
d="M356 590v-27c0 -178 9 -287.333 27 -328s52.667 -61 104 -61c53.333 0 89.333 18.667 108 56c9.33301 19.333 16.333 53 21 101s7 112.333 7 193v47v66c0 152 -9.66699 247 -29 285c-18 39.333 -53 59 -105 59c-50 0 -84.667 -18 -104 -54s-29 -121.667 -29 -257v-80z
M82 578c0 232.667 30.167 392.501 90.5 479.501s165.833 130.5 316.5 130.5c152 0 258 -43.167 318 -129.5s90 -246.5 90 -480.5c0 -232.667 -30 -392.334 -90 -479.001s-166 -130 -318 -130c-150 0 -255.333 43 -316 129s-91 246 -91 480zM376 -389.999v237h220v-237h-220z
" />
    <glyph glyph-name="Ohoi" unicode="&#x1ece;" horiz-adv-x="1202" 
d="M393 770c0 -254 14.832 -413.667 44.499 -479s84.5 -98 164.5 -98c77.333 0 130.833 32.167 160.5 96.5s44.5 224.5 44.5 480.5c0 256.667 -14.667 417.5 -44 482.5s-83.666 97.5 -162.999 97.5c-78.667 0 -133 -32.667 -163 -98
c-14.667 -32.667 -25.667 -88.667 -33 -168s-11 -184 -11 -314zM99.999 770c0 166.667 7.5 297.835 22.5 393.502s39.167 168.5 72.5 218.5c44 70 97.167 120 159.5 150s144.166 45 245.499 45c100 0 181.167 -14.833 243.5 -44.5s116.5 -79.834 162.5 -150.501
c31.333 -48.667 55 -122.667 71 -222c7.33301 -46.667 13 -103 17 -169s6 -139.667 6 -221c0 -166 -7.66699 -297.167 -23 -393.5s-39 -169.166 -71 -218.499c-45.333 -70.667 -99 -120.834 -161 -150.501s-143.667 -44.5 -245 -44.5c-100 0 -181.167 15 -243.5 45
s-116.166 80 -161.499 150c-32 49.333 -56 122.666 -72 219.999c-7.33301 47.333 -13 104 -17 170s-6 140 -6 222zM552.999 1907l-116.998 -0.000976562v19c0 51.333 13.833 91.666 41.5 120.999s68.5 44 122.5 44c50.667 0 90.667 -14.333 120 -43s44 -66.667 44 -114
c0 -18 -2 -34.667 -6 -50s-10 -29.666 -18 -42.999c-10 -16.667 -24.833 -36.334 -44.5 -59.001s-32.834 -38.334 -39.501 -47.001c-8.66699 -12 -15.334 -25.333 -20.001 -40s-7 -31 -7 -49l1 -7v-11h-113l-2 15v17c0 14 0.833008 26.833 2.5 38.5
s4.16699 22.834 7.5 33.501c7.33301 20.667 19.666 42.334 36.999 65.001l21 25c34.667 40 52 79 52 117c0 20.667 -3.66699 35.834 -11 45.501s-16.666 14.5 -27.999 14.5c-13.333 0 -23.833 -5.66699 -31.5 -17s-11.5 -30.333 -11.5 -57v-18z" />
    <glyph glyph-name="ocircumflex" unicode="&#x1ecf;" horiz-adv-x="979" 
d="M356 590v-27c0 -178 9 -287.333 27 -328s52.667 -61 104 -61c53.333 0 89.333 18.667 108 56c9.33301 19.333 16.333 53 21 101s7 112.333 7 193v47v66c0 152 -9.66699 247 -29 285c-18 39.333 -53 59 -105 59c-50 0 -84.667 -18 -104 -54s-29 -121.667 -29 -257v-80z
M82 578c0 232.667 30.167 392.501 90.5 479.501s165.833 130.5 316.5 130.5c152 0 258 -43.167 318 -129.5s90 -246.5 90 -480.5c0 -232.667 -30 -392.334 -90 -479.001s-166 -130 -318 -130c-150 0 -255.333 43 -316 129s-91 246 -91 480zM456 1531l-116.002 -0.000976562
v19c0 51.333 13.833 91.666 41.5 120.999s68.167 44 121.5 44c51.333 0 91.5 -14.333 120.5 -43s43.5 -66.667 43.5 -114c0 -18 -2 -34.667 -6 -50s-10 -29.666 -18 -42.999c-9.33301 -16.667 -24 -36.334 -44 -59.001s-33 -38.334 -39 -47.001
c-9.33301 -12 -16.166 -25.333 -20.499 -40s-6.5 -31 -6.5 -49v-7l1 -11h-114l-1 15v17c0 14 0.666992 26.833 2 38.5s4 22.834 8 33.501c6.66699 20.667 19 42.334 37 65.001l20 25c34.667 40 52 79 52 117c0 20.667 -3.66699 35.834 -11 45.501s-16.666 14.5 -27.999 14.5
c-12.667 0 -23 -5.66699 -31 -17s-12 -30.333 -12 -57v-18z" />
    <glyph glyph-name="OOsac" unicode="&#x1ed0;" horiz-adv-x="1202" 
d="M393 770c0 -254 14.832 -413.667 44.499 -479s84.5 -98 164.5 -98c77.333 0 130.833 32.167 160.5 96.5s44.5 224.5 44.5 480.5c0 256.667 -14.667 417.5 -44 482.5s-83.666 97.5 -162.999 97.5c-78.667 0 -133 -32.667 -163 -98
c-14.667 -32.667 -25.667 -88.667 -33 -168s-11 -184 -11 -314zM99.999 770c0 166.667 7.5 297.835 22.5 393.502s39.167 168.5 72.5 218.5c44 70 97.167 120 159.5 150s144.166 45 245.499 45c100 0 181.167 -14.833 243.5 -44.5s116.5 -79.834 162.5 -150.501
c31.333 -48.667 55 -122.667 71 -222c7.33301 -46.667 13 -103 17 -169s6 -139.667 6 -221c0 -166 -7.66699 -297.167 -23 -393.5s-39 -169.166 -71 -218.499c-45.333 -70.667 -99 -120.834 -161 -150.501s-143.667 -44.5 -245 -44.5c-100 0 -181.167 15 -243.5 45
s-116.166 80 -161.499 150c-32 49.333 -56 122.666 -72 219.999c-7.33301 47.333 -13 104 -17 170s-6 140 -6 222zM325.999 1669l174 285h204l174 -285h-124l-152 150l-152 -150h-124zM975.999 2165h256l-305 -285h-125z" />
    <glyph glyph-name="uni1ED1" unicode="&#x1ed1;" horiz-adv-x="979" 
d="M356 590v-27c0 -178 9 -287.333 27 -328s52.667 -61 104 -61c53.333 0 89.333 18.667 108 56c9.33301 19.333 16.333 53 21 101s7 112.333 7 193v47v66c0 152 -9.66699 247 -29 285c-18 39.333 -53 59 -105 59c-50 0 -84.667 -18 -104 -54s-29 -121.667 -29 -257v-80z
M82 578c0 232.667 30.167 392.501 90.5 479.501s165.833 130.5 316.5 130.5c152 0 258 -43.167 318 -129.5s90 -246.5 90 -480.5c0 -232.667 -30 -392.334 -90 -479.001s-166 -130 -318 -130c-150 0 -255.333 43 -316 129s-91 246 -91 480zM213 1280l174 285h204l174 -285
h-124l-152 150l-152 -150h-124zM832 1776h256l-305 -285h-125z" />
    <glyph glyph-name="OOhuyen" unicode="&#x1ed2;" horiz-adv-x="1202" 
d="M393 770c0 -254 14.832 -413.667 44.499 -479s84.5 -98 164.5 -98c77.333 0 130.833 32.167 160.5 96.5s44.5 224.5 44.5 480.5c0 256.667 -14.667 417.5 -44 482.5s-83.666 97.5 -162.999 97.5c-78.667 0 -133 -32.667 -163 -98
c-14.667 -32.667 -25.667 -88.667 -33 -168s-11 -184 -11 -314zM99.999 770c0 166.667 7.5 297.835 22.5 393.502s39.167 168.5 72.5 218.5c44 70 97.167 120 159.5 150s144.166 45 245.499 45c100 0 181.167 -14.833 243.5 -44.5s116.5 -79.834 162.5 -150.501
c31.333 -48.667 55 -122.667 71 -222c7.33301 -46.667 13 -103 17 -169s6 -139.667 6 -221c0 -166 -7.66699 -297.167 -23 -393.5s-39 -169.166 -71 -218.499c-45.333 -70.667 -99 -120.834 -161 -150.501s-143.667 -44.5 -245 -44.5c-100 0 -181.167 15 -243.5 45
s-116.166 80 -161.499 150c-32 49.333 -56 122.666 -72 219.999c-7.33301 47.333 -13 104 -17 170s-6 140 -6 222zM325.999 1669l174 285h204l174 -285h-124l-152 150l-152 -150h-124zM966.999 1880h-125l-305 285h256z" />
    <glyph glyph-name="uni1ED3" unicode="&#x1ed3;" horiz-adv-x="979" 
d="M356 590v-27c0 -178 9 -287.333 27 -328s52.667 -61 104 -61c53.333 0 89.333 18.667 108 56c9.33301 19.333 16.333 53 21 101s7 112.333 7 193v47v66c0 152 -9.66699 247 -29 285c-18 39.333 -53 59 -105 59c-50 0 -84.667 -18 -104 -54s-29 -121.667 -29 -257v-80z
M82 578c0 232.667 30.167 392.501 90.5 479.501s165.833 130.5 316.5 130.5c152 0 258 -43.167 318 -129.5s90 -246.5 90 -480.5c0 -232.667 -30 -392.334 -90 -479.001s-166 -130 -318 -130c-150 0 -255.333 43 -316 129s-91 246 -91 480zM213 1280l174 285h204l174 -285
h-124l-152 150l-152 -150h-124zM840 1491h-125l-305 285h256z" />
    <glyph glyph-name="OOhoi" unicode="&#x1ed4;" horiz-adv-x="1202" 
d="M393 770c0 -254 14.832 -413.667 44.499 -479s84.5 -98 164.5 -98c77.333 0 130.833 32.167 160.5 96.5s44.5 224.5 44.5 480.5c0 256.667 -14.667 417.5 -44 482.5s-83.666 97.5 -162.999 97.5c-78.667 0 -133 -32.667 -163 -98
c-14.667 -32.667 -25.667 -88.667 -33 -168s-11 -184 -11 -314zM99.999 770c0 166.667 7.5 297.835 22.5 393.502s39.167 168.5 72.5 218.5c44 70 97.167 120 159.5 150s144.166 45 245.499 45c100 0 181.167 -14.833 243.5 -44.5s116.5 -79.834 162.5 -150.501
c31.333 -48.667 55 -122.667 71 -222c7.33301 -46.667 13 -103 17 -169s6 -139.667 6 -221c0 -166 -7.66699 -297.167 -23 -393.5s-39 -169.166 -71 -218.499c-45.333 -70.667 -99 -120.834 -161 -150.501s-143.667 -44.5 -245 -44.5c-100 0 -181.167 15 -243.5 45
s-116.166 80 -161.499 150c-32 49.333 -56 122.666 -72 219.999c-7.33301 47.333 -13 104 -17 170s-6 140 -6 222zM325.999 1669l174 285h204l174 -285h-124l-152 150l-152 -150h-124zM844.999 2138l-116.002 -0.000976562v19c0 51.333 13.833 91.666 41.5 121
c27.667 29.333 68.167 44 121.5 44c51.333 0 91.5 -14.333 120.5 -43s43.5 -66.667 43.5 -114c0 -18 -2 -34.667 -6 -50s-10 -29.666 -18 -43c-9.33301 -16.667 -24 -36.334 -44 -59.001s-33 -38.334 -39 -47.001c-9.33301 -12 -16.166 -25.333 -20.499 -40
s-6.5 -31 -6.5 -49v-7l1 -11h-113l-2 15v17c0 14 0.833008 26.833 2.5 38.5s4.16699 22.834 7.5 33.501c6.66699 20.667 19 42.334 37 65.001l20 25c34.667 40 52 79 52 117c0 20.667 -3.66699 35.834 -11 45.501s-16.666 14.5 -27.999 14.5c-12.667 0 -23 -5.66699 -31 -17
s-12 -30.333 -12 -57v-18z" />
    <glyph glyph-name="uni1ED5" unicode="&#x1ed5;" horiz-adv-x="979" 
d="M356 590v-27c0 -178 9 -287.333 27 -328s52.667 -61 104 -61c53.333 0 89.333 18.667 108 56c9.33301 19.333 16.333 53 21 101s7 112.333 7 193v47v66c0 152 -9.66699 247 -29 285c-18 39.333 -53 59 -105 59c-50 0 -84.667 -18 -104 -54s-29 -121.667 -29 -257v-80z
M82 578c0 232.667 30.167 392.501 90.5 479.501s165.833 130.5 316.5 130.5c152 0 258 -43.167 318 -129.5s90 -246.5 90 -480.5c0 -232.667 -30 -392.334 -90 -479.001s-166 -130 -318 -130c-150 0 -255.333 43 -316 129s-91 246 -91 480zM213 1280l174 285h204l174 -285
h-124l-152 150l-152 -150h-124zM713 1752l-116.002 -0.000976562v19c0 51.333 13.833 91.666 41.5 120.999s68.167 44 121.5 44c51.333 0 91.5 -14.333 120.5 -43s43.5 -66.667 43.5 -114c0 -18 -2 -34.667 -6 -50s-10 -29.666 -18 -42.999
c-9.33301 -16.667 -24 -36.334 -44 -59.001s-33 -38.334 -39 -47.001c-9.33301 -12 -16.166 -25.333 -20.499 -40s-6.5 -31 -6.5 -49v-7l1 -11h-114l-1 15v17c0 14 0.666992 26.833 2 38.5s4 22.834 8 33.501c6.66699 20.667 19 42.334 37 65.001l20 25
c34.667 40 52 79 52 117c0 20.667 -3.66699 35.834 -11 45.501s-16.666 14.5 -27.999 14.5c-12.667 0 -23 -5.66699 -31 -17s-12 -30.333 -12 -57v-18z" />
    <glyph glyph-name="OOnga" unicode="&#x1ed6;" horiz-adv-x="1202" 
d="M393 770c0 -254 14.832 -413.667 44.499 -479s84.5 -98 164.5 -98c77.333 0 130.833 32.167 160.5 96.5s44.5 224.5 44.5 480.5c0 256.667 -14.667 417.5 -44 482.5s-83.666 97.5 -162.999 97.5c-78.667 0 -133 -32.667 -163 -98
c-14.667 -32.667 -25.667 -88.667 -33 -168s-11 -184 -11 -314zM99.999 770c0 166.667 7.5 297.835 22.5 393.502s39.167 168.5 72.5 218.5c44 70 97.167 120 159.5 150s144.166 45 245.499 45c100 0 181.167 -14.833 243.5 -44.5s116.5 -79.834 162.5 -150.501
c31.333 -48.667 55 -122.667 71 -222c7.33301 -46.667 13 -103 17 -169s6 -139.667 6 -221c0 -166 -7.66699 -297.167 -23 -393.5s-39 -169.166 -71 -218.499c-45.333 -70.667 -99 -120.834 -161 -150.501s-143.667 -44.5 -245 -44.5c-100 0 -181.167 15 -243.5 45
s-116.166 80 -161.499 150c-32 49.333 -56 122.666 -72 219.999c-7.33301 47.333 -13 104 -17 170s-6 140 -6 222zM325.999 1669l174 285h204l174 -285h-124l-152 150l-152 -150h-124zM447.999 1965l-87.9961 -0.000976562c13.333 78 35.166 136.167 65.499 174.5
s68.166 57.5 113.499 57.5c13.333 0 23.333 -0.666992 30 -2l31 -6l110 -33l23 -5l25 -1c20 0 36.167 6.16699 48.5 18.5s21.5 31.166 27.5 56.5h88c-10.667 -73.333 -32.334 -131.166 -65.001 -173.499s-73.334 -63.5 -122.001 -63.5c-11.333 0 -20 0.666992 -26 2l-25 6
l-121 35l-16 4l-17 2c-20.667 0 -38 -6 -52 -18s-24 -30 -30 -54z" />
    <glyph glyph-name="uni1ED7" unicode="&#x1ed7;" horiz-adv-x="979" 
d="M356 590v-27c0 -178 9 -287.333 27 -328s52.667 -61 104 -61c53.333 0 89.333 18.667 108 56c9.33301 19.333 16.333 53 21 101s7 112.333 7 193v47v66c0 152 -9.66699 247 -29 285c-18 39.333 -53 59 -105 59c-50 0 -84.667 -18 -104 -54s-29 -121.667 -29 -257v-80z
M82 578c0 232.667 30.167 392.501 90.5 479.501s165.833 130.5 316.5 130.5c152 0 258 -43.167 318 -129.5s90 -246.5 90 -480.5c0 -232.667 -30 -392.334 -90 -479.001s-166 -130 -318 -130c-150 0 -255.333 43 -316 129s-91 246 -91 480zM213 1280l174 285h204l174 -285
h-124l-152 150l-152 -150h-124zM342 1586h-87.9961c13.333 78 35.166 136.167 65.499 174.5s68.166 57.5 113.499 57.5c13.333 0 23.333 -0.666992 30 -2l31 -6l110 -33l23 -5l25 -1c20 0 36.167 6.16699 48.5 18.5s21.5 31.166 27.5 56.499h88
c-10.667 -73.333 -32.334 -131.166 -65.001 -173.499s-73.334 -63.5 -122.001 -63.5c-11.333 0 -20 0.666992 -26 2l-25 6l-121 35l-16 4l-17 2c-20.667 0 -38 -6 -52 -18s-24 -30 -30 -54z" />
    <glyph glyph-name="OOnang" unicode="&#x1ed8;" horiz-adv-x="1202" 
d="M393 770c0 -254 14.832 -413.667 44.499 -479s84.5 -98 164.5 -98c77.333 0 130.833 32.167 160.5 96.5s44.5 224.5 44.5 480.5c0 256.667 -14.667 417.5 -44 482.5s-83.666 97.5 -162.999 97.5c-78.667 0 -133 -32.667 -163 -98
c-14.667 -32.667 -25.667 -88.667 -33 -168s-11 -184 -11 -314zM99.999 770c0 166.667 7.5 297.835 22.5 393.502s39.167 168.5 72.5 218.5c44 70 97.167 120 159.5 150s144.166 45 245.499 45c100 0 181.167 -14.833 243.5 -44.5s116.5 -79.834 162.5 -150.501
c31.333 -48.667 55 -122.667 71 -222c7.33301 -46.667 13 -103 17 -169s6 -139.667 6 -221c0 -166 -7.66699 -297.167 -23 -393.5s-39 -169.166 -71 -218.499c-45.333 -70.667 -99 -120.834 -161 -150.501s-143.667 -44.5 -245 -44.5c-100 0 -181.167 15 -243.5 45
s-116.166 80 -161.499 150c-32 49.333 -56 122.666 -72 219.999c-7.33301 47.333 -13 104 -17 170s-6 140 -6 222zM325.999 1669l174 285h204l174 -285h-124l-152 150l-152 -150h-124zM489.999 -389.999v237h220v-237h-220z" />
    <glyph glyph-name="nang" unicode="&#x1ed9;" horiz-adv-x="979" 
d="M356 590v-27c0 -178 9 -287.333 27 -328s52.667 -61 104 -61c53.333 0 89.333 18.667 108 56c9.33301 19.333 16.333 53 21 101s7 112.333 7 193v47v66c0 152 -9.66699 247 -29 285c-18 39.333 -53 59 -105 59c-50 0 -84.667 -18 -104 -54s-29 -121.667 -29 -257v-80z
M82 578c0 232.667 30.167 392.501 90.5 479.501s165.833 130.5 316.5 130.5c152 0 258 -43.167 318 -129.5s90 -246.5 90 -480.5c0 -232.667 -30 -392.334 -90 -479.001s-166 -130 -318 -130c-150 0 -255.333 43 -316 129s-91 246 -91 480zM213 1280l174 285h204l174 -285
h-124l-152 150l-152 -150h-124zM376 -389.999v237h220v-237h-220z" />
    <glyph glyph-name="O)sac" unicode="&#x1eda;" horiz-adv-x="1202" 
d="M393 770c0 -254 14.832 -413.667 44.499 -479s84.5 -98 164.5 -98c77.333 0 130.833 32.167 160.5 96.5s44.5 224.5 44.5 480.5c0 256.667 -14.667 417.5 -44 482.5s-83.666 97.5 -162.999 97.5c-78.667 0 -133 -32.667 -163 -98
c-14.667 -32.667 -25.667 -88.667 -33 -168s-11 -184 -11 -314zM460.999 1669l174 285h256l-305 -285h-125zM997.999 1393c2.66699 -3.33301 5.33301 -7.00098 8 -11.001c31.333 -48.667 55 -122.667 71 -222c7.33301 -46.667 13 -103 17 -169s6 -139.667 6 -221
c0 -166 -7.66699 -297.167 -23 -393.5s-39 -169.166 -71 -218.499c-45.333 -70.667 -99 -120.834 -161 -150.501s-143.667 -44.5 -245 -44.5c-100 0 -181.167 15 -243.5 45s-116.166 80 -161.499 150c-32 49.333 -56 122.666 -72 219.999c-7.33301 47.333 -13 104 -17 170
s-6 140 -6 222c0 166.667 7.5 297.834 22.5 393.501s39.167 168.5 72.5 218.5c44 70 97.167 120 159.5 150s144.166 45 245.499 45c100 0 181.333 -14.667 244 -44c36.667 -18 70.667 -43 102 -75c6 4.66699 11.333 10.334 16 17.001c19.333 25.333 29 57.666 29 96.999v12
h-107v213h199v-214c0 -65.333 -17.667 -118.666 -53 -159.999c-9.33301 -11.333 -20 -21.333 -32 -30z" />
    <glyph glyph-name="uni1EDB" unicode="&#x1edb;" horiz-adv-x="979" 
d="M356 590v-27c0 -178 9 -287.333 27 -328s52.667 -61 104 -61c53.333 0 89.333 18.667 108 56c9.33301 19.333 16.333 53 21 101s7 112.333 7 193v47v66c0 152 -9.66699 247 -29 285c-18 39.333 -53 59 -105 59c-50 0 -84.667 -18 -104 -54s-29 -121.667 -29 -257v-80z
M348 1280l174 285h256l-305 -285h-125zM838 1002c39.333 -92.667 59 -234 59 -424c0 -232.667 -30 -392.334 -90 -479.001s-166 -130 -318 -130c-150 0 -255.333 43 -316 129s-91 246 -91 480c0 232.667 30.167 392.5 90.5 479.5s165.833 130.5 316.5 130.5
c143.333 0 246 -38.333 308 -115c10.667 6.66699 20 15.334 28 26.001c19.333 25.333 29 57.666 29 96.999v12h-107v213h199v-214c0 -65.333 -17.667 -118.666 -53 -159.999c-16 -18.667 -34.333 -33.667 -55 -45z" />
    <glyph glyph-name="O)huyen" unicode="&#x1edc;" horiz-adv-x="1202" 
d="M393 770c0 -254 14.832 -413.667 44.499 -479s84.5 -98 164.5 -98c77.333 0 130.833 32.167 160.5 96.5s44.5 224.5 44.5 480.5c0 256.667 -14.667 417.5 -44 482.5s-83.666 97.5 -162.999 97.5c-78.667 0 -133 -32.667 -163 -98
c-14.667 -32.667 -25.667 -88.667 -33 -168s-11 -184 -11 -314zM742.999 1669h-125l-305 285h256zM945.999 1458c6 4.66699 11.332 10.333 15.999 17c19.333 25.333 29 57.666 29 96.999v12h-107v213h199v-214c0 -65.333 -17.667 -118.666 -53 -159.999
c-9.33301 -11.333 -20 -21.333 -32 -30c2.66699 -3.33301 5.33398 -7 8.00098 -11c31.333 -48.667 55 -122.667 71 -222c7.33301 -46.667 13 -103 17 -169s6 -139.667 6 -221c0 -166 -7.66699 -297.167 -23 -393.5s-39 -169.166 -71 -218.499
c-45.333 -70.667 -99 -120.834 -161 -150.501s-143.667 -44.5 -245 -44.5c-100 0 -181.167 15 -243.5 45s-116.166 80 -161.499 150c-32 49.333 -56 122.666 -72 219.999c-7.33301 47.333 -13 104 -17 170s-6 140 -6 222c0 166.667 7.5 297.834 22.5 393.501
s39.167 168.5 72.5 218.5c44 70 97.167 120 159.5 150s144.166 45 245.499 45c100 0 181.333 -14.667 244 -44c36.667 -18 70.667 -43 102 -75z" />
    <glyph glyph-name="uni1EDD" unicode="&#x1edd;" horiz-adv-x="979" 
d="M356 590v-27c0 -178 9 -287.333 27 -328s52.667 -61 104 -61c53.333 0 89.333 18.667 108 56c9.33301 19.333 16.333 53 21 101s7 112.333 7 193v47v66c0 152 -9.66699 247 -29 285c-18 39.333 -53 59 -105 59c-50 0 -84.667 -18 -104 -54s-29 -121.667 -29 -257v-80z
M630 1280h-125l-305 285h256zM838 1002c39.333 -92.667 59 -234 59 -424c0 -232.667 -30 -392.334 -90 -479.001s-166 -130 -318 -130c-150 0 -255.333 43 -316 129s-91 246 -91 480c0 232.667 30.167 392.5 90.5 479.5s165.833 130.5 316.5 130.5
c143.333 0 246 -38.333 308 -115c10.667 6.66699 20 15.334 28 26.001c19.333 25.333 29 57.666 29 96.999v12h-107v213h199v-214c0 -65.333 -17.667 -118.666 -53 -159.999c-16 -18.667 -34.333 -33.667 -55 -45z" />
    <glyph glyph-name="O)hoi" unicode="&#x1ede;" horiz-adv-x="1202" 
d="M393 770c0 -254 14.832 -413.667 44.499 -479s84.5 -98 164.5 -98c77.333 0 130.833 32.167 160.5 96.5s44.5 224.5 44.5 480.5c0 256.667 -14.667 417.5 -44 482.5s-83.666 97.5 -162.999 97.5c-78.667 0 -133 -32.667 -163 -98
c-14.667 -32.667 -25.667 -88.667 -33 -168s-11 -184 -11 -314zM552.999 1907l-116.998 -0.000976562v19c0 51.333 13.833 91.666 41.5 120.999s68.5 44 122.5 44c50.667 0 90.667 -14.333 120 -43s44 -66.667 44 -114c0 -18 -2 -34.667 -6 -50s-10 -29.666 -18 -42.999
c-10 -16.667 -24.833 -36.334 -44.5 -59.001s-32.834 -38.334 -39.501 -47.001c-8.66699 -12 -15.334 -25.333 -20.001 -40s-7 -31 -7 -49l1 -7v-11h-113l-2 15v17c0 14 0.833008 26.833 2.5 38.5s4.16699 22.834 7.5 33.501c7.33301 20.667 19.666 42.334 36.999 65.001
l21 25c34.667 40 52 79 52 117c0 20.667 -3.66699 35.834 -11 45.501s-16.666 14.5 -27.999 14.5c-13.333 0 -23.833 -5.66699 -31.5 -17s-11.5 -30.333 -11.5 -57v-18zM998.001 1393c2.66699 -3.33301 5.33301 -7.00098 8 -11.001c31.333 -48.667 55 -122.667 71 -222
c7.33301 -46.667 13 -103 17 -169s6 -139.667 6 -221c0 -166 -7.66699 -297.167 -23 -393.5s-39 -169.166 -71 -218.499c-45.333 -70.667 -99 -120.834 -161 -150.501s-143.667 -44.5 -245 -44.5c-100 0 -181.167 15 -243.5 45s-116.166 80 -161.499 150
c-32 49.333 -56 122.666 -72 219.999c-7.33301 47.333 -13 104 -17 170s-6 140 -6 222c0 166.667 7.5 297.834 22.5 393.501s39.167 168.5 72.5 218.5c44 70 97.167 120 159.5 150s144.166 45 245.499 45c100 0 181.333 -14.667 244 -44c36.667 -18 70.667 -43 102 -75
c6 4.66699 11.333 10.334 16 17.001c19.333 25.333 29 57.666 29 96.999v12h-107v213h199v-214c0 -65.333 -17.667 -118.666 -53 -159.999c-9.33301 -11.333 -20 -21.333 -32 -30z" />
    <glyph glyph-name="uni1EDF" unicode="&#x1edf;" horiz-adv-x="979" 
d="M356 590v-27c0 -178 9 -287.333 27 -328s52.667 -61 104 -61c53.333 0 89.333 18.667 108 56c9.33301 19.333 16.333 53 21 101s7 112.333 7 193v47v66c0 152 -9.66699 247 -29 285c-18 39.333 -53 59 -105 59c-50 0 -84.667 -18 -104 -54s-29 -121.667 -29 -257v-80z
M456 1531l-116.002 -0.000976562v19c0 51.333 13.833 91.666 41.5 120.999s68.167 44 121.5 44c51.333 0 91.5 -14.333 120.5 -43s43.5 -66.667 43.5 -114c0 -18 -2 -34.667 -6 -50s-10 -29.666 -18 -42.999c-9.33301 -16.667 -24 -36.334 -44 -59.001
s-33 -38.334 -39 -47.001c-9.33301 -12 -16.166 -25.333 -20.499 -40s-6.5 -31 -6.5 -49v-7l1 -11h-114l-1 15v17c0 14 0.666992 26.833 2 38.5s4 22.834 8 33.501c6.66699 20.667 19 42.334 37 65.001l20 25c34.667 40 52 79 52 117c0 20.667 -3.66699 35.834 -11 45.501
s-16.666 14.5 -27.999 14.5c-12.667 0 -23 -5.66699 -31 -17s-12 -30.333 -12 -57v-18zM837.998 1002c39.333 -92.667 59 -234 59 -424c0 -232.667 -30 -392.334 -90 -479.001s-166 -130 -318 -130c-150 0 -255.333 43 -316 129s-91 246 -91 480
c0 232.667 30.167 392.5 90.5 479.5s165.833 130.5 316.5 130.5c143.333 0 246 -38.333 308 -115c10.667 6.66699 20 15.334 28 26.001c19.333 25.333 29 57.666 29 96.999v12h-107v213h199v-214c0 -65.333 -17.667 -118.666 -53 -159.999
c-16 -18.667 -34.333 -33.667 -55 -45z" />
    <glyph glyph-name="O)nga" unicode="&#x1ee0;" horiz-adv-x="1202" 
d="M393 770c0 -254 14.832 -413.667 44.499 -479s84.5 -98 164.5 -98c77.333 0 130.833 32.167 160.5 96.5s44.5 224.5 44.5 480.5c0 256.667 -14.667 417.5 -44 482.5s-83.666 97.5 -162.999 97.5c-78.667 0 -133 -32.667 -163 -98
c-14.667 -32.667 -25.667 -88.667 -33 -168s-11 -184 -11 -314zM408.999 1681h-87.9961c13.333 78 35.166 136.167 65.499 174.5s68.166 57.5 113.499 57.5c13.333 0 23.333 -0.666992 30 -2l31 -6l110 -33l23 -5l25 -1c20 0 36.167 6.16699 48.5 18.5
s21.5 31.166 27.5 56.499h88c-10.667 -73.333 -32.334 -131.166 -65.001 -173.499s-73.334 -63.5 -122.001 -63.5c-11.333 0 -20 0.666992 -26 2l-25 6l-121 35l-16 4l-17 2c-20.667 0 -38 -6 -52 -18s-24 -30 -30 -54zM998.003 1393
c2.66699 -3.33301 5.33301 -7.00098 8 -11.001c31.333 -48.667 55 -122.667 71 -222c7.33301 -46.667 13 -103 17 -169s6 -139.667 6 -221c0 -166 -7.66699 -297.167 -23 -393.5s-39 -169.166 -71 -218.499c-45.333 -70.667 -99 -120.834 -161 -150.501
s-143.667 -44.5 -245 -44.5c-100 0 -181.167 15 -243.5 45s-116.166 80 -161.499 150c-32 49.333 -56 122.666 -72 219.999c-7.33301 47.333 -13 104 -17 170s-6 140 -6 222c0 166.667 7.5 297.834 22.5 393.501s39.167 168.5 72.5 218.5c44 70 97.167 120 159.5 150
s144.166 45 245.499 45c100 0 181.333 -14.667 244 -44c36.667 -18 70.667 -43 102 -75c6 4.66699 11.333 10.334 16 17.001c19.333 25.333 29 57.666 29 96.999v12h-107v213h199v-214c0 -65.333 -17.667 -118.666 -53 -159.999c-9.33301 -11.333 -20 -21.333 -32 -30z" />
    <glyph glyph-name="uni1EE1" unicode="&#x1ee1;" horiz-adv-x="979" 
d="M356 590v-27c0 -178 9 -287.333 27 -328s52.667 -61 104 -61c53.333 0 89.333 18.667 108 56c9.33301 19.333 16.333 53 21 101s7 112.333 7 193v47v66c0 152 -9.66699 247 -29 285c-18 39.333 -53 59 -105 59c-50 0 -84.667 -18 -104 -54s-29 -121.667 -29 -257v-80z
M296 1292h-87.9961c13.333 78 35.166 136.167 65.499 174.5s68.166 57.5 113.499 57.5c13.333 0 23.333 -0.666992 30 -2l31 -6l110 -33l23 -5l25 -1c20 0 36.167 6.16699 48.5 18.5s21.5 31.166 27.5 56.499h88c-10.667 -73.333 -32.334 -131.166 -65.001 -173.499
s-73.334 -63.5 -122.001 -63.5c-11.333 0 -20 0.666992 -26 2l-25 6l-121 35l-16 4l-17 2c-20.667 0 -38 -6 -52 -18s-24 -30 -30 -54zM838.004 1002c39.333 -92.667 59 -234 59 -424c0 -232.667 -30 -392.334 -90 -479.001s-166 -130 -318 -130
c-150 0 -255.333 43 -316 129s-91 246 -91 480c0 232.667 30.167 392.5 90.5 479.5s165.833 130.5 316.5 130.5c143.333 0 246 -38.333 308 -115c10.667 6.66699 20 15.334 28 26.001c19.333 25.333 29 57.666 29 96.999v12h-107v213h199v-214
c0 -65.333 -17.667 -118.666 -53 -159.999c-16 -18.667 -34.333 -33.667 -55 -45z" />
    <glyph glyph-name="O)nang" unicode="&#x1ee2;" horiz-adv-x="1202" 
d="M393 770c0 -254 14.832 -413.667 44.499 -479s84.5 -98 164.5 -98c77.333 0 130.833 32.167 160.5 96.5s44.5 224.5 44.5 480.5c0 256.667 -14.667 417.5 -44 482.5s-83.666 97.5 -162.999 97.5c-78.667 0 -133 -32.667 -163 -98
c-14.667 -32.667 -25.667 -88.667 -33 -168s-11 -184 -11 -314zM489.999 -390v237h220v-237h-220zM997.999 1393c2.66699 -3.33301 5.33301 -7.00098 8 -11.001c31.333 -48.667 55 -122.667 71 -222c7.33301 -46.667 13 -103 17 -169s6 -139.667 6 -221
c0 -166 -7.66699 -297.167 -23 -393.5s-39 -169.166 -71 -218.499c-45.333 -70.667 -99 -120.834 -161 -150.501s-143.667 -44.5 -245 -44.5c-100 0 -181.167 15 -243.5 45s-116.166 80 -161.499 150c-32 49.333 -56 122.666 -72 219.999c-7.33301 47.333 -13 104 -17 170
s-6 140 -6 222c0 166.667 7.5 297.834 22.5 393.501s39.167 168.5 72.5 218.5c44 70 97.167 120 159.5 150s144.166 45 245.499 45c100 0 181.333 -14.667 244 -44c36.667 -18 70.667 -43 102 -75c6 4.66699 11.333 10.334 16 17.001c19.333 25.333 29 57.666 29 96.999v12
h-107v213h199v-214c0 -65.333 -17.667 -118.666 -53 -159.999c-9.33301 -11.333 -20 -21.333 -32 -30z" />
    <glyph glyph-name="uni1EE3" unicode="&#x1ee3;" horiz-adv-x="979" 
d="M356 590v-27c0 -178 9 -287.333 27 -328s52.667 -61 104 -61c53.333 0 89.333 18.667 108 56c9.33301 19.333 16.333 53 21 101s7 112.333 7 193v47v66c0 152 -9.66699 247 -29 285c-18 39.333 -53 59 -105 59c-50 0 -84.667 -18 -104 -54s-29 -121.667 -29 -257v-80z
M376 -390v237h220v-237h-220zM838 1002c39.333 -92.667 59 -234 59 -424c0 -232.667 -30 -392.334 -90 -479.001s-166 -130 -318 -130c-150 0 -255.333 43 -316 129s-91 246 -91 480c0 232.667 30.167 392.5 90.5 479.5s165.833 130.5 316.5 130.5
c143.333 0 246 -38.333 308 -115c10.667 6.66699 20 15.334 28 26.001c19.333 25.333 29 57.666 29 96.999v12h-107v213h199v-214c0 -65.333 -17.667 -118.666 -53 -159.999c-16 -18.667 -34.333 -33.667 -55 -45z" />
    <glyph glyph-name="Unang" unicode="&#x1ee4;" horiz-adv-x="1223" 
d="M131 1540h287v-1038c0 -118 14.5 -198.333 43.5 -241s80.5 -64 154.5 -64c72.667 0 123.334 21.5 152.001 64.5s43 124.5 43 244.5v1034h283v-1063c0 -102 -5.66699 -177 -17 -225s-31 -90.333 -59 -127c-40.667 -53.333 -95.334 -94 -164.001 -122
c-34.667 -13.333 -71.667 -23.333 -111 -30s-83 -10 -131 -10c-175.333 0 -299.333 38 -372 114s-109 209.333 -109 400v1063zM503 -390v237h220v-237h-220z" />
    <glyph glyph-name="uni1EE5" unicode="&#x1ee5;" horiz-adv-x="991" 
d="M877 1157l0.00195312 -1157h-263v115c-26.667 -48 -61 -84.333 -103 -109c-19.333 -11.333 -41 -20.333 -65 -27s-49 -10 -75 -10c-84.667 0 -148.834 23.833 -192.501 71.5s-65.5 116.834 -65.5 207.501v909h258v-756c0 -77.333 8.66699 -130.333 26 -159
s46.666 -43 87.999 -43c44 0 75.5 16.333 94.5 49s28.5 89.334 28.5 170.001v739h269zM376.002 -390.002v237h220v-237h-220z" />
    <glyph glyph-name="Uhoi" unicode="&#x1ee6;" horiz-adv-x="1223" 
d="M131 1540h287v-1038c0 -118 14.5 -198.333 43.5 -241s80.5 -64 154.5 -64c72.667 0 123.334 21.5 152.001 64.5s43 124.5 43 244.5v1034h283v-1063c0 -102 -5.66699 -177 -17 -225s-31 -90.333 -59 -127c-40.667 -53.333 -95.334 -94 -164.001 -122
c-34.667 -13.333 -71.667 -23.333 -111 -30s-83 -10 -131 -10c-175.333 0 -299.333 38 -372 114s-109 209.333 -109 400v1063zM565 1907l-116.002 -0.000976562v19c0 51.333 13.833 91.666 41.5 120.999s68.167 44 121.5 44c51.333 0 91.5 -14.333 120.5 -43
s43.5 -66.667 43.5 -114c0 -18 -2 -34.667 -6 -50s-10 -29.666 -18 -42.999c-9.33301 -16.667 -24 -36.334 -44 -59.001s-33 -38.334 -39 -47.001c-9.33301 -12 -16.166 -25.333 -20.499 -40s-6.5 -31 -6.5 -49v-7l1 -11h-114l-1 15v17c0 14 0.666992 26.833 2 38.5
s4 22.834 8 33.501c6.66699 20.667 19 42.334 37 65.001l20 25c34.667 40 52 79 52 117c0 20.667 -3.66699 35.834 -11 45.501s-16.666 14.5 -27.999 14.5c-12.667 0 -23 -5.66699 -31 -17s-12 -30.333 -12 -57v-18z" />
    <glyph glyph-name="uni1EE7" unicode="&#x1ee7;" horiz-adv-x="991" 
d="M877 1157l0.00195312 -1157h-263v115c-26.667 -48 -61 -84.333 -103 -109c-19.333 -11.333 -41 -20.333 -65 -27s-49 -10 -75 -10c-84.667 0 -148.834 23.833 -192.501 71.5s-65.5 116.834 -65.5 207.501v909h258v-756c0 -77.333 8.66699 -130.333 26 -159
s46.666 -43 87.999 -43c44 0 75.5 16.333 94.5 49s28.5 89.334 28.5 170.001v739h269zM456.002 1531l-116.002 -0.000976562v19c0 51.333 13.833 91.666 41.5 120.999s68.167 44 121.5 44c51.333 0 91.5 -14.333 120.5 -43s43.5 -66.667 43.5 -114c0 -18 -2 -34.667 -6 -50
s-10 -29.666 -18 -42.999c-9.33301 -16.667 -24 -36.334 -44 -59.001s-33 -38.334 -39 -47.001c-9.33301 -12 -16.166 -25.333 -20.499 -40s-6.5 -31 -6.5 -49v-7l1 -11h-114l-1 15v17c0 14 0.666992 26.833 2 38.5s4 22.834 8 33.501c6.66699 20.667 19 42.334 37 65.001
l20 25c34.667 40 52 79 52 117c0 20.667 -3.66699 35.834 -11 45.501s-16.666 14.5 -27.999 14.5c-12.667 0 -23 -5.66699 -31 -17s-12 -30.333 -12 -57v-18z" />
    <glyph glyph-name="U)sac" unicode="&#x1ee8;" horiz-adv-x="1223" 
d="M471 1669l174 285h256l-305 -285h-125zM1094 1366l0.000976562 -889c0 -102 -5.66699 -177 -17 -225s-31 -90.333 -59 -127c-40.667 -53.333 -95.334 -94 -164.001 -122c-34.667 -13.333 -71.667 -23.333 -111 -30s-83 -10 -131 -10c-175.333 0 -299.333 38 -372 114
s-109 209.333 -109 400v1063h287v-1038c0 -118 14.5 -198.333 43.5 -241s80.5 -64 154.5 -64c72.667 0 123.334 21.5 152.001 64.5s43 124.5 43 244.5v1034h283v-81c5.33301 4.66699 10.333 10 15 16c19.333 25.333 29 57.666 29 96.999v12h-107v213h199v-214
c0 -65.333 -17.667 -118.666 -53 -159.999c-22.667 -26 -50.334 -45 -83.001 -57z" />
    <glyph glyph-name="uni1EE9" unicode="&#x1ee9;" horiz-adv-x="991" 
d="M355 1280l174 285h256l-305 -285h-125zM877 991l0.00195312 -991.002h-263v115c-26.667 -48 -61 -84.333 -103 -109c-19.333 -11.333 -41 -20.333 -65 -27s-49 -10 -75 -10c-84.667 0 -148.834 23.833 -192.501 71.5s-65.5 116.834 -65.5 207.501v909h258v-756
c0 -77.333 8.66699 -130.333 26 -159s46.666 -43 87.999 -43c44 0 75.5 16.333 94.5 49s28.5 89.334 28.5 170.001v739h269v-71c4 4 8 8.33301 12 13c19.333 25.333 29 57.666 29 96.999v12h-107v213h199v-214c0 -65.333 -17.667 -118.666 -53 -159.999
c-21.333 -25.333 -48 -44 -80 -56z" />
    <glyph glyph-name="U)huyen" unicode="&#x1eea;" horiz-adv-x="1223" 
d="M753 1669h-125l-305 285h256zM1094 1366l0.000976562 -889c0 -102 -5.66699 -177 -17 -225s-31 -90.333 -59 -127c-40.667 -53.333 -95.334 -94 -164.001 -122c-34.667 -13.333 -71.667 -23.333 -111 -30s-83 -10 -131 -10c-175.333 0 -299.333 38 -372 114
s-109 209.333 -109 400v1063h287v-1038c0 -118 14.5 -198.333 43.5 -241s80.5 -64 154.5 -64c72.667 0 123.334 21.5 152.001 64.5s43 124.5 43 244.5v1034h283v-81c5.33301 4.66699 10.333 10 15 16c19.333 25.333 29 57.666 29 96.999v12h-107v213h199v-214
c0 -65.333 -17.667 -118.666 -53 -159.999c-22.667 -26 -50.334 -45 -83.001 -57z" />
    <glyph glyph-name="uni1EEB" unicode="&#x1eeb;" horiz-adv-x="991" 
d="M877 1157l0.00195312 -1157h-263v115c-26.667 -48 -61 -84.333 -103 -109c-19.333 -11.333 -41 -20.333 -65 -27s-49 -10 -75 -10c-84.667 0 -148.834 23.833 -192.501 71.5s-65.5 116.834 -65.5 207.501v909h258v-756c0 -77.333 8.66699 -130.333 26 -159
s46.666 -43 87.999 -43c44 0 75.5 16.333 94.5 49s28.5 89.334 28.5 170.001v739h269zM637.002 1280h-125l-305 285h256zM811.002 975.998v80.001c32.667 3.33301 58.667 17.666 78 42.999s29 57.666 29 96.999v12h-107v213h199v-214
c0 -65.333 -17.667 -118.666 -53 -159.999s-84 -65 -146 -71z" />
    <glyph glyph-name="U)hoi" unicode="&#x1eec;" horiz-adv-x="1223" 
d="M565 1907l-116.002 -0.000976562v19c0 51.333 13.833 91.666 41.5 120.999s68.167 44 121.5 44c51.333 0 91.5 -14.333 120.5 -43s43.5 -66.667 43.5 -114c0 -18 -2 -34.667 -6 -50s-10 -29.666 -18 -42.999c-9.33301 -16.667 -24 -36.334 -44 -59.001
s-33 -38.334 -39 -47.001c-9.33301 -12 -16.166 -25.333 -20.499 -40s-6.5 -31 -6.5 -49v-7l1 -11h-114l-1 15v17c0 14 0.666992 26.833 2 38.5s4 22.834 8 33.501c6.66699 20.667 19 42.334 37 65.001l20 25c34.667 40 52 79 52 117c0 20.667 -3.66699 35.834 -11 45.501
s-16.666 14.5 -27.999 14.5c-12.667 0 -23 -5.66699 -31 -17s-12 -30.333 -12 -57v-18zM1094 1366l0.000976562 -889c0 -102 -5.66699 -177 -17 -225s-31 -90.333 -59 -127c-40.667 -53.333 -95.334 -94 -164.001 -122c-34.667 -13.333 -71.667 -23.333 -111 -30
s-83 -10 -131 -10c-175.333 0 -299.333 38 -372 114s-109 209.333 -109 400v1063h287v-1038c0 -118 14.5 -198.333 43.5 -241s80.5 -64 154.5 -64c72.667 0 123.334 21.5 152.001 64.5s43 124.5 43 244.5v1034h283v-81c5.33301 4.66699 10.333 10 15 16
c19.333 25.333 29 57.666 29 96.999v12h-107v213h199v-214c0 -65.333 -17.667 -118.666 -53 -159.999c-22.667 -26 -50.334 -45 -83.001 -57z" />
    <glyph glyph-name="uni1EED" unicode="&#x1eed;" horiz-adv-x="991" 
d="M456 1531l-116.002 -0.000976562v19c0 51.333 13.833 91.666 41.5 120.999s68.167 44 121.5 44c51.333 0 91.5 -14.333 120.5 -43s43.5 -66.667 43.5 -114c0 -18 -2 -34.667 -6 -50s-10 -29.666 -18 -42.999c-9.33301 -16.667 -24 -36.334 -44 -59.001
s-33 -38.334 -39 -47.001c-9.33301 -12 -16.166 -25.333 -20.499 -40s-6.5 -31 -6.5 -49v-7l1 -11h-114l-1 15v17c0 14 0.666992 26.833 2 38.5s4 22.834 8 33.501c6.66699 20.667 19 42.334 37 65.001l20 25c34.667 40 52 79 52 117c0 20.667 -3.66699 35.834 -11 45.501
s-16.666 14.5 -27.999 14.5c-12.667 0 -23 -5.66699 -31 -17s-12 -30.333 -12 -57v-18zM876.998 990.999l0.00195312 -991.002h-263v115c-26.667 -48 -61 -84.333 -103 -109c-19.333 -11.333 -41 -20.333 -65 -27s-49 -10 -75 -10c-84.667 0 -148.834 23.833 -192.501 71.5
s-65.5 116.834 -65.5 207.501v909h258v-756c0 -77.333 8.66699 -130.333 26 -159s46.666 -43 87.999 -43c44 0 75.5 16.333 94.5 49s28.5 89.334 28.5 170.001v739h269v-71c4 4 8 8.33301 12 13c19.333 25.333 29 57.666 29 96.999v12h-107v213h199v-214
c0 -65.333 -17.667 -118.666 -53 -159.999c-21.333 -25.333 -48 -44 -80 -56z" />
    <glyph glyph-name="U)nga" unicode="&#x1eee;" horiz-adv-x="1223" 
d="M420 1681h-87.9961c13.333 78 35.166 136.167 65.499 174.5s68.166 57.5 113.499 57.5c13.333 0 23.333 -0.666992 30 -2l31 -6l110 -33l23 -5l25 -1c20 0 36.167 6.16699 48.5 18.5s21.5 31.166 27.5 56.499h88c-10.667 -73.333 -32.334 -131.166 -65.001 -173.499
s-73.334 -63.5 -122.001 -63.5c-11.333 0 -20 0.666992 -26 2l-25 6l-121 35l-16 4l-17 2c-20.667 0 -38 -6 -52 -18s-24 -30 -30 -54zM1094 1366l0.000976562 -889c0 -102 -5.66699 -177 -17 -225s-31 -90.333 -59 -127c-40.667 -53.333 -95.334 -94 -164.001 -122
c-34.667 -13.333 -71.667 -23.333 -111 -30s-83 -10 -131 -10c-175.333 0 -299.333 38 -372 114s-109 209.333 -109 400v1063h287v-1038c0 -118 14.5 -198.333 43.5 -241s80.5 -64 154.5 -64c72.667 0 123.334 21.5 152.001 64.5s43 124.5 43 244.5v1034h283v-81
c5.33301 4.66699 10.333 10 15 16c19.333 25.333 29 57.666 29 96.999v12h-107v213h199v-214c0 -65.333 -17.667 -118.666 -53 -159.999c-22.667 -26 -50.334 -45 -83.001 -57z" />
    <glyph glyph-name="uni1EEF" unicode="&#x1eef;" horiz-adv-x="991" 
d="M296 1292h-87.9961c13.333 78 35.166 136.167 65.499 174.5s68.166 57.5 113.499 57.5c13.333 0 23.333 -0.666992 30 -2l31 -6l110 -33l23 -5l25 -1c20 0 36.167 6.16699 48.5 18.5s21.5 31.166 27.5 56.499h88c-10.667 -73.333 -32.334 -131.166 -65.001 -173.499
s-73.334 -63.5 -122.001 -63.5c-11.333 0 -20 0.666992 -26 2l-25 6l-121 35l-16 4l-17 2c-20.667 0 -38 -6 -52 -18s-24 -30 -30 -54zM877.004 991l0.00195312 -991.002h-263v115c-26.667 -48 -61 -84.333 -103 -109c-19.333 -11.333 -41 -20.333 -65 -27s-49 -10 -75 -10
c-84.667 0 -148.834 23.833 -192.501 71.5s-65.5 116.834 -65.5 207.501v909h258v-756c0 -77.333 8.66699 -130.333 26 -159s46.666 -43 87.999 -43c44 0 75.5 16.333 94.5 49s28.5 89.334 28.5 170.001v739h269v-71c4 4 8 8.33301 12 13c19.333 25.333 29 57.666 29 96.999
v12h-107v213h199v-214c0 -65.333 -17.667 -118.666 -53 -159.999c-21.333 -25.333 -48 -44 -80 -56z" />
    <glyph glyph-name="U)nang" unicode="&#x1ef0;" horiz-adv-x="1223" 
d="M503 -390v237h220v-237h-220zM1094 1366l0.000976562 -889c0 -102 -5.66699 -177 -17 -225s-31 -90.333 -59 -127c-40.667 -53.333 -95.334 -94 -164.001 -122c-34.667 -13.333 -71.667 -23.333 -111 -30s-83 -10 -131 -10c-175.333 0 -299.333 38 -372 114
s-109 209.333 -109 400v1063h287v-1038c0 -118 14.5 -198.333 43.5 -241s80.5 -64 154.5 -64c72.667 0 123.334 21.5 152.001 64.5s43 124.5 43 244.5v1034h283v-81c5.33301 4.66699 10.333 10 15 16c19.333 25.333 29 57.666 29 96.999v12h-107v213h199v-214
c0 -65.333 -17.667 -118.666 -53 -159.999c-22.667 -26 -50.334 -45 -83.001 -57z" />
    <glyph glyph-name="uni1EF1" unicode="&#x1ef1;" horiz-adv-x="991" 
d="M376 -390v237h220v-237h-220zM877 991l0.00195312 -991.002h-263v115c-26.667 -48 -61 -84.333 -103 -109c-19.333 -11.333 -41 -20.333 -65 -27s-49 -10 -75 -10c-84.667 0 -148.834 23.833 -192.501 71.5s-65.5 116.834 -65.5 207.501v909h258v-756
c0 -77.333 8.66699 -130.333 26 -159s46.666 -43 87.999 -43c44 0 75.5 16.333 94.5 49s28.5 89.334 28.5 170.001v739h269v-71c4 4 8 8.33301 12 13c19.333 25.333 29 57.666 29 96.999v12h-107v213h199v-214c0 -65.333 -17.667 -118.666 -53 -159.999
c-21.333 -25.333 -48 -44 -80 -56z" />
    <glyph glyph-name="Yhuyen" unicode="&#x1ef2;" horiz-adv-x="1126" 
d="M422 0v653l-404 887h318l233 -579l230 579h309l-397 -887v-653h-289zM753 1669h-125l-305 285h256z" />
    <glyph glyph-name="yhuyen" unicode="&#x1ef3;" horiz-adv-x="909" 
d="M176 -379l0.00195312 200.001h17l26 -1c38 0 65.667 6.16699 83 18.5s26 32.166 26 59.499l-3 31l-3 18c-0.666992 4 -2.33398 9.66699 -5.00098 17l-297 1193h283l160 -835l155 835h271l-301 -1266c-26 -110 -61.333 -183.833 -106 -221.5
s-115.334 -56.5 -212.001 -56.5h-16c-6 0 -11.5 0.166992 -16.5 0.5s-9.5 0.833008 -13.5 1.5zM573.002 1280h-125l-305 285h256z" />
    <glyph glyph-name="Ynang" unicode="&#x1ef4;" horiz-adv-x="1126" 
d="M422 0v653l-404 887h318l233 -579l230 579h309l-397 -887v-653h-289zM463 -390v237h220v-237h-220z" />
    <glyph glyph-name="ynang" unicode="&#x1ef5;" horiz-adv-x="909" 
d="M176 -379l0.00195312 200.001h17l26 -1c38 0 65.667 6.16699 83 18.5s26 32.166 26 59.499l-3 31l-3 18c-0.666992 4 -2.33398 9.66699 -5.00098 17l-297 1193h283l160 -835l155 835h271l-301 -1266c-26 -110 -61.333 -183.833 -106 -221.5
s-115.334 -56.5 -212.001 -56.5h-16c-6 0 -11.5 0.166992 -16.5 0.5s-9.5 0.833008 -13.5 1.5zM615.002 -389.999v237h220v-237h-220z" />
    <glyph glyph-name="Yhoi" unicode="&#x1ef6;" horiz-adv-x="1126" 
d="M422 0v653l-404 887h318l233 -579l230 579h309l-397 -887v-653h-289zM553 1907l-116.998 -0.000976562v19c0 51.333 13.833 91.666 41.5 120.999s68.5 44 122.5 44c50.667 0 90.667 -14.333 120 -43s44 -66.667 44 -114c0 -18 -2 -34.667 -6 -50s-10 -29.666 -18 -42.999
c-10 -16.667 -24.833 -36.334 -44.5 -59.001s-32.834 -38.334 -39.501 -47.001c-8.66699 -12 -15.334 -25.333 -20.001 -40s-7 -31 -7 -49l1 -7v-11h-113l-2 15v17c0 14 0.833008 26.833 2.5 38.5s4.16699 22.834 7.5 33.501c7.33301 20.667 19.666 42.334 36.999 65.001
l21 25c34.667 40 52 79 52 117c0 20.667 -3.66699 35.834 -11 45.501s-16.666 14.5 -27.999 14.5c-13.333 0 -23.833 -5.66699 -31.5 -17s-11.5 -30.333 -11.5 -57v-18z" />
    <glyph glyph-name="yhoi" unicode="&#x1ef7;" horiz-adv-x="909" 
d="M176 -379l0.00195312 200.001h17l26 -1c38 0 65.667 6.16699 83 18.5s26 32.166 26 59.499l-3 31l-3 18c-0.666992 4 -2.33398 9.66699 -5.00098 17l-297 1193h283l160 -835l155 835h271l-301 -1266c-26 -110 -61.333 -183.833 -106 -221.5
s-115.334 -56.5 -212.001 -56.5h-16c-6 0 -11.5 0.166992 -16.5 0.5s-9.5 0.833008 -13.5 1.5zM428.002 1531l-116.002 -0.000976562v19c0 51.333 13.833 91.666 41.5 120.999s68.167 44 121.5 44c51.333 0 91.5 -14.333 120.5 -43s43.5 -66.667 43.5 -114
c0 -18 -2 -34.667 -6 -50s-10 -29.666 -18 -42.999c-9.33301 -16.667 -24 -36.334 -44 -59.001s-33 -38.334 -39 -47.001c-9.33301 -12 -16.166 -25.333 -20.499 -40s-6.5 -31 -6.5 -49v-7l1 -11h-114l-1 15v17c0 14 0.666992 26.833 2 38.5s4 22.834 8 33.501
c6.66699 20.667 19 42.334 37 65.001l20 25c34.667 40 52 79 52 117c0 20.667 -3.66699 35.834 -11 45.501s-16.666 14.5 -27.999 14.5c-12.667 0 -23 -5.66699 -31 -17s-12 -30.333 -12 -57v-18z" />
    <glyph glyph-name="Ynga" unicode="&#x1ef8;" horiz-adv-x="1126" 
d="M422 0v653l-404 887h318l233 -579l230 579h309l-397 -887v-653h-289zM409 1681h-87.9961c13.333 78 35.166 136.167 65.499 174.5s68.166 57.5 113.499 57.5c13.333 0 23.333 -0.666992 30 -2l31 -6l110 -33l23 -5l25 -1c20 0 36.167 6.16699 48.5 18.5
s21.5 31.166 27.5 56.499h88c-10.667 -73.333 -32.334 -131.166 -65.001 -173.499s-73.334 -63.5 -122.001 -63.5c-11.333 0 -20 0.666992 -26 2l-25 6l-121 35l-16 4l-17 2c-20.667 0 -38 -6 -52 -18s-24 -30 -30 -54z" />
    <glyph glyph-name="ynga" unicode="&#x1ef9;" horiz-adv-x="909" 
d="M176 -379l0.00195312 200.001h17l26 -1c38 0 65.667 6.16699 83 18.5s26 32.166 26 59.499l-3 31l-3 18c-0.666992 4 -2.33398 9.66699 -5.00098 17l-297 1193h283l160 -835l155 835h271l-301 -1266c-26 -110 -61.333 -183.833 -106 -221.5
s-115.334 -56.5 -212.001 -56.5h-16c-6 0 -11.5 0.166992 -16.5 0.5s-9.5 0.833008 -13.5 1.5zM296.002 1292h-87.9961c13.333 78 35.166 136.167 65.499 174.5s68.166 57.5 113.499 57.5c13.333 0 23.333 -0.666992 30 -2l31 -6l110 -33l23 -5l25 -1
c20 0 36.167 6.16699 48.5 18.5s21.5 31.166 27.5 56.499h88c-10.667 -73.333 -32.334 -131.166 -65.001 -173.499s-73.334 -63.5 -122.001 -63.5c-11.333 0 -20 0.666992 -26 2l-25 6l-121 35l-16 4l-17 2c-20.667 0 -38 -6 -52 -18s-24 -30 -30 -54z" />
    <glyph glyph-name="quoteleft" unicode="&#x2018;" horiz-adv-x="512" 
d="M369 1577l-0.000976562 -98c-39.333 -4.66699 -70.666 -21.667 -93.999 -51s-35 -66.333 -35 -111v-17h127v-262h-246v277c0 69.333 22.167 127.833 66.5 175.5s104.833 76.5 181.5 86.5z" />
    <glyph glyph-name="quoteright" unicode="&#x2019;" horiz-adv-x="512" 
d="M121 1004v98.001c40.667 5.33301 72 22.166 94 50.499s33 65.5 33 111.5v16h-127v260h248v-274c0 -70 -22.167 -128.333 -66.5 -175s-104.833 -75.667 -181.5 -87z" />
    <glyph glyph-name="quotedblleft" unicode="&#x201c;" horiz-adv-x="907" 
d="M516 1038l-0.000976562 277c0 69.333 22.5 127.833 67.5 175.5s105.167 76.5 180.5 86.5v-98c-39.333 -4.66699 -70.666 -21.667 -93.999 -51s-35 -66.333 -35 -111v-17h127v-262h-246zM120.999 1038l-0.000976562 277c0 69.333 22.167 127.833 66.5 175.5
s104.833 76.5 181.5 86.5v-98c-39.333 -4.66699 -70.666 -21.667 -93.999 -51s-35 -66.333 -35 -111v-17h127v-262h-246z" />
    <glyph glyph-name="quotedblright" unicode="&#x201d;" horiz-adv-x="907" 
d="M369 1540v-273.999c0 -70 -22.167 -128.333 -66.5 -175s-104.833 -75.667 -181.5 -87v98c40.667 5.33301 72 22.166 94 50.499s33 65.5 33 111.5v16h-127v260h248zM764 1540v-273.999c0 -70 -22.167 -128.333 -66.5 -175s-104.833 -75.667 -181.5 -87v98
c40.667 5.33301 72 22.166 94 50.499s33 65.5 33 111.5v16h-127v260h248z" />
    <glyph glyph-name="ellipsis" unicode="&#x2026;" horiz-adv-x="2048" 
d="M213 0v276h258v-276h-258zM895 0v276h258v-276h-258zM1579 0v276h258v-276h-258z" />
    <glyph glyph-name=".null" horiz-adv-x="0" 
 />
    <glyph glyph-name="nonmarkingreturn" horiz-adv-x="508" 
 />
  </font>
</defs>
</svg>
